<svg width="16" height="16" viewBox="0 0 16 16" fill="none" xmlns="http://www.w3.org/2000/svg">
<g clip-path="url(#clip0_27307_30286)">
<path d="M6.57129 2.44824C7.46036 1.6833 8.77597 1.6833 9.66504 2.44824C10.049 2.77854 10.5282 2.97765 11.0332 3.01562C12.2028 3.1034 13.1329 4.03357 13.2207 5.20312C13.2587 5.70795 13.457 6.18745 13.7871 6.57129C14.552 7.46036 14.552 8.77597 13.7871 9.66504C13.457 10.0489 13.2587 10.5284 13.2207 11.0332C13.1329 12.2028 12.2028 13.1329 11.0332 13.2207C10.5284 13.2587 10.0489 13.457 9.66504 13.7871C8.77597 14.552 7.46036 14.552 6.57129 13.7871C6.18745 13.457 5.70795 13.2587 5.20312 13.2207C4.03357 13.1329 3.1034 12.2028 3.01562 11.0332C2.97765 10.5282 2.77854 10.049 2.44824 9.66504C1.6833 8.77597 1.6833 7.46036 2.44824 6.57129C2.77855 6.18737 2.97763 5.70814 3.01562 5.20312C3.1034 4.03357 4.03357 3.1034 5.20312 3.01562C5.70814 2.97763 6.18737 2.77855 6.57129 2.44824ZM11.1826 5.87988C10.9132 5.63743 10.4973 5.65931 10.2549 5.92871L7.52832 8.95996L5.91309 7.61426C5.63465 7.38223 5.22128 7.41981 4.98926 7.69824C4.75724 7.97667 4.79481 8.39005 5.07324 8.62207L7.04395 10.2646C7.38716 10.5504 7.89457 10.5136 8.19336 10.1816L11.2305 6.80762C11.4729 6.53823 11.452 6.12234 11.1826 5.87988Z" fill="#F46482"/>
</g>
<defs>
<clipPath id="clip0_27307_30286">
<rect width="14" height="14" fill="white" transform="translate(1 1)"/>
</clipPath>
</defs>
</svg>
