<svg width="40" height="40" viewBox="0 0 40 40" fill="none" xmlns="http://www.w3.org/2000/svg">
<g clip-path="url(#clip0_28406_41526)">
<path d="M14.4856 0.409367C18.0781 1.56327 20.3699 4.88287 20.3856 8.46185L18.3889 7.82043L18.0984 6.28146L16.9719 7.3654L15.0614 6.75162L14.7711 5.21265L13.6446 6.29658L11.7341 5.68302L11.4436 4.14405L10.3171 5.22799L8.40657 4.61443L8.1163 3.07546L6.98978 4.15939L5 3.52013C7.0969 0.6195 10.8931 -0.744751 14.4856 0.409367Z" fill="#94D6B4"/>
<path d="M10.5397 7.03868C13.875 5.27403 17.8514 5.95302 20.4236 8.4418L18.5699 9.4225L17.2656 8.55518L17.2544 10.1183L15.4806 11.0567L14.1763 10.1894L14.1651 11.7528L12.3913 12.6911L11.0872 11.8238L11.076 13.3872L9.3022 14.3256L7.99792 13.4582L7.98669 15.0216L6.13946 15.9989C5.5289 12.4726 7.20443 8.80333 10.5397 7.03868Z" fill="#70C194"/>
<path d="M29.5385 7.0387C26.2033 5.27401 22.227 5.95302 19.6548 8.44185L21.5085 9.42258L22.8127 8.55524L22.824 10.1184L24.5977 11.0568L25.902 10.1895L25.9132 11.7529L27.687 12.6913L28.991 11.8239L29.0022 13.3874L30.776 14.3257L32.0802 13.4584L32.0915 15.0218L33.9387 15.9991C34.5492 12.4727 32.8737 8.80339 29.5385 7.0387Z" fill="#70C194"/>
<path d="M25.5927 0.409376C22.0003 1.5633 19.7086 4.88298 19.6928 8.46204L21.6895 7.82061L21.98 6.2816L23.1065 7.36556L25.0169 6.75177L25.3072 5.21277L26.4337 6.29672L28.3442 5.68315L28.6347 4.14415L29.7612 5.2281L31.6716 4.61453L31.9619 3.07553L33.0884 4.15948L35.0781 3.52021C32.9813 0.619513 29.1852 -0.744768 25.5927 0.409376Z" fill="#94D6B4"/>
<path d="M19 5.5C19 4.67157 19.6716 4 20.5 4C21.3284 4 22 4.67157 22 5.5V34H19V5.5Z" fill="#B7876C"/>
<path d="M19 21.2218V17.8885V16.7773H23L19 21.2218Z" fill="#8B6149"/>
<rect x="3" y="10" width="34" height="12.2222" rx="2" fill="white"/>
<path d="M12.3145 19H10.4468V13.6973H12.3364C13.9331 13.6973 14.9109 14.6897 14.9072 16.3413C14.9109 18.0002 13.9331 19 12.3145 19ZM11.5454 18.0552H12.2705C13.2812 18.0552 13.8086 17.5315 13.8086 16.3413C13.8086 15.1621 13.2812 14.6421 12.2778 14.6421H11.5454V18.0552ZM20.5615 16.3486C20.5615 18.0808 19.4885 19.0732 18.0859 19.0732C16.6724 19.0732 15.603 18.0735 15.603 16.3486C15.603 14.6165 16.6724 13.624 18.0859 13.624C19.4885 13.624 20.5615 14.6165 20.5615 16.3486ZM16.7236 16.3486C16.7236 17.4802 17.262 18.0955 18.0859 18.0991C18.9026 18.0955 19.4446 17.4802 19.4409 16.3486C19.4446 15.2134 18.9026 14.6018 18.0859 14.5981C17.262 14.6018 16.7236 15.2134 16.7236 16.3486ZM25.7764 13.6973V19H24.8242L22.4951 15.6309H22.4512V19H21.3525V13.6973H22.3193L24.6338 17.0664H24.6851V13.6973H25.7764ZM26.6699 19V13.6973H30.2295V14.6055H27.7686V15.8945H30.0464V16.8027H27.7686V18.0918H30.2368V19H26.6699Z" fill="#F46482"/>
<ellipse cx="20.5" cy="36" rx="16.5" ry="7" fill="#7C553E"/>
<path d="M5.04325 33.666C-3.56276 33.773 -10.0908 44.2747 -20.2355 41.3646C-25.0009 39.9976 -26.9255 37.8889 -29.1214 34.6827C-31.3174 31.4765 -32.9771 29.669 -38.186 29.669C-41.4661 29.669 -42.9865 29.669 -46.4591 32.5712C-49.9317 35.4733 -52 34.3264 -52 34.3264V52H46V31.1288C46 31.1288 41.6415 28.0448 38.0589 28.0008C34.4763 27.9567 31.8286 29.8088 29.1219 32.0238C26.4153 34.2388 24.1876 36 20 36C15.8124 36 13.6493 33.559 5.04325 33.666Z" fill="url(#paint0_linear_28406_41526)"/>
<path d="M31.1001 35.1112C30.4482 35.9451 29.8965 36.4751 29.3035 36.8522C28.721 37.2226 28.0858 37.454 27.2509 37.6761L27.2499 35.2748C27.5847 35.277 27.8765 35.1668 28.1483 34.9986C28.4447 34.8151 28.7418 34.5479 29.0473 34.2879L31.1001 35.1112Z" fill="#FBD5DA" stroke="#FBD5DA" stroke-width="0.5" stroke-linejoin="round"/>
<path d="M23.3276 35.6098C23.567 36.1833 23.9842 36.5867 24.5631 36.9044C25.1491 37.226 25.8891 37.4517 26.7563 37.6758L26.7695 35.6756C26.3997 35.5712 26.1491 35.3101 25.9548 35.0466C25.8411 34.8923 25.7317 34.717 25.6339 34.5708C25.5752 34.483 25.5177 34.4019 25.4597 34.3284L24.1454 35.2023C24.1367 35.2081 24.1276 35.2141 24.1181 35.2187L23.3276 35.6098Z" fill="#F46482" stroke="#F46482" stroke-width="0.5" stroke-linejoin="round"/>
<path d="M22.7725 31.3623C22.2888 32.6376 22.3173 33.8933 23.082 35.1582L25.1201 33.9355C24.7581 33.4328 24.6306 32.77 24.7158 32.168L23.4209 31.7373C23.4043 31.7318 23.3881 31.7247 23.373 31.7158L22.7725 31.3623Z" fill="#FBD5DA" stroke="#FBD5DA" stroke-width="0.5" stroke-linejoin="round"/>
<path d="M27 30.5L25 32L22.5 31C23.4876 29.2644 25.0433 28.2827 27 28V30.5Z" fill="#F46482"/>
<path d="M29.1549 32.1211L26.9859 30.8779L26.9151 28.1862C29 28 30.9973 29.4973 31.4509 31.1318L29.1549 32.1211Z" fill="#FBD5DA"/>
<path d="M30.8994 30.8516C31.3236 31.6865 31.5209 32.2249 31.5713 32.7559C31.6212 33.282 31.5266 33.8195 31.3232 34.6592L29.3223 33.8594C29.357 33.7423 29.3757 33.6277 29.376 33.5127C29.3765 33.3181 29.33 33.1385 29.2627 32.9678C29.1964 32.7996 29.1055 32.6289 29.0137 32.458C28.9516 32.3426 28.8888 32.2235 28.8252 32.0967L30.8994 30.8516Z" fill="#F46482" stroke="#F46482" stroke-width="0.5" stroke-linejoin="round"/>
<circle cx="27" cy="33" r="4.85" stroke="#27040D" stroke-width="0.3"/>
<path d="M23 35.5L27 33M31 30.5L27 33M27 33V28M27 33V38M27 33L31.5 35M27 33L22.5 31" stroke="#27040D" stroke-width="0.3"/>
<circle cx="27" cy="33" r="2.35" fill="#F8B0BB" stroke="#27040D" stroke-width="0.3"/>
</g>
<defs>
<linearGradient id="paint0_linear_28406_41526" x1="-3" y1="28" x2="-3" y2="52" gradientUnits="userSpaceOnUse">
<stop offset="0.206731" stop-color="#83C0E8"/>
<stop offset="0.451923" stop-color="#3B84C0"/>
</linearGradient>
<clipPath id="clip0_28406_41526">
<rect width="40" height="40" rx="4" fill="white"/>
</clipPath>
</defs>
</svg>
