<svg width="52" height="52" viewBox="0 0 52 52" fill="none" xmlns="http://www.w3.org/2000/svg">
<rect x="0.64" y="0.64" width="50.72" height="50.72" rx="24.96" fill="#334155"/>
<rect x="0.64" y="0.64" width="50.72" height="50.72" rx="24.96" stroke="#343E4E" stroke-width="1.28"/>
<path d="M23.6733 14.5338C15.8406 15.9946 10.6746 23.5286 12.1352 31.3613C13.5961 39.1941 21.1308 44.36 28.9637 42.8991C36.7963 41.4381 41.9614 33.9036 40.5006 26.0709C39.0395 18.2384 31.5058 13.0732 23.6733 14.5338Z" fill="#64748B"/>
<circle cx="3.6068" cy="3.6068" r="3.6068" transform="matrix(-0.983048 0.183347 0.183347 0.983048 15.0508 26.1841)" fill="#64748B"/>
<ellipse cx="3.6068" cy="3.60679" rx="3.6068" ry="3.60679" transform="matrix(-0.983048 0.183347 0.183347 0.983048 43.4766 26.1851)" fill="#64748B"/>
<path d="M22.9687 12.758C16.9103 14.1184 12.6213 19.1753 11.864 25.0872C14.0182 26.5707 16.7381 27.1904 19.4652 26.5782C22.2321 25.9567 24.452 24.1932 25.7582 21.8822C27.8444 25.56 32.1001 27.6172 36.3711 26.6584C37.9077 26.3133 39.2741 25.6138 40.4107 24.6663C40.3682 24.4209 40.3185 24.1754 40.2633 23.9297C38.4859 16.0143 30.7429 11.0125 22.9687 12.758Z" fill="#1E293B"/>
<path d="M26.2456 9.65416C31.768 9.70642 36.2663 12.9456 36.6881 17.0209L15.6656 16.8219C16.1644 12.7554 20.7233 9.60195 26.2456 9.65416Z" fill="#475569"/>
<rect x="12.1543" y="16.79" width="28.04" height="3.50499" rx="1.16833" transform="rotate(0.542195 12.1543 16.79)" fill="#475569"/>
<path d="M22.7149 12.2197C22.7332 10.284 24.3172 8.72969 26.2529 8.74801V8.74801C28.1886 8.76633 29.7429 10.3503 29.7246 12.286L29.6803 16.9591L22.6707 16.8928L22.7149 12.2197Z" fill="#334155"/>
</svg>
