<svg width="160" height="160" viewBox="0 0 160 160" fill="none" xmlns="http://www.w3.org/2000/svg">
<circle cx="80.5" cy="80.5" r="73.5" fill="#1E293B"/>
<mask id="mask0_28532_90587" style="mask-type:alpha" maskUnits="userSpaceOnUse" x="2" y="-4" width="158" height="158">
<circle cx="80.539" cy="74.539" r="73.539" fill="#1E293B" stroke="white" stroke-width="10"/>
</mask>
<g mask="url(#mask0_28532_90587)">
<path d="M131.521 112.905C127.689 104.122 124.585 100.261 117.059 95.2561C120.661 81.8649 125.262 77.2406 135.688 71.4785C148.435 84.2253 144.023 110.944 131.521 112.905Z" fill="#313131" stroke="#3A3A3B" stroke-width="3" stroke-linecap="round" stroke-linejoin="round"/>
<path d="M119.508 61.1818C102.507 61.5684 100.634 71.7224 108.477 89.6168C98.6734 87.6573 89.2142 88.0168 81.5143 84.9961C74.657 81.4822 72.594 81.4 75.6312 88.3927C81.0499 97.5732 93.6118 107.06 112.156 122.221C149.415 152.372 131.276 209.732 73.6718 209.732C53.0792 210.467 36.5854 198.096 12.6328 186.69C5.68678 183.382 1.73588 184.078 -3.05717 185.954C-9.42934 145.998 26.8503 111.68 73.6718 123.691C48.2615 103.304 40.7639 89.8765 43.2757 61.1818C48.9137 14.1183 119.508 19.7564 119.508 61.1818Z" fill="#FFB79F" stroke="#3A3A3B" stroke-width="3" stroke-linejoin="round"/>
<path d="M107.252 154.453C113.38 185.465 73.669 196.986 35.1836 183.749" stroke="#F68787" stroke-width="3" stroke-linecap="round" stroke-linejoin="round"/>
<path d="M45.731 152.863C45.731 152.863 21.7083 152.863 21.2181 161.688C20.7278 170.513 45.731 171.493 45.731 171.493C45.731 171.493 32.4883 171.248 31.5064 178.602C30.5245 185.956 51.6142 187.917 51.6142 187.917" stroke="white" stroke-width="3" stroke-linecap="round" stroke-linejoin="round"/>
<path d="M119.506 61.1816C102.84 61.917 100.39 70.9868 108.72 89.8618L117.058 95.2547C120.433 82.6273 124.471 77.4122 135.688 71.4771L119.506 61.1816Z" fill="white" stroke="#3A3A3B" stroke-width="3" stroke-linecap="round" stroke-linejoin="round"/>
<path d="M103.137 55.0568C103.137 58.3768 100.445 61.0687 97.1252 61.0687C93.8052 61.0687 91.1133 58.3768 91.1133 55.0568C91.1133 51.7368 93.8052 49.0449 97.1252 49.0449C100.445 49.0449 103.137 51.7368 103.137 55.0568Z" fill="white" stroke="#3A3A3B" stroke-width="1.7"/>
<path d="M99.2954 59.7841C100.623 59.7841 101.7 58.7075 101.7 57.3794C101.7 56.0513 100.623 54.9746 99.2954 54.9746C97.9673 54.9746 96.8906 56.0513 96.8906 57.3794C96.8906 58.7075 97.9673 59.7841 99.2954 59.7841Z" fill="#4B454C"/>
</g>
<circle cx="80.5" cy="80.5" r="73.5" stroke="#334155" stroke-width="3"/>
</svg>
