<svg width="44" height="50" viewBox="0 0 44 50" fill="none" xmlns="http://www.w3.org/2000/svg">
<g clip-path="url(#clip0_28407_38135)">
<path d="M5.52213 25.8934C6.43865 24.0003 7.18089 23.1682 8.98103 22.0895C8.11942 19.2034 7.0191 18.2067 4.5255 16.9648C1.47698 19.7121 2.53223 25.4708 5.52213 25.8934Z" fill="#313131" stroke="#3A3A3B" stroke-width="1.5" stroke-linecap="round" stroke-linejoin="round"/>
<path d="M8.51967 14.0806C12.9172 14.1717 13.4017 16.5654 11.3729 20.7839C13.9088 20.3219 16.3555 20.4067 18.3472 19.6946C20.121 18.8662 20.6546 18.8468 19.869 20.4953C18.4674 22.6595 15.2181 24.8959 10.4215 28.4699C0.783779 35.5776 5.47583 49.0998 20.3758 49.0998C25.7023 49.2732 29.9688 46.3567 36.1643 43.6679C37.9609 42.8881 38.9828 43.052 40.2227 43.4945C41.871 34.0751 32.4869 25.985 20.3758 28.8166C26.9485 24.0105 28.8879 20.8451 28.2381 14.0806C26.7798 2.98583 8.51967 4.31493 8.51967 14.0806Z" fill="#F68C9E"/>
<path d="M11.8351 35.7148C10.2455 43.2935 20.5462 46.109 30.529 42.8741" stroke="#F46482" stroke-width="2" stroke-linecap="round" stroke-linejoin="round"/>
<path d="M27.603 35.7148C27.603 35.7148 33.9885 35.7148 34.1188 37.7377C34.2491 39.7608 27.603 39.9856 27.603 39.9856C27.603 39.9856 31.1231 39.9294 31.3839 41.615C31.6449 43.3009 26.0391 43.7506 26.0391 43.7506" stroke="#F8DFDF" stroke-width="2" stroke-linecap="round" stroke-linejoin="round"/>
<path d="M8.62888 14.2852C12.8893 14.4586 13.5157 16.5976 11.3861 21.049L9.25463 22.3209C8.39184 19.3429 7.35983 18.1129 4.49219 16.7132L8.62888 14.2852Z" fill="white" stroke="#3A3A3B" stroke-width="1.5" stroke-linecap="round" stroke-linejoin="round"/>
<path d="M12.5703 12.0541C12.5703 12.7937 13.1734 13.3934 13.9173 13.3934C14.6611 13.3934 15.2642 12.7937 15.2642 12.0541C15.2642 11.3145 14.6611 10.7148 13.9173 10.7148C13.1734 10.7148 12.5703 11.3145 12.5703 12.0541Z" fill="white"/>
<path d="M13.4683 13.3912C12.9724 13.3912 12.5703 12.9915 12.5703 12.4983C12.5703 12.0052 12.9724 11.6055 13.4683 11.6055C13.9642 11.6055 14.3662 12.0052 14.3662 12.4983C14.3662 12.9915 13.9642 13.3912 13.4683 13.3912Z" fill="#4B454C"/>
<path d="M21.9725 1.58716C26.2778 2.73051 29.1546 6.14414 28.6797 9.39223L12.2951 5.04244C13.483 1.98308 17.6666 0.443782 21.9725 1.58716Z" fill="#FACC15"/>
<rect width="22.6008" height="2.80807" rx="1.04853" transform="matrix(0.966564 0.256425 -0.255301 0.966862 9.57031 4.31641)" fill="#FACC15"/>
<path d="M12.3281 5.04297L28.6826 9.38172L28.8544 8.73081C29.0236 8.09003 28.6415 7.43281 28.0009 7.26287L13.9662 3.53954C13.3257 3.36959 12.6692 3.75128 12.5 4.39206L12.3281 5.04297Z" fill="#925448"/>
</g>
<defs>
<clipPath id="clip0_28407_38135">
<rect width="44" height="50" fill="white"/>
</clipPath>
</defs>
</svg>
