<svg width="442" height="175" viewBox="0 0 442 175" fill="none" xmlns="http://www.w3.org/2000/svg">
<path d="M366 5C366 2.23858 368.239 0 371 0V0C373.761 0 376 2.23858 376 5V168H366V5Z" fill="#614743"/>
<path d="M311 21C311 18.7909 312.791 17 315 17H423.386C424.426 17 425.426 17.4055 426.172 18.1304L439.045 30.6304C440.663 32.2014 440.663 34.7986 439.045 36.3696L426.172 48.8696C425.426 49.5945 424.426 50 423.386 50H315C312.791 50 311 48.2091 311 46V21Z" fill="#F68C9E"/>
<path d="M318 20H422.139C422.872 20.0001 423.58 20.2691 424.129 20.7559L435.964 31.2559C437.309 32.4495 437.309 34.5505 435.964 35.7441L424.129 46.2441C423.58 46.7309 422.872 46.9999 422.139 47H318C316.343 47 315 45.6569 315 44V23C315 21.3431 316.343 20 318 20Z" fill="#F68C9E" stroke="white" stroke-width="2"/>
<path d="M327.047 39V27.6875H329.078V32.8906H329.234L333.656 27.6875H336.141L331.766 32.7656L336.188 39H333.734L330.344 34.1406L329.078 35.625V39H327.047ZM337.438 39V27.6875H344.797V29.3906H339.469V32.4844H344.406V34.1875H339.469V37.2812H344.828V39H337.438ZM346.75 39V27.6875H354.109V29.3906H348.781V32.4844H353.719V34.1875H348.781V37.2812H354.141V39H346.75ZM356.062 39V27.6875H360.312C362.906 27.6875 364.297 29.2656 364.297 31.4375C364.297 33.6094 362.891 35.1719 360.281 35.1719H358.094V39H356.062ZM358.094 33.5H360C361.531 33.5 362.219 32.6406 362.219 31.4375C362.219 30.2188 361.531 29.3906 360 29.3906H358.094V33.5ZM377.312 31.2969C376.953 30.0938 376.016 29.3594 374.641 29.3594C372.812 29.3594 371.5 30.7812 371.5 33.3281C371.5 35.9062 372.797 37.3281 374.688 37.3281C376.391 37.3281 377.484 36.2969 377.516 34.6875H374.891V33.0781H379.484V34.4375C379.484 37.3438 377.484 39.1562 374.688 39.1562C371.562 39.1562 369.453 36.9375 369.453 33.3438C369.453 29.7188 371.656 27.5312 374.625 27.5312C377.125 27.5312 379.047 29.0781 379.391 31.2969H377.312ZM391.422 33.3438C391.422 37 389.203 39.1562 386.234 39.1562C383.266 39.1562 381.047 36.9844 381.047 33.3438C381.047 29.6875 383.266 27.5312 386.234 27.5312C389.203 27.5312 391.422 29.6875 391.422 33.3438ZM389.375 33.3438C389.375 30.7656 388.078 29.3594 386.234 29.3594C384.391 29.3594 383.094 30.7656 383.094 33.3438C383.094 35.9219 384.391 37.3281 386.234 37.3281C388.078 37.3281 389.375 35.9219 389.375 33.3438ZM395.266 27.6875V39H393.234V27.6875H395.266ZM406.672 27.6875V39H404.859L399.5 31.2656H399.406V39H397.375V27.6875H399.219L404.547 35.4219H404.656V27.6875H406.672ZM416.344 31.2969C415.984 30.0938 415.047 29.3594 413.672 29.3594C411.844 29.3594 410.531 30.7812 410.531 33.3281C410.531 35.9062 411.828 37.3281 413.719 37.3281C415.422 37.3281 416.516 36.2969 416.547 34.6875H413.922V33.0781H418.516V34.4375C418.516 37.3438 416.516 39.1562 413.719 39.1562C410.594 39.1562 408.484 36.9375 408.484 33.3438C408.484 29.7188 410.688 27.5312 413.656 27.5312C416.156 27.5312 418.078 29.0781 418.422 31.2969H416.344Z" fill="white"/>
<rect x="340" y="70" width="62" height="62" rx="11" fill="#F68C9E" stroke="white" stroke-width="2"/>
<path d="M352.547 81.3906V79.6875H361.562V81.3906H358.078V91H356.047V81.3906H352.547ZM363.156 91V79.6875H365.188V84.4844H370.453V79.6875H372.5V91H370.453V86.1875H365.188V91H363.156ZM376.625 79.6875V91H374.594V79.6875H376.625ZM384.891 82.7969C384.797 81.8281 383.969 81.2656 382.75 81.2656C381.469 81.2656 380.688 81.8906 380.688 82.7344C380.688 83.6875 381.688 84.0781 382.625 84.2969L383.688 84.5781C385.375 84.9688 387 85.8594 387 87.8281C387 89.8125 385.438 91.1719 382.719 91.1719C380.078 91.1719 378.422 89.9062 378.328 87.6719H380.328C380.422 88.8594 381.422 89.4375 382.703 89.4375C384.047 89.4375 384.969 88.7812 384.969 87.8125C384.969 86.9219 384.141 86.5469 382.922 86.2344L381.641 85.9062C379.781 85.4219 378.625 84.4844 378.625 82.8594C378.625 80.8594 380.406 79.5312 382.781 79.5312C385.188 79.5312 386.812 80.8906 386.844 82.7969H384.891ZM355.438 109L352.25 97.6875H354.438L356.484 106.016H356.594L358.766 97.6875H360.766L362.953 106.031H363.047L365.094 97.6875H367.281L364.094 109H362.078L359.812 101.047H359.734L357.453 109H355.438ZM368.953 109H366.781L370.766 97.6875H373.266L377.266 109H375.094L374.156 106.203H369.891L368.953 109ZM370.438 104.562H373.609L372.062 100H371.969L370.438 104.562ZM376.672 97.6875H378.969L381.75 102.688H381.859L384.641 97.6875H386.938L382.828 104.766V109H380.797V104.766L376.672 97.6875Z" fill="white"/>
<path d="M353.736 123.789L353 115.684L382.434 116.421V112L392 118.632L382.434 126V120.842L353.736 123.789Z" fill="white"/>
<path d="M133.579 45.7102C134.184 48.4917 133.612 51.0832 131.27 52.4313C130.715 52.751 129.418 52.845 128.758 52.9884C128.099 53.1319 126.646 53.6353 126.008 53.5751C123.318 53.3209 121.722 51.2008 121.117 48.4192C120.513 45.6377 120.639 43.4412 122.981 42.0931C124.699 41.1039 125.52 41.831 126.179 41.6876C126.839 41.5442 127.547 40.6387 129.027 40.7785C131.717 41.0327 132.975 42.9287 133.579 45.7102Z" fill="#DB4533"/>
<path d="M121.19 39.6134C121.06 41.1323 123.593 43.5635 125.857 42.6134C125.655 40.3557 122.592 39.0117 121.19 39.6134Z" fill="#69AF24"/>
<path d="M129.887 37.2647C128.368 37.1338 125.937 39.6673 126.887 41.9313C129.144 41.7296 130.488 38.6662 129.887 37.2647Z" fill="#69AF24"/>
<path d="M127.308 40.4539C127.454 39.8132 127.054 39.1752 126.413 39.0291C125.772 38.8829 125.134 39.2838 124.988 39.9246L126.148 40.1893L127.308 40.4539ZM126.148 40.1893L124.988 39.9246C124.899 40.3144 124.814 40.7727 124.845 41.2896C124.877 41.8215 125.027 42.346 125.311 42.9042L126.371 42.3638L127.432 41.8234C127.274 41.5146 127.231 41.3074 127.221 41.1465C127.21 40.9707 127.235 40.7752 127.308 40.4539L126.148 40.1893Z" fill="#795231"/>
<path d="M125.487 161.03C135.731 161.961 139.534 165.765 140.154 167.551C118.891 167.24 74.0363 167.318 64.7239 167.318C53.0833 167.318 56.1099 159.4 51.6865 155.906C47.2631 152.413 33.2943 167.55 23.9819 151.481C14.6694 135.412 33.0615 129.125 43.538 129.59C54.0145 130.056 58.6707 146.591 65.8878 147.057C73.105 147.522 69.8456 137.974 80.0893 137.974C90.333 137.974 90.333 142.632 94.9892 145.194C99.6454 147.756 100.111 143.331 109.191 146.125C118.27 148.92 112.683 159.865 125.487 161.03Z" fill="#F8FAFC"/>
<path d="M12.2108 135.867C9.25814 136.714 9.26312 140.289 11.3598 140.972C12.7118 141.413 13.6944 141.411 14.8911 140.504C16.3869 139.37 15.9016 134.808 12.2108 135.867Z" fill="#F8FAFC"/>
<path d="M1.03559 136.027C-0.511784 137.563 1.14951 138.336 2.14679 138.711C3.0016 139.033 3.44749 138.833 3.92018 137.873C4.51104 136.672 2.9698 134.107 1.03559 136.027Z" fill="#F8FAFC"/>
<path d="M131.517 111.363C132.069 111.363 132.699 111.474 133.204 111.896C133.75 112.351 133.938 112.986 133.938 113.576C133.938 122.19 134.007 128.625 134.146 132.891V132.896L134.496 145.419V145.435C134.496 147.111 134.602 149.74 134.815 153.334L134.913 154.934L134.914 154.951L135.294 162.785H139.618C140.222 162.785 140.834 163.016 141.243 163.583C141.602 164.08 141.69 164.684 141.69 165.208C141.69 165.727 141.593 166.237 141.358 166.706L141.338 166.746L141.315 166.785C140.977 167.349 140.425 167.664 139.795 167.696L139.282 167.77H138.662C137.644 167.817 135.742 167.84 132.983 167.84C132.269 167.84 131.676 167.511 131.251 167.001L131.211 166.953L131.177 166.901C130.835 166.388 130.702 165.8 130.702 165.208V162.413C130.702 159.509 130.586 156.226 130.354 152.565L130.354 152.547C130.167 148.624 130.073 145.296 130.073 142.57C130.073 140.078 129.958 135.233 129.726 128.019L129.627 125.648C129.413 120.298 129.305 116.201 129.305 113.366C129.305 112.771 129.567 112.242 130.04 111.883C130.461 111.553 130.963 111.363 131.517 111.363ZM131.438 112.531C131.189 112.547 130.959 112.639 130.748 112.808C130.562 112.947 130.469 113.133 130.469 113.366L130.476 114.649C130.506 117.823 130.643 122.263 130.888 127.969C131.12 135.188 131.237 140.055 131.237 142.57L131.241 143.612C131.262 146.109 131.354 149.069 131.517 152.492C131.749 156.172 131.866 159.479 131.866 162.413V165.208L131.87 165.361C131.89 165.713 131.983 166.011 132.146 166.256C132.349 166.5 132.589 166.637 132.863 166.668L132.983 166.675C132.985 166.675 132.986 166.674 132.987 166.674C132.662 166.674 132.383 166.535 132.15 166.256C131.964 165.976 131.87 165.626 131.87 165.207V162.413C131.87 159.479 131.754 156.171 131.521 152.491C131.335 148.579 131.242 145.272 131.242 142.57C131.242 140.055 131.125 135.188 130.893 127.969C130.613 121.448 130.474 116.58 130.474 113.366C130.474 113.133 130.567 112.947 130.753 112.808C130.962 112.64 131.191 112.548 131.438 112.531ZM136.43 166.657C135.503 166.668 134.363 166.674 133.008 166.674C134.363 166.674 135.503 166.668 136.43 166.657Z" fill="#F68C9E"/>
<path d="M124.362 119.68C124.695 119.879 125.021 120.225 125.3 120.55C125.61 120.912 125.977 121.386 126.397 121.963L127.57 123.577L127.59 123.61C127.944 124.172 128.429 124.879 129.051 125.734C129.374 126.179 129.593 126.71 129.582 127.306C129.613 128.028 129.238 128.592 128.742 128.953C128.351 129.238 127.902 129.411 127.416 129.454C126.724 129.515 126.115 129.22 125.719 128.675C125.525 128.408 125.354 128.138 125.221 127.869L124.491 126.867C121.431 129.138 115.901 133.53 107.882 140.063C99.9617 146.514 94.1727 151.071 90.5293 153.721L88.9111 154.898L88.8732 154.92C88.696 155.029 88.5189 155.145 88.3397 155.263L89.1172 156.332C89.4791 156.83 89.7945 157.412 89.846 158.04C89.9064 158.776 89.5899 159.414 89.0138 159.833C88.5156 160.196 87.9365 160.296 87.3919 160.264L87.3922 160.266C86.8489 160.241 86.2532 160.035 85.8522 159.483L83.6198 156.412L83.607 156.393C82.9999 155.48 82.1937 154.331 81.1857 152.944C80.8153 152.434 80.6741 151.843 80.7138 151.242L80.7179 151.19L80.7256 151.137C80.816 150.565 81.0878 150.02 81.6076 149.642C82.0753 149.302 82.6878 149.111 83.3495 149.308C83.94 149.484 84.3655 149.913 84.6662 150.327L85.582 151.586C89.7252 148.546 94.7639 144.682 100.699 139.991L100.704 139.987L100.71 139.983C105.87 136 109.896 132.842 112.789 130.508L112.821 130.482L112.855 130.459L115.777 128.421L119.486 125.723C120.668 124.864 121.541 124.204 122.13 123.735L121.325 122.629C121.008 122.193 120.849 121.616 121.052 121.008C121.227 120.484 121.615 120.114 121.962 119.862C122.644 119.366 123.444 119.294 124.202 119.6L124.285 119.634L124.362 119.68ZM82.2923 150.584C82.0664 150.748 81.9267 150.993 81.8753 151.319C81.8513 151.682 81.9354 151.995 82.127 152.259C82.8868 153.304 83.5366 154.22 84.075 155.005L84.5755 155.748L86.7935 158.798L86.8491 158.866C86.9621 158.986 87.1175 159.056 87.3139 159.086C87.0839 159.051 86.911 158.956 86.7954 158.797L84.5771 155.745C83.9578 154.814 83.1417 153.651 82.1289 152.258C81.9373 151.994 81.8532 151.681 81.8772 151.318C81.9286 150.992 82.0671 150.748 82.2929 150.583C82.3211 150.563 82.3496 150.544 82.3778 150.527C82.3493 150.544 82.3209 150.563 82.2923 150.584ZM87.4473 159.1C87.4237 159.099 87.4006 159.096 87.378 159.094C87.4002 159.096 87.4225 159.101 87.4456 159.102C87.4727 159.104 87.4995 159.102 87.5258 159.103C87.5 159.102 87.4738 159.102 87.4473 159.1ZM87.6187 159.104C87.6461 159.103 87.6731 159.103 87.6997 159.101C87.6731 159.103 87.6461 159.103 87.6187 159.104ZM88.4199 158.818C88.3922 158.843 88.3622 158.867 88.3302 158.89C88.1946 158.989 88.0343 159.052 87.8494 159.083C87.9952 159.058 88.1264 159.015 88.2415 158.949L88.3291 158.892C88.3616 158.868 88.3918 158.843 88.4199 158.818ZM88.5258 158.701C88.5369 158.686 88.5486 158.673 88.5585 158.658C88.5485 158.673 88.5369 158.686 88.5258 158.701ZM88.5842 158.615C88.5932 158.6 88.6022 158.585 88.61 158.569C88.6021 158.585 88.5932 158.6 88.5842 158.615ZM88.6389 158.502C88.6414 158.496 88.6433 158.489 88.6456 158.482C88.6433 158.489 88.6414 158.496 88.6389 158.502ZM88.6674 158.407C88.6687 158.401 88.6699 158.395 88.6711 158.39C88.6699 158.395 88.6687 158.401 88.6674 158.407ZM88.6836 158.314C88.6848 158.303 88.6859 158.293 88.6867 158.282C88.6859 158.293 88.6848 158.303 88.6836 158.314ZM88.6892 158.206C88.6891 158.197 88.689 158.189 88.6887 158.18C88.689 158.189 88.6892 158.197 88.6892 158.206ZM91.2418 151.746C90.7453 152.117 90.2801 152.462 89.8457 152.778L88.2647 153.928C87.8769 154.167 87.486 154.424 87.0924 154.699L86.6978 154.981C87.2246 154.598 87.7471 154.247 88.2636 153.929L89.8446 152.779C90.2795 152.463 90.7447 152.118 91.2418 151.746ZM92.4923 147.856C91.6464 148.503 90.8251 149.124 90.0308 149.723C90.8251 149.124 91.6464 148.503 92.4923 147.856ZM93.3226 150.168C93.7413 149.847 94.1773 149.512 94.6287 149.162C94.1773 149.512 93.7413 149.847 93.3226 150.168ZM95.138 148.765C95.63 148.382 96.1411 147.983 96.67 147.568C96.1411 147.983 95.63 148.382 95.138 148.765ZM97.4135 146.982C97.8837 146.611 98.3679 146.228 98.8654 145.832C98.3679 146.228 97.8837 146.611 97.4135 146.982ZM99.4075 145.401C100.075 144.869 100.767 144.316 101.482 143.741C100.767 144.316 100.075 144.869 99.4075 145.401ZM114.286 133.381C112.175 135.075 109.796 137.001 107.148 139.158C105.236 140.716 103.449 142.161 101.787 143.496C102.588 142.852 103.419 142.184 104.278 141.489L107.147 139.16C109.796 137.002 112.175 135.076 114.286 133.381ZM122.832 124.663C122.441 124.975 121.946 125.353 121.348 125.798C121.946 125.353 122.441 124.975 122.832 124.663ZM127.314 128.292C127.044 128.316 126.826 128.215 126.662 127.989C126.583 127.881 126.513 127.775 126.45 127.674C126.475 127.714 126.499 127.756 126.526 127.797L126.661 127.991C126.805 128.188 126.989 128.291 127.214 128.297L127.313 128.294C127.379 128.288 127.443 128.276 127.506 128.262C127.444 128.276 127.379 128.286 127.314 128.292ZM126.312 127.44C126.339 127.49 126.367 127.541 126.399 127.593C126.367 127.541 126.339 127.49 126.312 127.44ZM125.322 126.027C125.048 125.65 124.846 125.451 124.716 125.43L124.409 125.482L124.407 125.483L124.715 125.432C124.845 125.452 125.048 125.651 125.322 126.028L126.225 127.271C126.246 127.318 126.272 127.364 126.297 127.412C126.272 127.363 126.247 127.316 126.226 127.27L125.733 126.592L125.322 126.027ZM127.536 128.253C127.588 128.241 127.639 128.226 127.689 128.207C127.639 128.226 127.588 128.241 127.536 128.253ZM127.732 128.189C127.777 128.171 127.821 128.151 127.865 128.128C127.821 128.151 127.777 128.171 127.732 128.189ZM128.254 127.828C128.201 127.891 128.136 127.953 128.058 128.01C128.009 128.046 127.958 128.076 127.907 128.105C127.928 128.093 127.952 128.083 127.973 128.07L128.057 128.011C128.136 127.954 128.201 127.892 128.254 127.828ZM122.22 121.873L122.266 121.944L123.704 123.921C123.576 124.046 123.395 124.204 123.163 124.395C123.396 124.203 123.577 124.045 123.706 123.92L122.268 121.943C122.241 121.905 122.217 121.866 122.198 121.829C122.205 121.843 122.211 121.859 122.22 121.873ZM122.151 121.714C122.158 121.738 122.168 121.762 122.178 121.787C122.168 121.762 122.158 121.738 122.151 121.714ZM122.13 121.601C122.131 121.617 122.134 121.633 122.136 121.649C122.133 121.633 122.131 121.617 122.13 121.601ZM122.134 121.478C122.132 121.489 122.13 121.5 122.129 121.511C122.13 121.5 122.132 121.489 122.134 121.478ZM122.168 121.348C122.163 121.362 122.157 121.376 122.153 121.39C122.157 121.376 122.163 121.362 122.168 121.348ZM122.219 121.239C122.213 121.249 122.208 121.26 122.203 121.27C122.208 121.26 122.213 121.249 122.219 121.239ZM122.313 121.107C122.302 121.12 122.292 121.133 122.283 121.146C122.292 121.133 122.302 121.12 122.313 121.107ZM122.445 120.968C122.414 120.998 122.386 121.028 122.359 121.057C122.386 121.028 122.414 120.998 122.445 120.968ZM122.906 120.656C122.817 120.692 122.73 120.742 122.646 120.804L122.552 120.875C122.535 120.889 122.52 120.904 122.504 120.917C122.548 120.879 122.596 120.84 122.648 120.802C122.732 120.741 122.818 120.692 122.906 120.656ZM88.4352 158.802C88.4565 158.782 88.4767 158.761 88.4953 158.74C88.4766 158.761 88.4566 158.782 88.4352 158.802ZM91.4713 151.573C91.894 151.256 92.339 150.921 92.805 150.565C92.339 150.921 91.894 151.256 91.4713 151.573Z" fill="#F68C9E"/>
<path d="M153.959 89.7612C152.142 85.8897 150.67 84.1881 147.102 81.9821C148.81 76.0799 150.991 74.0416 155.935 71.502C161.978 77.1202 159.886 88.8969 153.959 89.7612Z" fill="#313131"/>
<path d="M155.649 71.0323C155.875 70.9158 156.157 70.9528 156.341 71.123C159.525 74.0836 160.531 78.6181 160.008 82.4847C159.745 84.4247 159.093 86.2373 158.098 87.6349C157.102 89.033 155.733 90.0515 154.044 90.2979C153.783 90.3359 153.527 90.2053 153.421 89.9801C152.522 88.0647 151.725 86.7221 150.732 85.5918C149.741 84.4636 148.532 83.5212 146.775 82.4349C146.567 82.3064 146.471 82.0689 146.536 81.8449C147.401 78.8555 148.401 76.7891 149.85 75.1421C151.298 73.4971 153.156 72.3128 155.649 71.0323ZM155.82 72.1806C153.577 73.3575 151.985 74.4218 150.75 75.8262C149.501 77.2448 148.584 79.0494 147.768 81.7542C149.401 82.7885 150.613 83.7478 151.632 84.9085C152.645 86.0611 153.448 87.3903 154.294 89.1432C155.389 88.8606 156.354 88.127 157.129 87.0385C158.004 85.8092 158.609 84.1641 158.854 82.3497C159.33 78.8387 158.445 74.8445 155.82 72.1806Z" fill="#3A3A3B"/>
<path d="M148.262 66.9668C140.202 67.1372 139.314 71.6126 143.032 79.4998C138.384 78.6361 133.899 78.7945 130.248 77.4631C126.997 75.9143 126.019 75.8781 127.459 78.9602C130.028 83.0066 135.984 87.1879 144.776 93.8701C162.442 107.159 153.842 132.441 126.53 132.441C116.766 132.766 108.946 127.313 97.589 122.285C94.2957 120.828 92.4224 121.134 90.1498 121.961C87.1286 104.35 104.33 89.2243 126.53 94.5184C114.482 85.5326 110.927 79.6142 112.118 66.9668C114.791 46.2232 148.262 48.7082 148.262 66.9668Z" fill="#FF9CAC"/>
<path d="M130.756 111.099C131.077 110.582 131.788 110.405 132.344 110.703C135.379 112.332 137.134 114.612 137.663 117.035C138.191 119.448 137.476 121.893 135.798 123.788C132.388 127.639 125.34 128.995 116.886 124.458C116.33 124.16 116.14 123.499 116.461 122.983C116.782 122.466 117.492 122.289 118.048 122.587C125.866 126.783 131.544 125.192 134.004 122.415C135.26 120.996 135.766 119.207 135.386 117.465C135.007 115.734 133.725 113.94 131.182 112.575C130.626 112.276 130.435 111.616 130.756 111.099Z" fill="#F68C9E"/>
<path d="M119.792 106.672C119.791 106.672 119.791 106.672 119.791 107.86V106.672C119.085 106.672 118.512 107.204 118.512 107.86C118.512 108.476 119.015 108.982 119.66 109.042L119.791 109.049H119.816C119.835 109.049 119.864 109.049 119.903 109.05C119.981 109.051 120.098 109.052 120.247 109.056C120.547 109.063 120.978 109.078 121.496 109.107C122.538 109.167 123.915 109.284 125.286 109.516C126.677 109.751 127.97 110.089 128.897 110.549C129.847 111.021 130.116 111.462 130.137 111.816C130.155 112.116 129.979 112.534 129.049 113.04C128.145 113.533 126.84 113.92 125.417 114.208C124.015 114.492 122.594 114.662 121.515 114.761C120.977 114.81 120.529 114.841 120.217 114.859C120.062 114.869 119.94 114.875 119.859 114.879C119.818 114.881 119.787 114.882 119.768 114.883C119.758 114.883 119.75 114.884 119.746 114.884H119.741C119.04 114.909 118.493 115.454 118.513 116.106C118.533 116.757 119.113 117.271 119.814 117.26C119.815 117.26 119.818 117.26 119.821 117.26C119.829 117.26 119.843 117.26 119.862 117.26C119.899 117.26 119.958 117.26 120.035 117.262C120.188 117.265 120.413 117.272 120.686 117.291C121.237 117.328 121.959 117.408 122.679 117.576C123.411 117.746 124.062 117.988 124.529 118.306C124.971 118.608 125.208 118.943 125.268 119.362C125.287 119.491 125.262 119.776 124.536 120.223C123.834 120.655 122.784 121.027 121.605 121.327C120.449 121.621 119.267 121.822 118.364 121.95C117.915 122.013 117.541 122.058 117.28 122.087C117.15 122.101 117.048 122.111 116.98 122.118C116.947 122.121 116.921 122.124 116.905 122.125C116.897 122.126 116.891 122.127 116.887 122.127C116.885 122.127 116.884 122.127 116.883 122.127C116.18 122.188 115.663 122.767 115.728 123.42C115.794 124.074 116.417 124.554 117.12 124.494L117.001 123.31C117.115 124.449 117.12 124.492 117.12 124.494H117.121C117.122 124.494 117.123 124.493 117.123 124.493C117.125 124.493 117.128 124.493 117.131 124.493C117.137 124.492 117.145 124.492 117.156 124.491C117.177 124.489 117.208 124.486 117.247 124.482C117.325 124.474 117.438 124.463 117.58 124.447C117.865 124.416 118.268 124.368 118.749 124.3C119.707 124.164 120.995 123.946 122.28 123.619C123.544 123.298 124.906 122.846 125.948 122.205C126.966 121.578 128.017 120.54 127.802 119.048C127.639 117.909 126.981 117.071 126.176 116.485C127.624 116.18 129.148 115.742 130.342 115.092C131.569 114.423 132.788 113.328 132.69 111.684C132.595 110.093 131.353 109.075 130.102 108.453C128.828 107.82 127.229 107.428 125.744 107.177C124.238 106.923 122.753 106.797 121.652 106.735C121.099 106.703 120.639 106.688 120.314 106.68C120.152 106.676 120.024 106.674 119.935 106.673C119.89 106.672 119.855 106.672 119.831 106.672H119.792Z" fill="#F8DFDF"/>
<path d="M148.262 66.9648C140.36 67.289 139.198 71.2863 143.148 79.605L147.102 81.9818C148.702 76.4165 150.616 74.1181 155.935 71.5023L148.262 66.9648Z" fill="white"/>
<path d="M148.321 66.4287C148.409 66.4377 148.494 66.4652 148.569 66.5098L156.241 71.0472C156.416 71.1505 156.518 71.3323 156.51 71.5245C156.502 71.7167 156.384 71.8903 156.202 71.9803C153.576 73.2714 151.848 74.4573 150.576 75.9695C149.303 77.4837 148.45 79.369 147.658 82.122C147.61 82.289 147.479 82.4245 147.305 82.4866C147.132 82.5487 146.937 82.5298 146.781 82.436L142.828 80.0592C142.732 80.002 142.657 79.9201 142.612 79.8238C141.615 77.7245 140.929 75.874 140.594 74.2697C140.261 72.6684 140.269 71.2727 140.707 70.1091C141.615 67.702 144.217 66.5904 148.232 66.4258L148.321 66.4287ZM148.102 67.5137C144.335 67.6981 142.455 68.7417 141.804 70.4665C141.459 71.3826 141.423 72.5663 141.735 74.0642C142.04 75.5233 142.666 77.243 143.606 79.2401L146.748 81.1299C147.505 78.6796 148.37 76.8389 149.661 75.304C150.918 73.8093 152.55 72.6392 154.787 71.4675L148.102 67.5137Z" fill="#3A3A3B"/>
<path d="M140.616 67.2658C140.616 68.8708 139.315 70.1722 137.71 70.1722C136.106 70.1722 134.805 68.8708 134.805 67.2658C134.805 65.6608 136.106 64.3594 137.71 64.3594C139.315 64.3594 140.616 65.6608 140.616 67.2658Z" fill="white"/>
<path d="M138.756 69.5341C139.398 69.5341 139.918 69.0136 139.918 68.3716C139.918 67.7295 139.398 67.209 138.756 67.209C138.114 67.209 137.594 67.7295 137.594 68.3716C137.594 69.0136 138.114 69.5341 138.756 69.5341Z" fill="#4B454C"/>
<path d="M131.517 111.363C132.069 111.363 132.699 111.474 133.204 111.896C133.75 112.351 133.938 112.986 133.938 113.576C133.938 122.19 134.007 128.625 134.146 132.891V132.896L134.496 145.419V145.435C134.496 147.111 134.602 149.74 134.815 153.334L134.913 154.934L134.914 154.951L135.294 162.785H139.618C140.222 162.785 140.834 163.016 141.243 163.583C141.602 164.08 141.69 164.684 141.69 165.208C141.69 165.727 141.593 166.237 141.358 166.706L141.338 166.746L141.315 166.785C140.977 167.349 140.425 167.664 139.795 167.696L139.282 167.77H138.662C137.644 167.817 135.742 167.84 132.983 167.84C132.269 167.84 131.676 167.511 131.251 167.001L131.211 166.953L131.177 166.901C130.835 166.388 130.702 165.8 130.702 165.208V162.413C130.702 159.509 130.586 156.226 130.354 152.565L130.354 152.547C130.167 148.624 130.073 145.296 130.073 142.57C130.073 140.078 129.958 135.233 129.726 128.019L129.627 125.648C129.413 120.298 129.305 116.201 129.305 113.366C129.305 112.771 129.567 112.242 130.04 111.883C130.461 111.553 130.963 111.363 131.517 111.363ZM131.438 112.531C131.189 112.547 130.959 112.639 130.748 112.808C130.562 112.947 130.469 113.133 130.469 113.366L130.476 114.649C130.506 117.823 130.643 122.263 130.888 127.969C131.12 135.188 131.237 140.055 131.237 142.57L131.241 143.612C131.262 146.109 131.354 149.069 131.517 152.492C131.749 156.172 131.866 159.479 131.866 162.413V165.208L131.87 165.361C131.89 165.713 131.983 166.011 132.146 166.256C132.349 166.5 132.589 166.637 132.863 166.668L132.983 166.675C132.985 166.675 132.986 166.674 132.987 166.674C132.662 166.674 132.383 166.535 132.15 166.256C131.964 165.976 131.87 165.626 131.87 165.207V162.413C131.87 159.479 131.754 156.171 131.521 152.491C131.335 148.579 131.242 145.272 131.242 142.57C131.242 140.055 131.125 135.188 130.893 127.969C130.613 121.448 130.474 116.58 130.474 113.366C130.474 113.133 130.567 112.947 130.753 112.808C130.962 112.64 131.191 112.548 131.438 112.531ZM136.43 166.657C135.503 166.668 134.363 166.674 133.008 166.674C134.363 166.674 135.503 166.668 136.43 166.657Z" fill="#F68C9E"/>
<path d="M124.362 119.68C124.695 119.879 125.021 120.225 125.3 120.55C125.61 120.912 125.977 121.386 126.397 121.963L127.57 123.577L127.59 123.61C127.944 124.172 128.429 124.879 129.051 125.734C129.374 126.179 129.593 126.71 129.582 127.306C129.613 128.028 129.238 128.592 128.742 128.953C128.351 129.238 127.902 129.411 127.416 129.454C126.724 129.515 126.115 129.22 125.719 128.675C125.525 128.408 125.354 128.138 125.221 127.869L124.491 126.867C121.431 129.138 115.901 133.53 107.882 140.063C99.9617 146.514 94.1727 151.071 90.5293 153.721L88.9111 154.898L88.8732 154.92C88.696 155.029 88.5189 155.145 88.3397 155.263L89.1172 156.332C89.4791 156.83 89.7945 157.412 89.846 158.04C89.9064 158.776 89.5899 159.414 89.0138 159.833C88.5156 160.196 87.9365 160.296 87.3919 160.264L87.3922 160.266C86.8489 160.241 86.2532 160.035 85.8522 159.483L83.6198 156.412L83.607 156.393C82.9999 155.48 82.1937 154.331 81.1857 152.944C80.8153 152.434 80.6741 151.843 80.7138 151.242L80.7179 151.19L80.7256 151.137C80.816 150.565 81.0878 150.02 81.6076 149.642C82.0753 149.302 82.6878 149.111 83.3495 149.308C83.94 149.484 84.3655 149.913 84.6662 150.327L85.582 151.586C89.7252 148.546 94.7639 144.682 100.699 139.991L100.704 139.987L100.71 139.983C105.87 136 109.896 132.842 112.789 130.508L112.821 130.482L112.855 130.459L115.777 128.421L119.486 125.723C120.668 124.864 121.541 124.204 122.13 123.735L121.325 122.629C121.008 122.193 120.849 121.616 121.052 121.008C121.227 120.484 121.615 120.114 121.962 119.862C122.644 119.366 123.444 119.294 124.202 119.6L124.285 119.634L124.362 119.68ZM82.2923 150.584C82.0664 150.748 81.9267 150.993 81.8753 151.319C81.8513 151.682 81.9354 151.995 82.127 152.259C82.8868 153.304 83.5366 154.22 84.075 155.005L84.5755 155.748L86.7935 158.798L86.8491 158.866C86.9621 158.986 87.1175 159.056 87.3139 159.086C87.0839 159.051 86.911 158.956 86.7954 158.797L84.5771 155.745C83.9578 154.814 83.1417 153.651 82.1289 152.258C81.9373 151.994 81.8532 151.681 81.8772 151.318C81.9286 150.992 82.0671 150.748 82.2929 150.583C82.3211 150.563 82.3496 150.544 82.3778 150.527C82.3493 150.544 82.3209 150.563 82.2923 150.584ZM87.4473 159.1C87.4237 159.099 87.4006 159.096 87.378 159.094C87.4002 159.096 87.4225 159.101 87.4456 159.102C87.4727 159.104 87.4995 159.102 87.5258 159.103C87.5 159.102 87.4738 159.102 87.4473 159.1ZM87.6187 159.104C87.6461 159.103 87.6731 159.103 87.6997 159.101C87.6731 159.103 87.6461 159.103 87.6187 159.104ZM88.4199 158.818C88.3922 158.843 88.3622 158.867 88.3302 158.89C88.1946 158.989 88.0343 159.052 87.8494 159.083C87.9952 159.058 88.1264 159.015 88.2415 158.949L88.3291 158.892C88.3616 158.868 88.3918 158.843 88.4199 158.818ZM88.5258 158.701C88.5369 158.686 88.5486 158.673 88.5585 158.658C88.5485 158.673 88.5369 158.686 88.5258 158.701ZM88.5842 158.615C88.5932 158.6 88.6022 158.585 88.61 158.569C88.6021 158.585 88.5932 158.6 88.5842 158.615ZM88.6389 158.502C88.6414 158.496 88.6433 158.489 88.6456 158.482C88.6433 158.489 88.6414 158.496 88.6389 158.502ZM88.6674 158.407C88.6687 158.401 88.6699 158.395 88.6711 158.39C88.6699 158.395 88.6687 158.401 88.6674 158.407ZM88.6836 158.314C88.6848 158.303 88.6859 158.293 88.6867 158.282C88.6859 158.293 88.6848 158.303 88.6836 158.314ZM88.6892 158.206C88.6891 158.197 88.689 158.189 88.6887 158.18C88.689 158.189 88.6892 158.197 88.6892 158.206ZM91.2418 151.746C90.7453 152.117 90.2801 152.462 89.8457 152.778L88.2647 153.928C87.8769 154.167 87.486 154.424 87.0924 154.699L86.6978 154.981C87.2246 154.598 87.7471 154.247 88.2636 153.929L89.8446 152.779C90.2795 152.463 90.7447 152.118 91.2418 151.746ZM92.4923 147.856C91.6464 148.503 90.8251 149.124 90.0308 149.723C90.8251 149.124 91.6464 148.503 92.4923 147.856ZM93.3226 150.168C93.7413 149.847 94.1773 149.512 94.6287 149.162C94.1773 149.512 93.7413 149.847 93.3226 150.168ZM95.138 148.765C95.63 148.382 96.1411 147.983 96.67 147.568C96.1411 147.983 95.63 148.382 95.138 148.765ZM97.4135 146.982C97.8837 146.611 98.3679 146.228 98.8654 145.832C98.3679 146.228 97.8837 146.611 97.4135 146.982ZM99.4075 145.401C100.075 144.869 100.767 144.316 101.482 143.741C100.767 144.316 100.075 144.869 99.4075 145.401ZM114.286 133.381C112.175 135.075 109.796 137.001 107.148 139.158C105.236 140.716 103.449 142.161 101.787 143.496C102.588 142.852 103.419 142.184 104.278 141.489L107.147 139.16C109.796 137.002 112.175 135.076 114.286 133.381ZM122.832 124.663C122.441 124.975 121.946 125.353 121.348 125.798C121.946 125.353 122.441 124.975 122.832 124.663ZM127.314 128.292C127.044 128.316 126.826 128.215 126.662 127.989C126.583 127.881 126.513 127.775 126.45 127.674C126.475 127.714 126.499 127.756 126.526 127.797L126.661 127.991C126.805 128.188 126.989 128.291 127.214 128.297L127.313 128.294C127.379 128.288 127.443 128.276 127.506 128.262C127.444 128.276 127.379 128.286 127.314 128.292ZM126.312 127.44C126.339 127.49 126.367 127.541 126.399 127.593C126.367 127.541 126.339 127.49 126.312 127.44ZM125.322 126.027C125.048 125.65 124.846 125.451 124.716 125.43L124.409 125.482L124.407 125.483L124.715 125.432C124.845 125.452 125.048 125.651 125.322 126.028L126.225 127.271C126.246 127.318 126.272 127.364 126.297 127.412C126.272 127.363 126.247 127.316 126.226 127.27L125.733 126.592L125.322 126.027ZM127.536 128.253C127.588 128.241 127.639 128.226 127.689 128.207C127.639 128.226 127.588 128.241 127.536 128.253ZM127.732 128.189C127.777 128.171 127.821 128.151 127.865 128.128C127.821 128.151 127.777 128.171 127.732 128.189ZM128.254 127.828C128.201 127.891 128.136 127.953 128.058 128.01C128.009 128.046 127.958 128.076 127.907 128.105C127.928 128.093 127.952 128.083 127.973 128.07L128.057 128.011C128.136 127.954 128.201 127.892 128.254 127.828ZM122.22 121.873L122.266 121.944L123.704 123.921C123.576 124.046 123.395 124.204 123.163 124.395C123.396 124.203 123.577 124.045 123.706 123.92L122.268 121.943C122.241 121.905 122.217 121.866 122.198 121.829C122.205 121.843 122.211 121.859 122.22 121.873ZM122.151 121.714C122.158 121.738 122.168 121.762 122.178 121.787C122.168 121.762 122.158 121.738 122.151 121.714ZM122.13 121.601C122.131 121.617 122.134 121.633 122.136 121.649C122.133 121.633 122.131 121.617 122.13 121.601ZM122.134 121.478C122.132 121.489 122.13 121.5 122.129 121.511C122.13 121.5 122.132 121.489 122.134 121.478ZM122.168 121.348C122.163 121.362 122.157 121.376 122.153 121.39C122.157 121.376 122.163 121.362 122.168 121.348ZM122.219 121.239C122.213 121.249 122.208 121.26 122.203 121.27C122.208 121.26 122.213 121.249 122.219 121.239ZM122.313 121.107C122.302 121.12 122.292 121.133 122.283 121.146C122.292 121.133 122.302 121.12 122.313 121.107ZM122.445 120.968C122.414 120.998 122.386 121.028 122.359 121.057C122.386 121.028 122.414 120.998 122.445 120.968ZM122.906 120.656C122.817 120.692 122.73 120.742 122.646 120.804L122.552 120.875C122.535 120.889 122.52 120.904 122.504 120.917C122.548 120.879 122.596 120.84 122.648 120.802C122.732 120.741 122.818 120.692 122.906 120.656ZM88.4352 158.802C88.4565 158.782 88.4767 158.761 88.4953 158.74C88.4766 158.761 88.4566 158.782 88.4352 158.802ZM91.4713 151.573C91.894 151.256 92.339 150.921 92.805 150.565C92.339 150.921 91.894 151.256 91.4713 151.573Z" fill="#F68C9E"/>
<path d="M153.959 89.7612C152.142 85.8897 150.67 84.1881 147.102 81.9821C148.81 76.0799 150.991 74.0416 155.935 71.502C161.978 77.1202 159.886 88.8969 153.959 89.7612Z" fill="#313131"/>
<path d="M155.649 71.0323C155.875 70.9158 156.157 70.9528 156.341 71.123C159.525 74.0836 160.531 78.6181 160.008 82.4847C159.745 84.4247 159.093 86.2373 158.098 87.6349C157.102 89.033 155.733 90.0515 154.044 90.2979C153.783 90.3359 153.527 90.2053 153.421 89.9801C152.522 88.0647 151.725 86.7221 150.732 85.5918C149.741 84.4636 148.532 83.5212 146.775 82.4349C146.567 82.3064 146.471 82.0689 146.536 81.8449C147.401 78.8555 148.401 76.7891 149.85 75.1421C151.298 73.4971 153.156 72.3128 155.649 71.0323ZM155.82 72.1806C153.577 73.3575 151.985 74.4218 150.75 75.8262C149.501 77.2448 148.584 79.0494 147.768 81.7542C149.401 82.7885 150.613 83.7478 151.632 84.9085C152.645 86.0611 153.448 87.3903 154.294 89.1432C155.389 88.8606 156.354 88.127 157.129 87.0385C158.004 85.8092 158.609 84.1641 158.854 82.3497C159.33 78.8387 158.445 74.8445 155.82 72.1806Z" fill="#3A3A3B"/>
<path d="M148.262 66.9668C140.202 67.1372 139.314 71.6126 143.032 79.4998C138.384 78.6361 133.899 78.7945 130.248 77.4631C126.997 75.9143 126.019 75.8781 127.459 78.9602C130.028 83.0066 135.984 87.1879 144.776 93.8701C162.442 107.159 153.842 132.441 126.53 132.441C116.766 132.766 108.946 127.313 97.589 122.285C94.2957 120.828 92.4224 121.134 90.1498 121.961C87.1286 104.35 104.33 89.2243 126.53 94.5184C114.482 85.5326 110.927 79.6142 112.118 66.9668C114.791 46.2232 148.262 48.7082 148.262 66.9668Z" fill="#FF9CAC"/>
<path d="M130.756 111.099C131.077 110.582 131.788 110.405 132.344 110.703C135.379 112.332 137.134 114.612 137.663 117.035C138.191 119.448 137.476 121.893 135.798 123.788C132.388 127.639 125.34 128.995 116.886 124.458C116.33 124.16 116.14 123.499 116.461 122.983C116.782 122.466 117.492 122.289 118.048 122.587C125.866 126.783 131.544 125.192 134.004 122.415C135.26 120.996 135.766 119.207 135.386 117.465C135.007 115.734 133.725 113.94 131.182 112.575C130.626 112.276 130.435 111.616 130.756 111.099Z" fill="#F68C9E"/>
<path d="M119.792 106.672C119.791 106.672 119.791 106.672 119.791 107.86V106.672C119.085 106.672 118.512 107.204 118.512 107.86C118.512 108.476 119.015 108.982 119.66 109.042L119.791 109.049H119.816C119.835 109.049 119.864 109.049 119.903 109.05C119.981 109.051 120.098 109.052 120.247 109.056C120.547 109.063 120.978 109.078 121.496 109.107C122.538 109.167 123.915 109.284 125.286 109.516C126.677 109.751 127.97 110.089 128.897 110.549C129.847 111.021 130.116 111.462 130.137 111.816C130.155 112.116 129.979 112.534 129.049 113.04C128.145 113.533 126.84 113.92 125.417 114.208C124.015 114.492 122.594 114.662 121.515 114.761C120.977 114.81 120.529 114.841 120.217 114.859C120.062 114.869 119.94 114.875 119.859 114.879C119.818 114.881 119.787 114.882 119.768 114.883C119.758 114.883 119.75 114.884 119.746 114.884H119.741C119.04 114.909 118.493 115.454 118.513 116.106C118.533 116.757 119.113 117.271 119.814 117.26C119.815 117.26 119.818 117.26 119.821 117.26C119.829 117.26 119.843 117.26 119.862 117.26C119.899 117.26 119.958 117.26 120.035 117.262C120.188 117.265 120.413 117.272 120.686 117.291C121.237 117.328 121.959 117.408 122.679 117.576C123.411 117.746 124.062 117.988 124.529 118.306C124.971 118.608 125.208 118.943 125.268 119.362C125.287 119.491 125.262 119.776 124.536 120.223C123.834 120.655 122.784 121.027 121.605 121.327C120.449 121.621 119.267 121.822 118.364 121.95C117.915 122.013 117.541 122.058 117.28 122.087C117.15 122.101 117.048 122.111 116.98 122.118C116.947 122.121 116.921 122.124 116.905 122.125C116.897 122.126 116.891 122.127 116.887 122.127C116.885 122.127 116.884 122.127 116.883 122.127C116.18 122.188 115.663 122.767 115.728 123.42C115.794 124.074 116.417 124.554 117.12 124.494L117.001 123.31C117.115 124.449 117.12 124.492 117.12 124.494H117.121C117.122 124.494 117.123 124.493 117.123 124.493C117.125 124.493 117.128 124.493 117.131 124.493C117.137 124.492 117.145 124.492 117.156 124.491C117.177 124.489 117.208 124.486 117.247 124.482C117.325 124.474 117.438 124.463 117.58 124.447C117.865 124.416 118.268 124.368 118.749 124.3C119.707 124.164 120.995 123.946 122.28 123.619C123.544 123.298 124.906 122.846 125.948 122.205C126.966 121.578 128.017 120.54 127.802 119.048C127.639 117.909 126.981 117.071 126.176 116.485C127.624 116.18 129.148 115.742 130.342 115.092C131.569 114.423 132.788 113.328 132.69 111.684C132.595 110.093 131.353 109.075 130.102 108.453C128.828 107.82 127.229 107.428 125.744 107.177C124.238 106.923 122.753 106.797 121.652 106.735C121.099 106.703 120.639 106.688 120.314 106.68C120.152 106.676 120.024 106.674 119.935 106.673C119.89 106.672 119.855 106.672 119.831 106.672H119.792Z" fill="#F8DFDF"/>
<path d="M148.262 66.9648C140.36 67.289 139.198 71.2863 143.148 79.605L147.102 81.9818C148.702 76.4165 150.616 74.1181 155.935 71.5023L148.262 66.9648Z" fill="white"/>
<path d="M148.321 66.4287C148.409 66.4377 148.494 66.4652 148.569 66.5098L156.241 71.0472C156.416 71.1505 156.518 71.3323 156.51 71.5245C156.502 71.7167 156.384 71.8903 156.202 71.9803C153.576 73.2714 151.848 74.4573 150.576 75.9695C149.303 77.4837 148.45 79.369 147.658 82.122C147.61 82.289 147.479 82.4245 147.305 82.4866C147.132 82.5487 146.937 82.5298 146.781 82.436L142.828 80.0592C142.732 80.002 142.657 79.9201 142.612 79.8238C141.615 77.7245 140.929 75.874 140.594 74.2697C140.261 72.6684 140.269 71.2727 140.707 70.1091C141.615 67.702 144.217 66.5904 148.232 66.4258L148.321 66.4287ZM148.102 67.5137C144.335 67.6981 142.455 68.7417 141.804 70.4665C141.459 71.3826 141.423 72.5663 141.735 74.0642C142.04 75.5233 142.666 77.243 143.606 79.2401L146.748 81.1299C147.505 78.6796 148.37 76.8389 149.661 75.304C150.918 73.8093 152.55 72.6392 154.787 71.4675L148.102 67.5137Z" fill="#3A3A3B"/>
<path d="M140.616 67.2658C140.616 68.8708 139.315 70.1722 137.71 70.1722C136.106 70.1722 134.805 68.8708 134.805 67.2658C134.805 65.6608 136.106 64.3594 137.71 64.3594C139.315 64.3594 140.616 65.6608 140.616 67.2658Z" fill="white"/>
<path d="M138.756 69.5341C139.398 69.5341 139.918 69.0136 139.918 68.3716C139.918 67.7295 139.398 67.209 138.756 67.209C138.114 67.209 137.594 67.7295 137.594 68.3716C137.594 69.0136 138.114 69.5341 138.756 69.5341Z" fill="#4B454C"/>
<path d="M208.433 116.317C208.905 116.031 209.503 115.798 210.154 115.895C210.859 116 211.35 116.445 211.657 116.948C216.137 124.295 219.543 129.748 221.881 133.314L221.884 133.319L228.696 143.818L228.705 143.832C229.577 145.262 231.034 147.45 233.086 150.404L234.002 151.717L234.012 151.732L238.411 158.217L242.114 155.975C242.631 155.662 243.274 155.542 243.92 155.814C244.486 156.052 244.876 156.52 245.149 156.967C245.419 157.41 245.6 157.896 245.643 158.418L245.647 158.462L245.648 158.508C245.651 159.164 245.342 159.719 244.819 160.072L244.419 160.4L243.888 160.722C243.04 161.29 241.424 162.295 239.062 163.725C238.45 164.095 237.771 164.124 237.142 163.909L237.083 163.889L237.026 163.862C236.467 163.602 236.047 163.168 235.739 162.663L234.286 160.28C232.775 157.802 230.969 155.063 228.867 152.061L228.856 152.045C226.656 148.796 224.845 146.007 223.428 143.682C222.131 141.556 219.512 137.483 215.56 131.45L214.245 129.48C211.278 125.027 209.055 121.589 207.581 119.171C207.271 118.663 207.221 118.077 207.439 117.525C207.627 117.026 207.959 116.604 208.433 116.317ZM243.263 159.74C242.45 160.287 240.847 161.284 238.455 162.732C238.385 162.774 238.314 162.807 238.24 162.831C238.277 162.819 238.314 162.805 238.35 162.789L238.456 162.732C240.848 161.284 242.451 160.286 243.264 159.74L243.263 159.74ZM238.137 162.859C238.167 162.853 238.196 162.844 238.226 162.835C238.196 162.844 238.167 162.853 238.137 162.859ZM238.023 162.877C238.049 162.874 238.074 162.87 238.099 162.866C238.074 162.87 238.049 162.874 238.023 162.877ZM237.916 162.88C237.942 162.881 237.968 162.88 237.994 162.879C237.968 162.88 237.942 162.88 237.916 162.88ZM237.801 162.873C237.825 162.876 237.848 162.878 237.872 162.879C237.848 162.878 237.825 162.876 237.801 162.873ZM237.69 162.855C237.713 162.86 237.735 162.864 237.758 162.867C237.735 162.864 237.713 162.86 237.69 162.855ZM244.456 158.34C244.453 158.325 244.45 158.31 244.447 158.294C244.45 158.31 244.453 158.325 244.456 158.34ZM237.216 162.621C237.227 162.63 237.239 162.637 237.25 162.646C237.239 162.637 237.227 162.63 237.216 162.621ZM244.43 158.224C244.417 158.172 244.402 158.12 244.385 158.067C244.402 158.12 244.417 158.172 244.43 158.224ZM237.117 162.535C237.135 162.552 237.152 162.568 237.171 162.584C237.152 162.568 237.135 162.552 237.117 162.535ZM244.359 158C244.338 157.944 244.316 157.889 244.29 157.833C244.316 157.889 244.338 157.944 244.359 158ZM243.754 157.073C243.89 157.195 244.022 157.36 244.15 157.57C244.192 157.639 244.229 157.709 244.263 157.777C244.248 157.749 244.236 157.719 244.221 157.69L244.152 157.571C244.023 157.36 243.89 157.195 243.754 157.073ZM243.143 156.827C243.315 156.818 243.481 156.869 243.643 156.983L243.556 156.928C243.421 156.852 243.284 156.819 243.143 156.827ZM218.225 129.779C219.235 131.375 220.128 132.766 220.904 133.95L227.706 144.435C228.724 146.104 230.504 148.753 233.045 152.382L237.909 159.554C237.911 159.558 237.914 159.561 237.916 159.564L237.91 159.555L233.045 152.382C230.505 148.753 228.725 146.104 227.708 144.436L220.905 133.949C220.128 132.765 219.235 131.375 218.225 129.779ZM227.058 147.239C227.227 147.498 227.4 147.76 227.575 148.027C227.4 147.76 227.227 147.498 227.058 147.239ZM225.836 145.339C226.009 145.611 226.187 145.888 226.369 146.17C226.187 145.888 226.009 145.611 225.836 145.339ZM217.311 128.329C216.554 127.122 215.738 125.814 214.866 124.404C215.738 125.814 216.554 127.122 217.311 128.329ZM214.187 127.288C214.527 127.802 214.881 128.331 215.244 128.875C214.881 128.331 214.527 127.802 214.187 127.288ZM210.44 117.276C210.519 117.35 210.592 117.442 210.659 117.552C210.818 117.814 210.978 118.073 211.135 118.33L210.66 117.552C210.593 117.442 210.519 117.351 210.44 117.276ZM210.42 117.257C210.399 117.239 210.379 117.221 210.358 117.205C210.379 117.221 210.399 117.239 210.42 117.257ZM210.253 117.138C210.231 117.126 210.208 117.114 210.185 117.104C210.208 117.114 210.231 117.126 210.253 117.138ZM210.155 117.091C210.137 117.084 210.119 117.077 210.1 117.072C210.119 117.077 210.137 117.084 210.155 117.091ZM210.048 117.058C210.034 117.054 210.02 117.052 210.006 117.049C210.02 117.052 210.034 117.054 210.048 117.058ZM209.95 117.042C209.94 117.04 209.93 117.039 209.92 117.038C209.93 117.039 209.94 117.04 209.95 117.042ZM209.848 117.035C209.836 117.035 209.824 117.036 209.811 117.037C209.824 117.036 209.836 117.035 209.848 117.035ZM209.754 117.04C209.728 117.042 209.701 117.047 209.675 117.051C209.701 117.047 209.728 117.042 209.754 117.04ZM209.65 117.055C209.629 117.059 209.609 117.064 209.588 117.069C209.609 117.064 209.629 117.059 209.65 117.055ZM244.125 159.137C244.364 158.993 244.483 158.784 244.481 158.513C244.48 158.499 244.477 158.485 244.475 158.471C244.477 158.485 244.479 158.5 244.48 158.514C244.482 158.785 244.362 158.992 244.123 159.137L243.741 159.451L243.742 159.45L244.125 159.137ZM237.951 159.607C237.964 159.621 237.977 159.633 237.991 159.642C237.977 159.633 237.964 159.621 237.951 159.607ZM212.8 121.047C213.522 122.223 214.209 123.343 214.866 124.404C214.209 123.343 213.522 122.223 212.8 121.047ZM210.341 117.193C210.318 117.176 210.293 117.16 210.268 117.146C210.293 117.16 210.318 117.176 210.341 117.193Z" fill="#F68C9E"/>
<path d="M207.998 115.002C208.383 115.056 208.818 115.249 209.202 115.44C209.629 115.652 210.153 115.946 210.764 116.314L212.475 117.344L212.506 117.367C213.052 117.747 213.774 118.209 214.681 118.755C215.151 119.039 215.56 119.443 215.782 119.994C216.091 120.646 215.965 121.311 215.647 121.835C215.396 122.248 215.049 122.581 214.616 122.81C214.001 123.134 213.325 123.098 212.747 122.75C212.464 122.58 212.202 122.399 211.974 122.204L210.91 121.563C208.966 124.838 205.566 131.02 200.699 140.134C195.892 149.136 192.317 155.57 189.982 159.419L188.945 161.128L188.919 161.164C188.798 161.333 188.679 161.507 188.559 161.685L189.692 162.367C190.22 162.685 190.738 163.099 191.03 163.657C191.372 164.311 191.327 165.02 190.958 165.628C190.639 166.155 190.144 166.472 189.628 166.653L189.628 166.654C189.117 166.841 188.487 166.883 187.902 166.531L184.647 164.571L184.628 164.557C183.712 163.952 182.521 163.209 181.052 162.323C180.511 161.998 180.152 161.509 179.955 160.941L179.937 160.89L179.925 160.839C179.786 160.278 179.824 159.672 180.158 159.123C180.457 158.629 180.949 158.216 181.636 158.141C182.25 158.074 182.81 158.304 183.248 158.568L184.583 159.372C187.228 154.971 190.38 149.465 194.039 142.851L194.042 142.845L194.045 142.839C197.263 137.176 199.753 132.712 201.518 129.444L201.538 129.409L201.56 129.375L203.466 126.368L205.843 122.449C206.601 121.201 207.151 120.257 207.512 119.597L206.339 118.891C205.877 118.613 205.506 118.144 205.457 117.506C205.415 116.956 205.63 116.466 205.852 116.099C206.289 115.379 207 115.003 207.819 114.991L207.909 114.99L207.998 115.002ZM188.716 165.619C188.72 165.62 188.724 165.62 188.729 165.621C188.724 165.621 188.72 165.619 188.716 165.619ZM210.613 120.151C210.589 120.149 210.567 120.151 210.549 120.155L210.284 120.322C208.401 123.425 204.86 129.847 199.659 139.588C194.852 148.588 191.291 154.997 188.974 158.816L187.96 160.487C187.606 160.98 187.261 161.505 186.923 162.062L189.078 163.361C189.996 163.914 190.287 164.469 189.95 165.026C189.805 165.264 189.56 165.443 189.215 165.562C189.046 165.624 188.892 165.644 188.752 165.625C188.894 165.647 189.053 165.627 189.226 165.563C189.527 165.459 189.752 165.31 189.9 165.114L189.96 165.027C190.277 164.505 190.041 163.984 189.254 163.466L189.089 163.362L186.933 162.063C187.27 161.506 187.617 160.982 187.97 160.489L188.984 158.817C191.011 155.476 193.992 150.151 197.926 142.842L199.669 139.589C204.545 130.457 207.963 124.241 209.922 120.943L210.295 120.323L210.559 120.157C210.575 120.153 210.593 120.15 210.613 120.151ZM182.398 159.433C182.474 159.469 182.552 159.512 182.634 159.561L184.97 160.968C184.971 160.966 184.971 160.964 184.972 160.963L182.644 159.562L182.519 159.491C182.479 159.469 182.437 159.452 182.398 159.433ZM182.057 159.314C182.159 159.336 182.267 159.374 182.38 159.426C182.266 159.374 182.159 159.335 182.057 159.314ZM181.914 159.294C181.902 159.293 181.891 159.293 181.88 159.292C181.891 159.293 181.902 159.293 181.914 159.294ZM182.038 159.31C182.015 159.306 181.992 159.302 181.969 159.299C181.992 159.302 182.015 159.306 182.038 159.31ZM207.831 116.153C208.186 116.205 208.959 116.59 210.151 117.308L211.828 118.318C212.402 118.718 213.148 119.195 214.066 119.748C214.386 119.941 214.597 120.177 214.7 120.456C214.827 120.695 214.807 120.955 214.638 121.233C214.493 121.472 214.3 121.654 214.06 121.781C213.916 121.857 213.774 121.882 213.63 121.861C213.747 121.88 213.863 121.869 213.98 121.824L214.07 121.782C214.281 121.671 214.455 121.518 214.592 121.321L214.648 121.234C214.817 120.956 214.838 120.697 214.711 120.457C214.621 120.213 214.447 120.001 214.192 119.823L214.077 119.749C213.159 119.196 212.413 118.719 211.838 118.319L210.16 117.309C208.963 116.588 208.188 116.202 207.836 116.153C207.835 116.153 207.833 116.153 207.831 116.153Z" fill="#F68C9E"/>
<path d="M239.369 86.244C236.635 82.9586 234.78 81.6829 230.764 80.445C230.939 74.3154 232.543 71.8003 236.701 68.1095C243.974 72.0245 244.902 83.9253 239.369 86.244Z" fill="#313131"/>
<path d="M236.321 67.7226C236.512 67.5533 236.795 67.5184 237.015 67.637C240.848 69.7003 242.962 73.8295 243.425 77.6963C243.658 79.6364 243.481 81.5507 242.866 83.15C242.252 84.75 241.18 86.0767 239.602 86.7377C239.359 86.8397 239.078 86.7775 238.919 86.5864C237.566 84.9608 236.456 83.8632 235.209 83.0197C233.964 82.1778 232.555 81.5699 230.577 80.9602C230.343 80.8881 230.19 80.6827 230.197 80.4501C230.285 77.3453 230.737 75.0985 231.729 73.1446C232.72 71.193 234.225 69.5835 236.321 67.7226ZM236.776 68.7891C234.896 70.4875 233.619 71.9142 232.773 73.5804C231.919 75.2634 231.481 77.2366 231.37 80.0539C233.213 80.6446 234.629 81.2682 235.91 82.1343C237.181 82.9945 238.294 84.0776 239.555 85.5596C240.547 85.0123 241.298 84.0621 241.776 82.8165C242.317 81.4097 242.49 79.669 242.273 77.8544C241.852 74.3433 239.991 70.7058 236.776 68.7891Z" fill="#3A3A3B"/>
<path d="M228.122 65.6462C220.346 67.8284 220.608 72.3746 226.196 79.0639C221.47 79.3929 217.16 80.6686 213.284 80.296C209.742 79.6135 208.784 79.8233 210.955 82.4406C214.463 85.7069 221.29 88.2559 231.496 92.5113C251.97 100.929 249.976 127.508 223.484 134.344C214.094 137.101 205.139 133.79 192.861 131.775C189.3 131.191 187.56 131.956 185.564 133.324C178.211 117.065 191.097 98.1461 213.96 97.7046C200.018 92.0386 195.083 87.2102 193.062 74.6929C190.446 53.9825 223.537 48.0058 228.122 65.6462Z" fill="#FBD5DA"/>
<path d="M222.231 112.669C222.413 112.089 223.058 111.74 223.672 111.889C227.025 112.703 229.3 114.467 230.422 116.675C231.539 118.874 231.461 121.415 230.309 123.666C227.968 128.24 221.472 131.315 212.132 129.048C211.518 128.898 211.168 128.308 211.349 127.728C211.531 127.149 212.176 126.8 212.79 126.949C221.426 129.046 226.535 126.087 228.223 122.789C229.086 121.103 229.127 119.248 228.321 117.661C227.519 116.083 225.825 114.67 223.015 113.988C222.401 113.839 222.05 113.248 222.231 112.669Z" fill="#F8B0BB"/>
<path d="M212.43 110.65C212.431 110.65 212.431 110.65 212.133 111.798L212.43 110.65C213.115 110.826 213.538 111.484 213.373 112.118C213.218 112.712 212.603 113.075 211.963 112.973L211.834 112.946L211.81 112.94C211.791 112.935 211.763 112.928 211.725 112.919C211.649 112.9 211.536 112.873 211.39 112.839C211.097 112.771 210.676 112.677 210.165 112.576C209.14 112.372 207.775 112.141 206.386 112.022C204.979 111.901 203.64 111.903 202.625 112.117C201.585 112.335 201.214 112.693 201.104 113.03C201.011 113.316 201.077 113.763 201.852 114.485C202.605 115.187 203.773 115.888 205.081 116.522C206.37 117.147 207.706 117.667 208.728 118.033C209.237 118.215 209.664 118.357 209.961 118.453C210.11 118.501 210.226 118.537 210.304 118.561C210.343 118.574 210.373 118.583 210.392 118.588C210.401 118.591 210.408 118.593 210.413 118.595L210.418 118.596C211.09 118.796 211.485 119.459 211.302 120.084C211.118 120.707 210.427 121.059 209.75 120.873C209.749 120.872 209.746 120.872 209.743 120.871C209.735 120.869 209.722 120.865 209.704 120.861C209.667 120.851 209.61 120.837 209.536 120.82C209.386 120.784 209.166 120.735 208.896 120.685C208.353 120.583 207.632 120.48 206.892 120.461C206.139 120.442 205.447 120.513 204.914 120.704C204.409 120.884 204.095 121.149 203.932 121.539C203.881 121.658 203.834 121.94 204.426 122.553C204.998 123.147 205.924 123.769 206.991 124.354C208.039 124.927 209.135 125.417 209.979 125.767C210.398 125.94 210.75 126.078 210.996 126.17C211.118 126.217 211.214 126.252 211.279 126.276C211.311 126.287 211.335 126.296 211.35 126.302C211.358 126.304 211.364 126.306 211.367 126.308C211.369 126.308 211.37 126.308 211.371 126.309C212.037 126.543 212.393 127.232 212.166 127.847C211.938 128.462 211.213 128.771 210.547 128.536L210.959 127.422C210.563 128.494 210.548 128.534 210.547 128.536L210.545 128.536C210.545 128.535 210.544 128.535 210.543 128.535C210.542 128.534 210.539 128.533 210.536 128.532C210.531 128.53 210.523 128.528 210.513 128.524C210.492 128.517 210.464 128.506 210.426 128.493C210.352 128.466 210.246 128.426 210.112 128.376C209.844 128.274 209.465 128.127 209.015 127.94C208.12 127.57 206.925 127.037 205.761 126.399C204.616 125.773 203.408 124.995 202.559 124.115C201.728 123.254 200.97 121.989 201.552 120.601C201.997 119.541 202.845 118.897 203.774 118.532C202.445 117.875 201.078 117.07 200.083 116.143C199.06 115.19 198.153 113.827 198.661 112.263C199.153 110.751 200.613 110.078 201.982 109.79C203.377 109.497 205.026 109.519 206.53 109.648C208.054 109.779 209.526 110.029 210.61 110.245C211.154 110.353 211.605 110.453 211.921 110.527C212.08 110.563 212.205 110.593 212.291 110.615C212.335 110.625 212.369 110.634 212.392 110.64L212.43 110.65Z" fill="#FDEDEF"/>
<path d="M228.121 65.6452C220.537 67.9361 220.414 72.089 226.334 79.1375L230.766 80.4443C230.921 74.6669 232.2 71.9672 236.702 68.1087L228.121 65.6452Z" fill="white"/>
<path d="M228.051 65.1098C228.139 65.0965 228.228 65.1016 228.313 65.1259L236.894 67.5894C237.089 67.6455 237.234 67.7955 237.275 67.9833C237.315 68.1711 237.244 68.3682 237.09 68.5009C234.867 70.4054 233.489 71.9836 232.635 73.763C231.78 75.5446 231.426 77.5797 231.349 80.4377C231.345 80.611 231.252 80.7748 231.099 80.8783C230.946 80.9816 230.752 81.0122 230.578 80.9606L226.146 79.6538C226.039 79.6223 225.946 79.562 225.877 79.4804C224.383 77.7017 223.253 76.0855 222.526 74.6192C221.8 73.1556 221.457 71.8052 221.591 70.5711C221.867 68.0182 224.112 66.2931 227.964 65.1293L228.051 65.1098ZM228.111 66.2129C224.504 67.3337 222.942 68.8126 222.744 70.6419C222.639 71.6134 222.902 72.7661 223.581 74.135C224.242 75.4686 225.282 76.9732 226.695 78.6676L230.218 79.7069C230.336 77.1502 230.713 75.1553 231.58 73.3493C232.424 71.5904 233.713 70.0515 235.589 68.3595L228.111 66.2129Z" fill="#3A3A3B"/>
<path d="M220.773 67.8496C221.176 69.4003 220.241 70.9833 218.684 71.3849C217.128 71.7865 215.539 70.8548 215.136 69.3041C214.733 67.7534 215.668 66.1705 217.225 65.7688C218.781 65.3672 220.37 66.2989 220.773 67.8496Z" fill="white"/>
<path d="M219.547 70.5063C220.17 70.3456 220.544 69.7125 220.383 69.0922C220.221 68.4719 219.586 68.0992 218.963 68.2599C218.341 68.4205 217.967 69.0537 218.128 69.674C218.289 70.2943 218.925 70.667 219.547 70.5063Z" fill="#4B454C"/>
<path d="M208.5 116.467C208.972 116.18 209.568 115.948 210.218 116.045C210.921 116.151 211.412 116.596 211.719 117.1C216.191 124.46 219.59 129.923 221.924 133.495L221.927 133.5L228.727 144.017L228.736 144.032C229.607 145.464 231.061 147.655 233.109 150.615L234.024 151.931L234.032 151.945L238.425 158.443L242.122 156.197C242.638 155.884 243.28 155.762 243.924 156.035C244.489 156.273 244.877 156.742 245.15 157.19C245.419 157.634 245.601 158.121 245.644 158.644L245.648 158.689L245.648 158.733C245.652 159.391 245.343 159.947 244.822 160.301L244.422 160.63L243.892 160.952C243.046 161.521 241.432 162.528 239.074 163.961C238.464 164.331 237.786 164.359 237.158 164.144L237.099 164.124L237.042 164.098C236.483 163.837 236.064 163.402 235.757 162.897L234.306 160.509C232.798 158.027 230.996 155.283 228.897 152.275L228.887 152.26C226.691 149.005 224.883 146.211 223.468 143.882C222.174 141.753 219.56 137.672 215.615 131.628L214.301 129.655C211.34 125.194 209.121 121.749 207.649 119.327C207.34 118.818 207.29 118.23 207.508 117.677C207.696 117.177 208.027 116.754 208.5 116.467ZM244.483 158.739C244.485 159.011 244.366 159.219 244.127 159.364L243.745 159.678L243.268 159.968C242.456 160.515 240.856 161.515 238.468 162.966C238.399 163.008 238.328 163.04 238.254 163.065C238.291 163.053 238.328 163.039 238.363 163.023L238.47 162.966C240.858 161.515 242.457 160.516 243.269 159.968L243.746 159.678L244.128 159.364C244.366 159.219 244.485 159.011 244.484 158.74C244.483 158.734 244.481 158.728 244.481 158.722C244.481 158.728 244.483 158.733 244.483 158.739ZM238.143 163.095C238.177 163.088 238.21 163.078 238.244 163.068C238.21 163.078 238.177 163.088 238.143 163.095ZM238.047 163.109C238.074 163.106 238.1 163.101 238.127 163.096C238.1 163.101 238.074 163.106 238.047 163.109ZM237.922 163.115C237.948 163.115 237.974 163.114 238 163.112C237.974 163.114 237.948 163.115 237.922 163.115ZM237.802 163.105C237.834 163.109 237.865 163.112 237.895 163.114C237.865 163.112 237.834 163.109 237.802 163.105ZM237.706 163.088C237.726 163.092 237.746 163.097 237.766 163.1C237.746 163.097 237.726 163.092 237.706 163.088ZM237.435 162.991C237.468 163.01 237.501 163.027 237.535 163.043C237.575 163.056 237.615 163.068 237.654 163.078C237.615 163.068 237.575 163.056 237.535 163.043C237.501 163.027 237.467 163.01 237.435 162.991ZM244.458 158.562C244.455 158.548 244.453 158.534 244.451 158.52C244.453 158.534 244.455 158.548 244.458 158.562ZM237.24 162.861C237.247 162.866 237.255 162.872 237.263 162.878C237.255 162.872 237.247 162.866 237.24 162.861ZM244.433 158.45C244.42 158.396 244.405 158.343 244.387 158.29C244.405 158.343 244.42 158.397 244.433 158.45ZM237.05 162.687C237.062 162.699 237.074 162.711 237.086 162.723C237.074 162.711 237.062 162.699 237.05 162.687ZM244.364 158.227C244.343 158.171 244.32 158.115 244.293 158.058C244.32 158.115 244.343 158.171 244.364 158.227ZM243.069 157.059C243.456 156.996 243.817 157.24 244.154 157.795C244.196 157.864 244.232 157.933 244.266 158.002C244.251 157.973 244.24 157.943 244.224 157.914L244.155 157.795C243.818 157.24 243.456 156.995 243.069 157.059ZM220.949 134.132L227.74 144.636C228.756 146.308 230.532 148.961 233.067 152.597L237.923 159.782C237.925 159.785 237.928 159.788 237.93 159.791L237.925 159.782L233.069 152.597C230.533 148.962 228.756 146.308 227.74 144.636L220.95 134.132C220.786 133.881 220.617 133.622 220.444 133.353C220.617 133.622 220.785 133.882 220.949 134.132ZM228.393 149.429C228.565 149.689 228.743 149.951 228.922 150.218C228.743 149.951 228.565 149.689 228.393 149.429ZM227.083 147.431C227.294 147.755 227.511 148.085 227.732 148.421C227.511 148.085 227.294 147.755 227.083 147.431ZM225.817 145.456C226.007 145.756 226.203 146.062 226.403 146.374C226.203 146.062 226.007 145.756 225.817 145.456ZM219.223 131.451C218.919 130.974 218.603 130.475 218.275 129.954C218.603 130.475 218.919 130.974 219.223 131.451ZM217.362 128.5C216.037 126.382 214.538 123.95 212.859 121.206C214.538 123.95 216.037 126.382 217.362 128.5ZM210.421 117.357C210.532 117.442 210.632 117.558 210.722 117.705C210.881 117.967 211.041 118.227 211.197 118.484L210.723 117.705C210.633 117.558 210.533 117.442 210.421 117.357ZM210.402 117.344C210.382 117.33 210.361 117.316 210.341 117.303C210.361 117.316 210.382 117.33 210.402 117.344ZM210.308 117.285C210.289 117.275 210.27 117.265 210.25 117.257C210.27 117.265 210.289 117.275 210.308 117.285ZM210.219 117.244C210.2 117.237 210.181 117.229 210.162 117.224C210.181 117.229 210.2 117.236 210.219 117.244ZM210.121 117.213C210.102 117.208 210.083 117.204 210.063 117.2C210.083 117.204 210.102 117.208 210.121 117.213ZM210.027 117.195C210.009 117.193 209.991 117.191 209.973 117.19C209.991 117.191 210.009 117.193 210.027 117.195ZM209.914 117.188C209.899 117.188 209.885 117.189 209.87 117.189C209.885 117.189 209.899 117.188 209.914 117.188ZM209.823 117.192C209.798 117.194 209.773 117.198 209.748 117.202C209.773 117.198 209.798 117.194 209.823 117.192ZM209.711 117.208C209.693 117.212 209.675 117.216 209.657 117.221C209.675 117.216 209.693 117.212 209.711 117.208ZM209.36 117.324C209.349 117.329 209.339 117.335 209.328 117.341C209.339 117.335 209.349 117.329 209.36 117.324ZM237.966 159.835C237.979 159.849 237.991 159.861 238.005 159.869C237.991 159.861 237.979 159.849 237.966 159.835ZM219.73 132.245C219.565 131.987 219.395 131.723 219.223 131.451C219.395 131.723 219.565 131.987 219.73 132.245Z" fill="#F68C9E"/>
<path d="M208.075 115.146C208.459 115.199 208.893 115.392 209.277 115.583C209.703 115.796 210.226 116.091 210.836 116.46L212.543 117.492L212.575 117.514C213.119 117.895 213.841 118.358 214.745 118.905C215.216 119.189 215.623 119.594 215.844 120.147C216.153 120.8 216.028 121.466 215.71 121.991C215.46 122.405 215.113 122.738 214.681 122.967C214.067 123.291 213.393 123.256 212.816 122.908C212.533 122.737 212.271 122.555 212.044 122.36L210.982 121.717C209.041 124.998 205.647 131.191 200.789 140.322C195.99 149.34 192.422 155.786 190.091 159.641L189.056 161.353L189.03 161.39C188.909 161.559 188.79 161.734 188.671 161.912L189.802 162.595C190.329 162.913 190.846 163.328 191.136 163.886C191.478 164.541 191.434 165.252 191.065 165.862C190.746 166.389 190.253 166.706 189.738 166.888L189.738 166.89C189.227 167.077 188.598 167.119 188.015 166.766L184.766 164.802L184.746 164.788C183.832 164.182 182.643 163.437 181.176 162.55C180.637 162.225 180.279 161.735 180.082 161.166L180.064 161.116L180.052 161.064C179.913 160.502 179.952 159.895 180.284 159.345C180.584 158.85 181.074 158.436 181.76 158.361C182.373 158.294 182.931 158.525 183.369 158.789L184.702 159.594C187.342 155.185 190.488 149.669 194.141 143.043L194.144 143.038L194.147 143.032C197.359 137.359 199.845 132.887 201.608 129.613L201.627 129.578L201.648 129.544L203.55 126.531L205.924 122.605C206.68 121.355 207.23 120.41 207.59 119.749L206.419 119.041C205.958 118.762 205.587 118.292 205.538 117.653C205.496 117.102 205.711 116.612 205.933 116.244C206.369 115.523 207.079 115.146 207.897 115.134L207.986 115.134L208.075 115.146ZM188.939 165.865C189.061 165.871 189.193 165.849 189.336 165.797C189.637 165.693 189.862 165.542 190.01 165.346L190.069 165.26C190.385 164.737 190.15 164.215 189.364 163.696L189.2 163.591L187.048 162.291C187.385 161.733 187.73 161.207 188.083 160.713L189.095 159.039C191.119 155.691 194.094 150.357 198.02 143.035L199.761 139.775C204.629 130.627 208.04 124.401 209.996 121.097L210.368 120.476L210.632 120.309C210.647 120.305 210.666 120.303 210.686 120.303C210.661 120.302 210.639 120.303 210.621 120.308L210.358 120.474C208.478 123.583 204.942 130.016 199.751 139.774C194.953 148.791 191.397 155.212 189.084 159.038L188.073 160.712C187.72 161.206 187.374 161.732 187.037 162.29L189.189 163.59C190.106 164.144 190.395 164.701 190.058 165.258C189.913 165.497 189.669 165.676 189.325 165.795C189.187 165.846 189.058 165.869 188.939 165.865ZM182.52 159.655C182.596 159.691 182.675 159.734 182.756 159.783L185.088 161.193C185.089 161.192 185.089 161.19 185.09 161.189L182.767 159.785L182.642 159.713C182.601 159.691 182.56 159.674 182.52 159.655ZM182.18 159.536C182.282 159.558 182.389 159.596 182.503 159.648C182.389 159.596 182.282 159.557 182.18 159.536ZM182.055 159.518C182.036 159.516 182.018 159.515 181.999 159.514C182.018 159.515 182.036 159.516 182.055 159.518ZM182.164 159.533C182.135 159.527 182.107 159.523 182.08 159.52C182.107 159.523 182.135 159.527 182.164 159.533ZM213.702 122.017C213.72 122.02 213.739 122.022 213.757 122.023C213.738 122.023 213.72 122.02 213.702 122.017ZM207.909 116.299C208.263 116.351 209.035 116.736 210.223 117.455L211.898 118.467C212.471 118.869 213.217 119.346 214.133 119.899C214.452 120.092 214.663 120.329 214.766 120.609C214.893 120.849 214.872 121.108 214.703 121.387C214.559 121.626 214.367 121.809 214.127 121.936C214.009 121.998 213.892 122.027 213.775 122.024C213.866 122.028 213.956 122.014 214.047 121.979L214.136 121.937C214.346 121.826 214.52 121.673 214.657 121.476L214.714 121.389C214.883 121.11 214.903 120.85 214.776 120.61C214.686 120.365 214.513 120.154 214.258 119.976L214.144 119.901C213.227 119.347 212.481 118.869 211.908 118.468L210.234 117.456C209.039 116.734 208.265 116.348 207.914 116.299C207.912 116.299 207.91 116.299 207.909 116.299ZM188.868 165.858C188.89 165.861 188.912 165.864 188.935 165.866C188.912 165.865 188.89 165.861 188.868 165.858Z" fill="#F68C9E"/>
<path d="M239.396 86.3368C236.666 83.0455 234.815 81.7676 230.807 80.5275C230.981 74.387 232.582 71.8674 236.732 68.17C243.992 72.0919 244.919 84.014 239.396 86.3368Z" fill="#313131"/>
<path d="M236.345 67.785C236.535 67.6155 236.817 67.5805 237.037 67.6993C240.863 69.7662 242.974 73.9029 243.436 77.7765C243.668 79.72 243.491 81.6378 242.878 83.2399C242.264 84.8427 241.194 86.1718 239.62 86.834C239.377 86.9362 239.096 86.8739 238.938 86.6824C237.587 85.054 236.479 83.9544 235.234 83.1093C233.991 82.266 232.585 81.657 230.611 81.0462C230.377 80.974 230.224 80.7683 230.231 80.5352C230.319 77.4249 230.77 75.1741 231.76 73.2167C232.749 71.2617 234.252 69.6493 236.345 67.785ZM236.799 68.8534C234.921 70.5549 233.647 71.9841 232.803 73.6533C231.95 75.3393 231.513 77.3159 231.402 80.1383C233.242 80.7301 234.656 81.3547 235.934 82.2224C237.203 83.0841 238.314 84.1692 239.572 85.6538C240.562 85.1055 241.312 84.1536 241.79 82.9058C242.329 81.4965 242.502 79.7527 242.285 77.9349C241.866 74.4175 240.008 70.7735 236.799 68.8534Z" fill="#3A3A3B"/>
<path d="M228.163 65.7039C220.401 67.89 220.663 72.4443 226.241 79.1455C221.523 79.4751 217.22 80.7531 213.352 80.3798C209.815 79.696 208.859 79.9062 211.026 82.5282C214.528 85.8004 221.343 88.3539 231.531 92.6168C251.968 101.049 249.978 127.676 223.533 134.524C214.16 137.286 205.221 133.969 192.965 131.951C189.41 131.365 187.673 132.132 185.68 133.502C178.34 117.215 191.204 98.2617 214.027 97.8194C200.108 92.1432 195.183 87.3063 193.166 74.7667C190.554 54.0195 223.586 48.0321 228.163 65.7039Z" fill="#FBD5DA"/>
<path d="M222.277 112.81C222.458 112.229 223.102 111.879 223.715 112.029C227.062 112.844 229.332 114.611 230.452 116.823C231.568 119.026 231.489 121.572 230.339 123.827C228.003 128.409 221.518 131.489 212.196 129.218C211.583 129.068 211.233 128.477 211.414 127.896C211.595 127.315 212.239 126.966 212.852 127.115C221.473 129.216 226.572 126.252 228.258 122.948C229.119 121.259 229.16 119.401 228.355 117.811C227.554 116.23 225.863 114.815 223.058 114.131C222.445 113.982 222.095 113.39 222.277 112.81Z" fill="#F8B0BB"/>
<path d="M212.502 110.788C212.502 110.788 212.503 110.788 212.205 111.939L212.502 110.788C213.185 110.965 213.607 111.624 213.443 112.259C213.288 112.855 212.674 113.218 212.035 113.115L211.907 113.089L211.882 113.082C211.864 113.078 211.835 113.071 211.798 113.061C211.722 113.043 211.609 113.015 211.463 112.981C211.171 112.913 210.75 112.819 210.241 112.718C209.217 112.514 207.854 112.282 206.469 112.163C205.063 112.042 203.727 112.044 202.714 112.258C201.676 112.476 201.305 112.835 201.196 113.172C201.103 113.459 201.168 113.907 201.942 114.631C202.694 115.334 203.86 116.036 205.166 116.671C206.452 117.298 207.786 117.818 208.806 118.185C209.314 118.367 209.74 118.509 210.037 118.605C210.186 118.653 210.302 118.69 210.38 118.714C210.419 118.726 210.448 118.735 210.467 118.741C210.476 118.744 210.484 118.746 210.488 118.747L210.493 118.749C211.164 118.949 211.558 119.614 211.375 120.239C211.192 120.864 210.502 121.216 209.826 121.029C209.825 121.029 209.823 121.029 209.819 121.028C209.812 121.026 209.798 121.022 209.78 121.018C209.744 121.008 209.687 120.994 209.612 120.976C209.463 120.941 209.243 120.891 208.974 120.841C208.431 120.739 207.712 120.636 206.973 120.617C206.222 120.598 205.531 120.669 204.999 120.86C204.495 121.041 204.181 121.307 204.018 121.697C203.968 121.817 203.921 122.099 204.512 122.713C205.083 123.307 206.007 123.931 207.072 124.517C208.118 125.091 209.213 125.582 210.054 125.932C210.473 126.106 210.825 126.244 211.07 126.337C211.192 126.383 211.288 126.419 211.352 126.442C211.384 126.454 211.408 126.462 211.424 126.468C211.431 126.471 211.437 126.473 211.44 126.474C211.442 126.475 211.443 126.475 211.444 126.475C212.109 126.71 212.465 127.4 212.238 128.016C212.011 128.633 211.287 128.941 210.622 128.706L211.033 127.591C210.637 128.664 210.622 128.705 210.622 128.706L210.62 128.706C210.62 128.706 210.619 128.705 210.618 128.705C210.616 128.704 210.614 128.704 210.611 128.703C210.606 128.701 210.598 128.698 210.588 128.694C210.567 128.687 210.538 128.676 210.501 128.663C210.428 128.636 210.321 128.597 210.187 128.546C209.92 128.444 209.541 128.296 209.093 128.11C208.199 127.738 207.007 127.205 205.844 126.566C204.701 125.938 203.496 125.16 202.648 124.277C201.819 123.415 201.062 122.147 201.643 120.757C202.087 119.696 202.934 119.05 203.861 118.684C202.535 118.026 201.169 117.22 200.176 116.292C199.155 115.337 198.25 113.971 198.757 112.405C199.248 110.889 200.705 110.215 202.072 109.927C203.465 109.634 205.111 109.655 206.612 109.785C208.133 109.916 209.603 110.167 210.685 110.383C211.228 110.491 211.678 110.591 211.994 110.665C212.152 110.702 212.277 110.732 212.363 110.753C212.406 110.764 212.44 110.772 212.464 110.778L212.502 110.788Z" fill="#FDEDEF"/>
<path d="M228.163 65.7045C220.593 67.9995 220.47 72.1597 226.38 79.2207L230.803 80.5299C230.958 74.7422 232.235 72.0377 236.729 68.1724L228.163 65.7045Z" fill="white"/>
<path d="M228.092 65.1688C228.18 65.1554 228.269 65.1606 228.353 65.1848L236.919 67.6528C237.114 67.709 237.259 67.8593 237.299 68.0474C237.339 68.2355 237.269 68.4329 237.114 68.5659C234.896 70.4738 233.52 72.0548 232.668 73.8374C231.814 75.6222 231.461 77.6608 231.385 80.5239C231.38 80.6975 231.287 80.8617 231.134 80.9653C230.982 81.0688 230.789 81.0994 230.614 81.0478L226.19 79.7386C226.084 79.7071 225.99 79.6467 225.922 79.5649C224.431 77.7831 223.303 76.164 222.577 74.6951C221.852 73.2289 221.51 71.876 221.643 70.6398C221.919 68.0824 224.159 66.3542 228.005 65.1883L228.092 65.1688ZM228.152 66.2738C224.551 67.3966 222.992 68.8782 222.795 70.7107C222.69 71.684 222.952 72.8387 223.63 74.2101C224.29 75.546 225.328 77.0533 226.738 78.7507L230.255 79.7918C230.373 77.2305 230.749 75.2321 231.614 73.4229C232.457 71.6609 233.744 70.1193 235.617 68.4242L228.152 66.2738Z" fill="#3A3A3B"/>
<path d="M220.824 67.9126C221.226 69.466 220.293 71.0518 218.739 71.4541C217.186 71.8565 215.6 70.9231 215.197 69.3697C214.795 67.8162 215.728 66.2304 217.282 65.8281C218.836 65.4258 220.422 66.3591 220.824 67.9126Z" fill="white"/>
<path d="M219.607 70.5742C220.228 70.4133 220.602 69.779 220.441 69.1576C220.28 68.5362 219.645 68.1629 219.024 68.3238C218.402 68.4848 218.029 69.119 218.19 69.7404C218.351 70.3619 218.985 70.7352 219.607 70.5742Z" fill="#4B454C"/>
</svg>
