<svg width="433" height="110" viewBox="0 0 433 110" fill="none" xmlns="http://www.w3.org/2000/svg">
<path d="M399.564 28.5996C409.171 28.5997 417.181 32.9771 423.39 41.0039H423.391C429.62 48.9043 432.664 58.3234 432.664 69C432.664 80.5048 429.775 90.316 423.54 97.9561L423.541 97.957C417.362 105.544 409.271 109.52 399.605 109.6H399.564C390.078 109.6 381.954 105.535 375.39 97.9785L375.38 97.9678L375.371 97.957C368.785 90.2863 365.664 80.5923 365.664 69.2998C365.664 58.1182 368.796 48.4318 375.323 40.5986L375.332 40.5879L375.342 40.5762C381.886 32.8147 390.021 28.5996 399.564 28.5996ZM397.501 104.521C397.941 104.554 398.384 104.578 398.83 104.59L398.102 104.561C397.901 104.55 397.7 104.536 397.501 104.521ZM396.711 104.449C396.781 104.457 396.852 104.462 396.922 104.469C396.852 104.462 396.781 104.457 396.711 104.449ZM396.005 104.364C396.109 104.378 396.213 104.39 396.317 104.402C396.213 104.39 396.109 104.378 396.005 104.364ZM395.32 104.262C395.423 104.278 395.525 104.293 395.628 104.309C395.525 104.293 395.423 104.278 395.32 104.262ZM394.651 104.144C394.721 104.157 394.791 104.168 394.861 104.181C394.791 104.168 394.721 104.157 394.651 104.144ZM393.944 103.997C394.039 104.018 394.135 104.038 394.23 104.058C394.135 104.038 394.039 104.018 393.944 103.997ZM393.263 103.836C393.383 103.866 393.504 103.894 393.625 103.923C393.504 103.894 393.383 103.866 393.263 103.836ZM392.596 103.658C392.713 103.691 392.831 103.722 392.948 103.753C392.831 103.722 392.713 103.691 392.596 103.658ZM391.932 103.46C392.047 103.496 392.163 103.531 392.279 103.565C392.163 103.531 392.047 103.496 391.932 103.46ZM391.259 103.238C391.384 103.282 391.51 103.324 391.637 103.365C391.51 103.324 391.384 103.282 391.259 103.238ZM390.625 103.01C390.747 103.056 390.869 103.1 390.991 103.144C390.869 103.1 390.747 103.056 390.625 103.01ZM390.026 102.774C390.109 102.808 390.191 102.84 390.273 102.873C390.191 102.84 390.109 102.808 390.026 102.774ZM389.394 102.506C389.463 102.537 389.533 102.568 389.604 102.598C389.533 102.568 389.463 102.537 389.394 102.506ZM388.73 102.202C388.82 102.245 388.911 102.287 389.001 102.329C388.911 102.287 388.82 102.245 388.73 102.202ZM388.08 101.881C388.189 101.937 388.299 101.992 388.408 102.046C388.299 101.992 388.189 101.937 388.08 101.881ZM387.461 101.553C387.57 101.612 387.679 101.672 387.788 101.729C387.679 101.672 387.57 101.612 387.461 101.553ZM386.885 101.228C386.974 101.279 387.064 101.33 387.153 101.381C387.064 101.33 386.974 101.279 386.885 101.228ZM386.256 100.85C386.349 100.907 386.442 100.964 386.535 101.021C386.442 100.964 386.349 100.907 386.256 100.85ZM385.629 100.449C385.73 100.516 385.832 100.582 385.934 100.647C385.832 100.582 385.73 100.516 385.629 100.449ZM385.026 100.04C385.137 100.117 385.247 100.194 385.357 100.269C385.247 100.194 385.137 100.117 385.026 100.04ZM384.439 99.6201C384.549 99.7007 384.658 99.7807 384.769 99.8594C384.658 99.7807 384.549 99.7007 384.439 99.6201ZM383.894 99.207C383.987 99.2791 384.079 99.3513 384.173 99.4219C384.079 99.3513 383.987 99.2791 383.894 99.207ZM383.367 98.79C383.435 98.8451 383.502 98.9008 383.57 98.9551C383.502 98.9008 383.435 98.8451 383.367 98.79ZM382.834 98.3477C382.883 98.3893 382.931 98.4314 382.98 98.4727C382.931 98.4314 382.883 98.3893 382.834 98.3477ZM382.189 97.7842C382.271 97.8572 382.351 97.9311 382.433 98.0029C382.351 97.9311 382.271 97.8572 382.189 97.7842ZM381.526 97.1719C381.645 97.2846 381.763 97.3967 381.883 97.5068C381.763 97.3967 381.645 97.2846 381.526 97.1719ZM397.59 97.0908C398.06 97.1423 398.535 97.1773 399.017 97.1914C398.535 97.1773 398.06 97.1423 397.59 97.0908ZM401.172 97.127C400.996 97.143 400.819 97.1563 400.642 97.167C400.997 97.1456 401.349 97.114 401.697 97.0713L401.172 97.127ZM381.021 96.6807C381.128 96.7868 381.234 96.8931 381.342 96.9971C381.234 96.8931 381.128 96.7868 381.021 96.6807ZM403.746 96.6865C403.44 96.7648 403.13 96.8322 402.817 96.8926C403.13 96.8322 403.44 96.7648 403.746 96.6865ZM380.458 96.1113C380.562 96.2188 380.664 96.3263 380.769 96.4316C380.664 96.3263 380.562 96.2188 380.458 96.1113ZM406.188 95.8457C406.029 95.9152 405.869 95.9827 405.709 96.0469C406.03 95.9186 406.347 95.7795 406.66 95.6299L406.188 95.8457ZM378.642 94.0752C378.813 94.285 378.987 94.4931 379.164 94.6992C379.517 95.1053 379.874 95.4988 380.234 95.8799C379.874 95.4989 379.517 95.1052 379.164 94.6992C378.987 94.4931 378.813 94.285 378.642 94.0752ZM420.28 94.0156C420.398 93.8615 420.517 93.708 420.632 93.5518C420.517 93.708 420.398 93.8615 420.28 94.0156ZM420.875 93.2129C420.941 93.1203 421.008 93.0279 421.073 92.9346C421.008 93.0279 420.941 93.1203 420.875 93.2129ZM377.67 92.8262C377.705 92.874 377.742 92.9211 377.777 92.9688C377.742 92.9211 377.705 92.874 377.67 92.8262ZM421.312 92.5869C421.377 92.491 421.443 92.3955 421.507 92.2988C421.443 92.3955 421.377 92.491 421.312 92.5869ZM377.202 92.1787C377.285 92.2962 377.37 92.4119 377.454 92.5283C377.37 92.4119 377.285 92.2962 377.202 92.1787ZM399.564 46C395.662 46 391.971 47.8094 388.414 52.6318L388.085 53.0957C384.738 57.904 383.064 63.2893 383.064 69.3994C383.064 76.0094 384.866 81.4377 388.317 85.9375C391.827 90.4273 395.531 92.1992 399.564 92.1992C403.481 92.1992 406.978 90.4788 410.212 86.0703C413.521 81.4927 415.265 75.9491 415.265 69.1992C415.265 62.8548 413.526 57.3419 410.086 52.4922L410.075 52.4766L410.063 52.4609C406.766 47.7349 403.295 46.0001 399.564 46ZM421.764 91.9033C421.818 91.8192 421.873 91.736 421.927 91.6514C421.873 91.736 421.818 91.8192 421.764 91.9033ZM376.746 91.5127C376.816 91.6179 376.888 91.7218 376.96 91.8262C376.888 91.7218 376.816 91.6179 376.746 91.5127ZM422.146 91.2949C422.222 91.1709 422.299 91.0471 422.373 90.9219C422.299 91.0471 422.222 91.1709 422.146 91.2949ZM376.313 90.8486C376.4 90.9844 376.488 91.1185 376.576 91.2529C376.488 91.1185 376.4 90.9844 376.313 90.8486ZM422.49 90.7188C422.574 90.5754 422.658 90.432 422.739 90.2871C422.658 90.432 422.574 90.5754 422.49 90.7188ZM375.896 90.1719C375.956 90.2704 376.016 90.368 376.076 90.4658C376.016 90.368 375.956 90.2704 375.896 90.1719ZM422.928 89.9473C422.997 89.8202 423.067 89.6927 423.135 89.5645C423.067 89.6927 422.997 89.8202 422.928 89.9473ZM375.506 89.5039C375.563 89.605 375.622 89.7053 375.681 89.8057C375.622 89.7053 375.563 89.605 375.506 89.5039ZM423.259 89.3271C423.335 89.1813 423.41 89.0351 423.484 88.8877C423.41 89.0351 423.335 89.1813 423.259 89.3271ZM375.099 88.7666C375.159 88.8789 375.221 88.9901 375.282 89.1016C375.221 88.9901 375.159 88.8789 375.099 88.7666ZM423.673 88.5039C423.725 88.397 423.777 88.2903 423.828 88.1826C423.777 88.2903 423.725 88.397 423.673 88.5039ZM374.747 88.0908C374.809 88.2131 374.872 88.3347 374.936 88.4561C374.872 88.3347 374.809 88.2131 374.747 88.0908ZM423.98 87.8525C424.047 87.7072 424.115 87.5618 424.18 87.415C424.115 87.5618 424.047 87.7072 423.98 87.8525ZM374.373 87.3291C374.438 87.4648 374.503 87.5998 374.569 87.7344C374.503 87.5998 374.438 87.4648 374.373 87.3291ZM424.298 87.1416C424.36 86.9986 424.421 86.8552 424.481 86.7109C424.421 86.8552 424.36 86.9986 424.298 87.1416ZM374.053 86.6367C374.111 86.7666 374.171 86.8955 374.23 87.0244C374.171 86.8955 374.111 86.7666 374.053 86.6367ZM424.639 86.3281C424.694 86.1912 424.749 86.0541 424.803 85.916C424.749 86.0541 424.694 86.1912 424.639 86.3281ZM373.721 85.8701C373.775 86.0002 373.831 86.1297 373.887 86.2588C373.831 86.1297 373.775 86.0002 373.721 85.8701ZM424.909 85.6387C424.968 85.4832 425.026 85.3269 425.083 85.1699C425.026 85.3269 424.968 85.4832 424.909 85.6387ZM373.401 85.083C373.458 85.2269 373.515 85.37 373.573 85.5127C373.515 85.37 373.458 85.2269 373.401 85.083ZM425.201 84.8408C425.252 84.6979 425.301 84.5542 425.35 84.4102C425.301 84.5542 425.252 84.6979 425.201 84.8408ZM373.104 84.2939C373.161 84.4524 373.22 84.6104 373.279 84.7676C373.22 84.6104 373.161 84.4525 373.104 84.2939ZM425.464 84.0693C425.511 83.9251 425.558 83.7802 425.604 83.6348C425.558 83.7802 425.511 83.9251 425.464 84.0693ZM372.846 83.5625C372.9 83.7214 372.955 83.8796 373.011 84.0371C372.955 83.8796 372.9 83.7214 372.846 83.5625ZM425.721 83.2559C425.761 83.1218 425.802 82.9876 425.842 82.8525C425.802 82.9876 425.761 83.1218 425.721 83.2559ZM372.604 82.8271C372.642 82.9464 372.681 83.0651 372.72 83.1836C372.681 83.0651 372.642 82.9464 372.604 82.8271ZM425.947 82.4854C425.995 82.3155 426.043 82.1451 426.089 81.9736C426.043 82.1451 425.995 82.3155 425.947 82.4854ZM372.363 82.0342C372.4 82.1615 372.438 82.2885 372.477 82.415C372.438 82.2885 372.4 82.1615 372.363 82.0342ZM426.165 81.6836C426.208 81.5197 426.248 81.3548 426.289 81.1895C426.248 81.3548 426.208 81.5197 426.165 81.6836ZM372.11 81.125C372.154 81.2896 372.197 81.4539 372.243 81.6172C372.197 81.4539 372.154 81.2896 372.11 81.125ZM426.378 80.8242C426.414 80.6705 426.45 80.5163 426.485 80.3613C426.45 80.5163 426.414 80.6705 426.378 80.8242ZM371.92 80.3789C371.954 80.5203 371.989 80.6613 372.025 80.8018C371.989 80.6613 371.954 80.5203 371.92 80.3789ZM371.713 79.4873C371.749 79.651 371.785 79.8141 371.823 79.9766C371.785 79.8141 371.749 79.651 371.713 79.4873ZM426.57 79.9756C426.601 79.8355 426.629 79.6948 426.658 79.5537C426.629 79.6948 426.601 79.8355 426.57 79.9756ZM371.537 78.6494C371.573 78.8285 371.609 79.0069 371.646 79.1846C371.609 79.0069 371.573 78.8285 371.537 78.6494ZM426.748 79.1133C426.773 78.9865 426.795 78.859 426.818 78.7314C426.795 78.859 426.773 78.9865 426.748 79.1133ZM371.384 77.833C371.411 77.9875 371.439 78.1415 371.468 78.2949C371.439 78.1415 371.411 77.9875 371.384 77.833ZM426.916 78.1982C426.94 78.0578 426.963 77.9168 426.986 77.7754C426.963 77.9168 426.94 78.0578 426.916 78.1982ZM371.247 77.0215C371.27 77.169 371.294 77.3163 371.318 77.4629C371.294 77.3163 371.27 77.169 371.247 77.0215ZM427.05 77.3857C427.078 77.203 427.104 77.0193 427.131 76.835C427.104 77.0193 427.078 77.203 427.05 77.3857ZM371.119 76.1572C371.139 76.3002 371.158 76.4429 371.179 76.585C371.158 76.4429 371.139 76.3002 371.119 76.1572ZM427.176 76.5244C427.205 76.3139 427.231 76.1022 427.257 75.8896C427.231 76.1022 427.205 76.3139 427.176 76.5244ZM371.014 75.3408C371.028 75.4619 371.042 75.5827 371.058 75.7031C371.042 75.5827 371.028 75.4619 371.014 75.3408ZM427.288 75.6367C427.316 75.3974 427.343 75.1568 427.368 74.915C427.343 75.1568 427.316 75.3974 427.288 75.6367ZM370.898 74.2666C370.915 74.4387 370.931 74.6103 370.949 74.7812C370.931 74.6103 370.915 74.4387 370.898 74.2666ZM427.388 74.7256C427.413 74.4688 427.437 74.2107 427.459 73.9512C427.437 74.2107 427.413 74.4688 427.388 74.7256ZM370.822 73.3994C370.837 73.584 370.851 73.7679 370.867 73.9512C370.851 73.7679 370.837 73.584 370.822 73.3994ZM427.473 73.7949C427.492 73.5601 427.509 73.324 427.525 73.0869C427.509 73.324 427.492 73.5601 427.473 73.7949ZM378.089 70.8125C378.108 71.3513 378.139 71.8844 378.18 72.4121C378.138 71.8774 378.107 71.3371 378.088 70.791L378.089 70.8125ZM378.562 63.3945C378.341 64.6885 378.194 66.0095 378.12 67.3574C378.194 66.0092 378.341 64.6879 378.562 63.3936V63.3945ZM380.285 57.1484C379.818 58.3526 379.424 59.5838 379.104 60.8418C379.424 59.5835 379.818 58.3519 380.285 57.1475V57.1484ZM381.806 53.8135C381.638 54.1321 381.476 54.4526 381.319 54.7754C381.476 54.4526 381.638 54.1321 381.806 53.8135ZM382.549 52.4746C382.367 52.7839 382.193 53.0959 382.022 53.4092C382.193 53.0959 382.367 52.7839 382.549 52.4746ZM418.601 43.0254C418.551 42.9658 418.502 42.9057 418.452 42.8467C418.502 42.9057 418.551 42.9658 418.601 43.0254ZM395.314 41.543C394.289 41.8148 393.293 42.1893 392.324 42.665C392.97 42.348 393.628 42.0761 394.299 41.8496C394.634 41.7363 394.973 41.6346 395.314 41.5439V41.543ZM417.564 41.8398C417.513 41.7832 417.461 41.726 417.409 41.6699C417.461 41.726 417.513 41.7832 417.564 41.8398ZM417.144 41.3896C417.06 41.302 416.978 41.2141 416.894 41.1279C416.978 41.2141 417.06 41.302 417.144 41.3896ZM399.564 41C398.648 41 397.751 41.0704 396.873 41.2119L397.402 41.1357C398.111 41.0452 398.831 41 399.564 41ZM416.554 40.7861C416.487 40.7198 416.421 40.6533 416.354 40.5879C416.421 40.6533 416.487 40.7198 416.554 40.7861ZM415.995 40.2461C415.941 40.1947 415.887 40.1426 415.832 40.0918C415.887 40.1426 415.941 40.1947 415.995 40.2461ZM415.476 39.7676C415.405 39.7045 415.335 39.6413 415.265 39.5791C415.335 39.6413 415.405 39.7045 415.476 39.7676ZM414.966 39.3213C414.878 39.2465 414.791 39.1719 414.703 39.0986C414.791 39.1719 414.878 39.2465 414.966 39.3213ZM414.423 38.8691C414.319 38.7851 414.216 38.7012 414.111 38.6191C414.216 38.7012 414.319 38.7851 414.423 38.8691ZM413.854 38.4209C413.753 38.3443 413.653 38.2681 413.553 38.1934C413.653 38.2681 413.753 38.3443 413.854 38.4209ZM413.272 37.9883C413.175 37.9182 413.078 37.8487 412.98 37.7803C413.078 37.8487 413.175 37.9182 413.272 37.9883ZM412.694 37.584C412.595 37.5162 412.495 37.4488 412.395 37.3828C412.495 37.4488 412.595 37.5162 412.694 37.584ZM412.104 37.1953C411.995 37.1253 411.885 37.0562 411.774 36.9883C411.885 37.0562 411.995 37.1254 412.104 37.1953ZM411.528 36.8389C411.421 36.7744 411.313 36.711 411.204 36.6484C411.313 36.711 411.421 36.7744 411.528 36.8389ZM410.903 36.4785C410.798 36.4201 410.693 36.3623 410.588 36.3057C410.693 36.3623 410.798 36.4201 410.903 36.4785ZM410.276 36.1416C410.183 36.0934 410.09 36.0459 409.996 35.999C410.09 36.0459 410.183 36.0934 410.276 36.1416ZM409.675 35.8408C409.56 35.7855 409.444 35.732 409.328 35.6787C409.444 35.732 409.56 35.7855 409.675 35.8408ZM409.07 35.5615C408.954 35.5099 408.838 35.4598 408.721 35.4102C408.838 35.4598 408.954 35.5099 409.07 35.5615ZM408.424 35.2852C408.299 35.2341 408.173 35.1854 408.047 35.1367C408.173 35.1854 408.299 35.2342 408.424 35.2852ZM407.813 35.0469C407.684 34.9984 407.553 34.9523 407.423 34.9062C407.553 34.9523 407.684 34.9984 407.813 35.0469ZM407.135 34.8057C407.012 34.7642 406.888 34.7249 406.765 34.6855C406.888 34.7249 407.012 34.7642 407.135 34.8057ZM406.509 34.6045C406.371 34.5625 406.232 34.5228 406.094 34.4834C406.232 34.5228 406.371 34.5625 406.509 34.6045ZM405.838 34.4111C405.684 34.3694 405.529 34.3305 405.374 34.292C405.529 34.3305 405.684 34.3694 405.838 34.4111ZM405.191 34.2461C405.049 34.2121 404.907 34.1807 404.764 34.1494C404.907 34.1807 405.049 34.2121 405.191 34.2461ZM404.481 34.0879C404.348 34.0603 404.213 34.036 404.078 34.0107C404.213 34.036 404.348 34.0603 404.481 34.0879ZM403.819 33.9619C403.676 33.9368 403.533 33.9141 403.389 33.8916C403.533 33.9141 403.676 33.9368 403.819 33.9619ZM403.119 33.8496C402.967 33.8277 402.815 33.8091 402.662 33.79C402.815 33.8091 402.967 33.8277 403.119 33.8496ZM402.431 33.7607C402.274 33.7428 402.117 33.7278 401.96 33.7129C402.117 33.7278 402.274 33.7428 402.431 33.7607ZM400.298 33.6094C400.778 33.6229 401.254 33.6494 401.725 33.6895C401.254 33.6494 400.778 33.6229 400.298 33.6094ZM419.664 94.7998C419.83 94.5962 419.993 94.3902 420.154 94.1826C419.993 94.3902 419.83 94.5963 419.664 94.7998ZM378.215 72.8525C378.222 72.9308 378.23 73.0089 378.237 73.0869C378.23 73.0089 378.222 72.9308 378.215 72.8525ZM427.595 71.916C427.589 72.0404 427.58 72.1643 427.573 72.2881C427.58 72.1643 427.589 72.0404 427.595 71.916ZM413.425 48.5859C413.33 48.4622 413.235 48.3405 413.14 48.2197C413.235 48.3405 413.33 48.4622 413.425 48.5859Z" fill="#f46482"/>
<path d="M331.382 28C338.41 28 344.872 30.3758 350.659 34.8643L351.218 35.3047L351.297 35.3691L351.374 35.4365C353.035 36.8897 353.882 38.8821 353.882 41C353.882 43.5662 352.795 45.7345 351.246 47.4023L351.183 47.4697L351.117 47.5352C349.618 49.0344 347.518 50.2997 344.882 50.2998C342.999 50.2998 341.24 49.6196 339.854 48.334C337.689 46.4534 334.918 45.3994 331.182 45.3994C323.565 45.3994 317.604 47.8036 312.896 52.4561C308.02 57.276 305.781 62.5625 305.781 68.5C305.781 71.925 306.14 75.0768 306.829 77.9727C307.56 80.7046 308.672 83.2654 310.172 85.6699C311.5 87.6451 313.386 89.3073 315.995 90.6162C318.586 91.8833 321.769 92.5996 325.682 92.5996C330.392 92.5996 333.431 91.0112 335.56 88.1289L335.589 88.0898C337.316 85.7987 338.56 82.9437 339.199 79.3994H324.582C322.357 79.3994 320.027 78.522 318.48 76.3457C317.157 74.4834 316.882 72.3067 316.882 70.5996C316.882 68.8115 317.307 66.9152 318.485 65.2324L318.486 65.2334C319.876 63.1765 322.073 62 324.582 62H349.082C350.213 62 351.577 62.2089 352.888 62.958C354.271 63.7483 355.239 64.9382 355.797 66.2764H355.795C356.549 68.032 356.682 70.1375 356.682 71.8994C356.682 82.5324 354.327 91.6495 349.149 98.8047L349.15 98.8057C343.857 106.216 336.359 110 327.182 110C320.864 110 315.048 108.896 309.838 106.563C304.707 104.266 300.448 101.046 297.219 96.8486L297.182 96.7998C294.239 92.8763 292.016 88.5385 290.516 83.8125L290.513 83.8018L290.509 83.791C289.012 79.0008 288.281 73.9274 288.281 68.5996C288.281 60.8989 290.396 53.8022 294.613 47.4375C298.748 41.1976 304.134 36.3714 310.725 33.0381C317.216 29.6883 324.123 28 331.382 28ZM329.275 104.92C328.592 104.973 327.894 105 327.182 105C327.419 105 327.655 104.997 327.89 104.991C328.592 104.973 329.281 104.929 329.955 104.857C329.73 104.881 329.504 104.902 329.275 104.92ZM325.092 104.954C325.416 104.968 325.742 104.979 326.07 104.986C325.742 104.979 325.416 104.968 325.092 104.954ZM324.075 104.897C324.31 104.913 324.545 104.924 324.782 104.937C324.545 104.924 324.31 104.913 324.075 104.897ZM323.078 104.818C323.304 104.839 323.531 104.856 323.76 104.873C323.531 104.856 323.304 104.839 323.078 104.818ZM322.125 104.721C322.307 104.741 322.491 104.76 322.675 104.778C322.491 104.76 322.307 104.741 322.125 104.721ZM321.146 104.597C321.324 104.621 321.503 104.644 321.683 104.666C321.503 104.644 321.324 104.621 321.146 104.597ZM320.216 104.456C320.372 104.482 320.53 104.505 320.688 104.529C320.53 104.505 320.372 104.482 320.216 104.456ZM334.439 103.925C334.035 104.055 333.624 104.174 333.207 104.28C333.624 104.174 334.035 104.055 334.439 103.925ZM319.245 104.284C319.418 104.317 319.592 104.348 319.767 104.379C319.592 104.348 319.418 104.317 319.245 104.284ZM318.346 104.101C318.507 104.136 318.669 104.169 318.831 104.202C318.669 104.169 318.507 104.136 318.346 104.101ZM317.435 103.89C317.589 103.927 317.744 103.965 317.899 104.001C317.744 103.965 317.589 103.927 317.435 103.89ZM316.556 103.662C316.702 103.702 316.848 103.742 316.995 103.78C316.848 103.742 316.702 103.702 316.556 103.662ZM335.635 103.498C335.561 103.527 335.487 103.553 335.413 103.581C335.684 103.478 335.953 103.372 336.219 103.258L335.635 103.498ZM315.695 103.415C315.827 103.455 315.958 103.495 316.09 103.533C315.958 103.495 315.827 103.455 315.695 103.415ZM314.797 103.13C314.937 103.177 315.077 103.224 315.219 103.269C315.077 103.224 314.937 103.177 314.797 103.13ZM313.897 102.815C314.056 102.874 314.216 102.932 314.376 102.988C314.216 102.932 314.056 102.874 313.897 102.815ZM313.095 102.509C313.239 102.566 313.383 102.625 313.529 102.681C313.383 102.625 313.239 102.566 313.095 102.509ZM338.991 101.792H338.992H338.991ZM341.037 100.299C340.905 100.408 340.772 100.515 340.638 100.62C340.938 100.383 341.235 100.137 341.525 99.8809L341.037 100.299ZM343.82 97.5254C343.245 98.2073 342.644 98.8421 342.019 99.4307C342.644 98.8421 343.245 98.2072 343.82 97.5254ZM326.472 97.585C326.211 97.5933 325.948 97.5996 325.682 97.5996C325.948 97.5996 326.211 97.5933 326.472 97.585ZM345.84 94.8008C345.595 95.1739 345.342 95.5409 345.081 95.9004C344.915 96.1322 344.746 96.3581 344.575 96.5811C344.746 96.3577 344.916 96.1316 345.082 95.8994C345.343 95.5401 345.595 95.1736 345.84 94.8008ZM347.598 91.75C347.128 92.6852 346.617 93.5842 346.066 94.4482C346.617 93.5842 347.128 92.6852 347.598 91.75ZM310.341 92.9863C310.689 93.2477 311.048 93.4995 311.419 93.7432C311.048 93.4995 310.689 93.2477 310.341 92.9863ZM338.469 92.4521C338.81 92.0781 339.138 91.6844 339.452 91.2695L339.277 91.499C339.017 91.8308 338.747 92.1474 338.469 92.4521ZM307.946 90.8594C308.237 91.1649 308.539 91.4612 308.853 91.749C308.539 91.4612 308.237 91.1649 307.946 90.8594ZM349.053 88.3926C348.666 89.4375 348.235 90.4444 347.763 91.4141C348.235 90.4444 348.666 89.4375 349.053 88.3926ZM304.153 85.0908C304.697 86.222 305.306 87.3255 305.981 88.4004C306.331 88.9252 306.707 89.4301 307.108 89.915L306.716 89.4229C306.46 89.0906 306.215 88.7494 305.981 88.3994C305.306 87.3244 304.697 86.2212 304.153 85.0898V85.0908ZM351.037 80.6465C350.619 83.3013 349.995 85.7764 349.169 88.0732C349.995 85.7762 350.619 83.3007 351.037 80.6455V80.6465ZM301.981 79.2002C302.415 80.8333 302.965 82.4161 303.632 83.9492C302.965 82.4158 302.415 80.8325 301.981 79.1992C301.954 79.0866 301.928 78.9735 301.902 78.8604C301.929 78.9738 301.954 79.0873 301.981 79.2002ZM294.824 80.7275C294.855 80.8409 294.887 80.9535 294.919 81.0664C294.887 80.9535 294.855 80.8409 294.824 80.7275ZM344.238 79.583C344.19 79.8864 344.14 80.187 344.084 80.4844C344.14 80.187 344.19 79.8864 344.238 79.583ZM294.616 79.9248C294.657 80.0891 294.7 80.2526 294.743 80.416C294.7 80.2526 294.657 80.0891 294.616 79.9248ZM351.365 78.1416C351.305 78.7094 351.236 79.2696 351.159 79.8223L351.27 78.9873C351.338 78.4268 351.398 77.8588 351.449 77.2832L351.365 78.1416ZM294.438 79.1826C294.467 79.306 294.497 79.4288 294.526 79.5518C294.497 79.4288 294.467 79.306 294.438 79.1826ZM294.255 78.3467C294.279 78.4609 294.304 78.5746 294.329 78.6885C294.304 78.5746 294.279 78.4609 294.255 78.3467ZM294.087 77.4961C294.115 77.6442 294.143 77.792 294.173 77.9395C294.143 77.792 294.115 77.6442 294.087 77.4961ZM301.394 76.2803C301.454 76.6471 301.519 77.0114 301.588 77.373C301.519 77.0114 301.454 76.6471 301.394 76.2803ZM293.95 76.7334C293.971 76.8564 293.993 76.9791 294.015 77.1016C293.993 76.9791 293.971 76.8564 293.95 76.7334ZM293.814 75.8906C293.836 76.0312 293.857 76.1715 293.88 76.3115C293.857 76.1715 293.836 76.0312 293.814 75.8906ZM293.694 75.0342C293.713 75.177 293.732 75.3197 293.752 75.4619C293.732 75.3197 293.713 75.177 293.694 75.0342ZM351.674 71.2725C351.679 71.4738 351.682 71.6834 351.682 71.9004C351.682 73.1101 351.648 74.291 351.583 75.4434C351.648 74.2907 351.682 73.1094 351.682 71.8994C351.682 71.6826 351.679 71.4736 351.674 71.2725ZM293.588 74.1621C293.606 74.3226 293.624 74.4828 293.644 74.6426C293.624 74.4828 293.606 74.3226 293.588 74.1621ZM324.121 74.3682C324.128 74.3691 324.134 74.3702 324.141 74.3711C324.134 74.3702 324.128 74.3691 324.121 74.3682ZM323.855 74.3193C323.857 74.3198 323.859 74.3199 323.861 74.3203C323.859 74.3199 323.857 74.3198 323.855 74.3193ZM301.047 73.7041C301.065 73.8759 301.085 74.0471 301.104 74.2178C301.085 74.0471 301.065 73.8759 301.047 73.7041ZM293.504 73.3535C293.518 73.5042 293.532 73.6546 293.548 73.8047C293.532 73.6546 293.518 73.5042 293.504 73.3535ZM322.595 73.501C322.598 73.5049 322.601 73.5088 322.604 73.5127C322.601 73.5088 322.598 73.5049 322.595 73.501ZM293.412 72.2627C293.427 72.4729 293.444 72.6825 293.462 72.8916C293.444 72.6825 293.427 72.4729 293.412 72.2627ZM322.086 72.3955C322.097 72.4381 322.109 72.4802 322.121 72.5215C322.109 72.4802 322.097 72.4381 322.086 72.3955ZM322.011 72.0645C322.019 72.1063 322.026 72.1478 322.035 72.1885C322.026 72.1478 322.019 72.1063 322.011 72.0645ZM293.36 71.4512C293.373 71.6764 293.386 71.9011 293.401 72.125C293.386 71.9011 293.373 71.6764 293.36 71.4512ZM321.942 71.6318C321.951 71.7025 321.959 71.7719 321.97 71.8398C321.959 71.7719 321.951 71.7025 321.942 71.6318ZM321.904 71.2236C321.91 71.3076 321.914 71.3901 321.922 71.4707C321.914 71.3901 321.91 71.3076 321.904 71.2236ZM293.321 70.6133C293.329 70.8173 293.337 71.0207 293.348 71.2236C293.337 71.0207 293.329 70.8173 293.321 70.6133ZM300.799 69.877C300.808 70.2451 300.823 70.611 300.84 70.9746C300.823 70.611 300.808 70.2451 300.799 69.877ZM321.892 70.2627C321.89 70.2931 321.89 70.3237 321.889 70.3545C321.89 70.3237 321.89 70.2931 321.892 70.2627ZM321.921 69.9248C321.914 69.9862 321.909 70.0484 321.903 70.1113C321.909 70.0484 321.914 69.9862 321.921 69.9248ZM321.972 69.5957C321.961 69.6536 321.951 69.7122 321.942 69.7715C321.951 69.7122 321.961 69.6536 321.972 69.5957ZM351.4 68.8438C351.463 69.0895 351.515 69.3666 351.557 69.6748L351.486 69.2354C351.46 69.0967 351.432 68.9658 351.4 68.8428V68.8438ZM322.039 69.2949C322.025 69.3502 322.011 69.4062 321.999 69.4629C322.011 69.4062 322.025 69.3502 322.039 69.2949ZM322.122 69.0176C322.105 69.069 322.088 69.121 322.072 69.1738C322.088 69.121 322.105 69.069 322.122 69.0176ZM322.236 68.7236C322.216 68.7713 322.195 68.8192 322.176 68.8682C322.195 68.8191 322.216 68.7714 322.236 68.7236ZM322.37 68.4473C322.34 68.5023 322.31 68.5573 322.283 68.6143C322.31 68.5573 322.34 68.5023 322.37 68.4473ZM350.958 67.7969C351.045 67.9176 351.12 68.052 351.182 68.2002C351.223 68.2917 351.262 68.391 351.299 68.498L351.242 68.3428C351.223 68.293 351.202 68.2451 351.182 68.1992C351.12 68.0512 351.045 67.9175 350.958 67.7969ZM322.759 67.8496C322.751 67.8594 322.744 67.8699 322.736 67.8799C322.744 67.8699 322.751 67.8594 322.759 67.8496ZM322.856 67.7363C322.84 67.7544 322.825 67.7732 322.809 67.792C322.825 67.7732 322.84 67.7544 322.856 67.7363ZM350.92 67.7471C350.903 67.7255 350.887 67.7042 350.869 67.6836C350.887 67.7042 350.903 67.7256 350.92 67.7471ZM322.953 67.6348C322.94 67.6477 322.928 67.6615 322.915 67.6748C322.928 67.6615 322.94 67.6477 322.953 67.6348ZM350.834 67.6445C350.814 67.6224 350.794 67.6001 350.773 67.5791C350.794 67.6001 350.814 67.6224 350.834 67.6445ZM350.742 67.5498C350.715 67.5241 350.687 67.4995 350.658 67.4756C350.687 67.4995 350.715 67.5241 350.742 67.5498ZM323.168 67.4473C323.154 67.4581 323.14 67.4693 323.126 67.4805C323.14 67.4693 323.154 67.4581 323.168 67.4473ZM350.637 67.458C350.607 67.4345 350.578 67.4114 350.547 67.3896C350.578 67.4114 350.607 67.4345 350.637 67.458ZM323.287 67.3613C323.263 67.377 323.24 67.3934 323.217 67.4102C323.24 67.3935 323.263 67.377 323.287 67.3613ZM350.517 67.3691C350.486 67.3484 350.454 67.3285 350.422 67.3096C350.454 67.3285 350.486 67.3484 350.517 67.3691ZM323.422 67.2803C323.391 67.2974 323.361 67.3153 323.331 67.334C323.361 67.3153 323.391 67.2974 323.422 67.2803ZM350.39 67.291C350.357 67.2728 350.323 67.2558 350.289 67.2393C350.323 67.2558 350.357 67.2728 350.39 67.291ZM323.537 67.2207C323.504 67.2365 323.472 67.253 323.439 67.2705C323.472 67.253 323.504 67.2365 323.537 67.2207ZM350.256 67.2236C350.221 67.2075 350.185 67.1921 350.148 67.1777C350.185 67.1921 350.221 67.2075 350.256 67.2236ZM323.642 67.1748C323.624 67.1823 323.606 67.1903 323.588 67.1982C323.606 67.1903 323.624 67.1823 323.642 67.1748ZM350.113 67.1641C350.076 67.1503 350.039 67.138 350 67.126C350.039 67.138 350.076 67.1503 350.113 67.1641ZM300.886 66.1035C300.856 66.4492 300.83 66.7968 300.813 67.1465C300.83 66.7968 300.856 66.4492 300.886 66.1035ZM323.778 67.123C323.758 67.13 323.737 67.137 323.717 67.1445C323.737 67.137 323.758 67.13 323.778 67.123ZM349.081 67C349.409 67 349.703 67.0384 349.962 67.1143C349.756 67.0538 349.528 67.0162 349.277 67.0039L349.082 67H349.081ZM323.904 67.085C323.885 67.0902 323.866 67.0958 323.847 67.1016C323.866 67.0959 323.885 67.0902 323.904 67.085ZM324.068 67.0479C324.178 67.0265 324.292 67.0108 324.41 67.0039C324.292 67.0108 324.178 67.0265 324.068 67.0479ZM293.475 64.875V64.876V64.875ZM293.931 61.8682V61.8691V61.8682ZM294.656 58.9492V58.9502V58.9492ZM295.649 56.1182V56.1191V56.1182ZM296.912 53.375V53.376V53.375ZM300.188 48.208C299.703 48.8518 299.234 49.5157 298.781 50.1992C298.667 50.372 298.553 50.5457 298.442 50.7197V50.7207C298.553 50.5465 298.667 50.3732 298.781 50.2002C299.234 49.5165 299.703 48.852 300.188 48.208ZM308.34 49.9727C308.326 49.9872 308.313 50.0021 308.3 50.0166C308.319 49.9962 308.337 49.9755 308.356 49.9551L308.34 49.9727ZM309.381 48.8994H309.382C309.664 48.6202 309.952 48.3495 310.242 48.084C309.952 48.3496 309.664 48.62 309.381 48.8994ZM302.121 45.8477C301.485 46.5641 300.873 47.3097 300.284 48.084C300.873 47.3097 301.485 46.5641 302.121 45.8477ZM311.392 47.084C311.213 47.2319 311.035 47.3823 310.858 47.5352C311.035 47.3823 311.213 47.2319 311.392 47.084ZM312.651 46.0986C312.439 46.2554 312.229 46.4159 312.02 46.5791C312.229 46.4159 312.439 46.2554 312.651 46.0986ZM302.48 45.4482C302.404 45.5319 302.329 45.6167 302.253 45.7012C302.329 45.6167 302.404 45.5319 302.48 45.4482ZM345.397 45.2539C345.305 45.2701 345.212 45.2816 345.118 45.2891C345.212 45.2817 345.305 45.2701 345.397 45.2539ZM344.408 45.2568C344.478 45.2698 344.549 45.2791 344.621 45.2861C344.549 45.2791 344.478 45.2698 344.408 45.2568ZM302.914 44.9834C302.827 45.0755 302.741 45.1686 302.654 45.2617C302.741 45.1686 302.827 45.0755 302.914 44.9834ZM345.423 45.249C345.467 45.241 345.511 45.2327 345.555 45.2227C345.511 45.2327 345.467 45.241 345.423 45.249ZM344.199 45.207C344.251 45.2218 344.304 45.2339 344.357 45.2451C344.304 45.234 344.251 45.2217 344.199 45.207ZM345.62 45.2061C345.656 45.197 345.692 45.1881 345.728 45.1777C345.692 45.1881 345.656 45.197 345.62 45.2061ZM343.996 45.1387C344.037 45.1545 344.078 45.1682 344.119 45.1816C344.078 45.1682 344.037 45.1544 343.996 45.1387ZM345.798 45.1553C345.824 45.147 345.851 45.1389 345.877 45.1299C345.851 45.1389 345.824 45.147 345.798 45.1553ZM345.96 45.0996C345.994 45.0871 346.027 45.0743 346.061 45.0605C346.027 45.0743 345.994 45.0871 345.96 45.0996ZM343.8 45.0508C343.833 45.0677 343.867 45.0834 343.901 45.0986C343.867 45.0834 343.833 45.0677 343.8 45.0508ZM346.123 45.0332C346.161 45.0169 346.199 45.0012 346.236 44.9834C346.199 45.0012 346.161 45.0169 346.123 45.0332ZM343.625 44.9521C343.65 44.9678 343.676 44.9825 343.701 44.9971C343.676 44.9825 343.65 44.9678 343.625 44.9521ZM346.272 44.9658C346.314 44.9455 346.356 44.9245 346.397 44.9023C346.356 44.9245 346.314 44.9455 346.272 44.9658ZM343.43 44.8145C343.46 44.8379 343.489 44.862 343.521 44.8838C343.489 44.862 343.46 44.8379 343.43 44.8145ZM346.446 44.875C346.485 44.8534 346.524 44.8309 346.563 44.8076C346.524 44.8309 346.485 44.8534 346.446 44.875ZM303.313 44.5684C303.221 44.6628 303.129 44.7579 303.038 44.8535C303.129 44.7579 303.221 44.6628 303.313 44.5684ZM346.607 44.7812C346.644 44.7586 346.681 44.7351 346.718 44.7109C346.681 44.7351 346.644 44.7586 346.607 44.7812ZM343.182 44.5996C343.235 44.6529 343.29 44.7028 343.346 44.75C343.29 44.7028 343.235 44.6529 343.182 44.5996ZM347.14 44.3994C347.018 44.4992 346.896 44.5907 346.773 44.6738C346.896 44.5907 347.018 44.4992 347.14 44.3994ZM303.7 44.1777C303.62 44.2574 303.54 44.3375 303.461 44.418C303.54 44.3375 303.62 44.2574 303.7 44.1777ZM316.207 43.8643C315.963 43.9933 315.721 44.1255 315.48 44.2617C315.721 44.1255 315.963 43.9933 316.207 43.8643ZM348.146 43.292C347.985 43.532 347.796 43.7682 347.581 44C347.519 44.0622 347.455 44.1209 347.393 44.1787C347.401 44.1711 347.411 44.165 347.419 44.1572L347.582 44C347.797 43.7683 347.985 43.5319 348.146 43.292ZM304.105 43.7803C304.033 43.8502 303.961 43.9206 303.889 43.9912C303.961 43.9206 304.033 43.8502 304.105 43.7803ZM304.535 43.374C304.474 43.431 304.413 43.4885 304.353 43.5459C304.413 43.4885 304.474 43.431 304.535 43.374ZM317.365 43.2861C317.239 43.3453 317.114 43.4048 316.989 43.4658C317.114 43.4048 317.239 43.3453 317.365 43.2861ZM305.011 42.9385C304.914 43.0258 304.817 43.1137 304.721 43.2021C304.817 43.1137 304.914 43.0258 305.011 42.9385ZM318.729 42.6875C318.578 42.7488 318.428 42.8112 318.279 42.875C318.428 42.8112 318.578 42.7488 318.729 42.6875ZM305.547 42.4658C305.42 42.5757 305.294 42.6871 305.168 42.7988C305.294 42.6871 305.42 42.5757 305.547 42.4658ZM348.638 42.3457C348.729 42.0996 348.795 41.8498 348.835 41.5957C348.795 41.8497 348.729 42.0996 348.638 42.3457ZM306.339 41.8027C306.257 41.8695 306.175 41.9364 306.094 42.0039C306.175 41.9364 306.257 41.8695 306.339 41.8027ZM306.787 41.4424C306.697 41.5137 306.606 41.5851 306.517 41.6572C306.606 41.5851 306.697 41.5137 306.787 41.4424ZM348.881 41C348.881 41.1949 348.867 41.3876 348.838 41.5781C348.857 41.4527 348.87 41.3265 348.877 41.1992L348.882 41C348.882 40.9135 348.877 40.8289 348.869 40.7461C348.877 40.8289 348.881 40.9135 348.881 41ZM322.79 41.3701C322.686 41.3956 322.583 41.4227 322.48 41.4492C322.583 41.4227 322.686 41.3956 322.79 41.3701ZM307.373 40.9902C307.241 41.0901 307.109 41.1904 306.979 41.292C307.109 41.1904 307.241 41.0901 307.373 40.9902ZM307.766 40.6982C307.645 40.7867 307.525 40.8749 307.405 40.9648C307.525 40.8749 307.645 40.7867 307.766 40.6982ZM325.734 40.791C325.663 40.8017 325.591 40.8131 325.52 40.8242C325.591 40.8131 325.663 40.8017 325.734 40.791ZM348.861 40.6787C348.854 40.6154 348.845 40.5533 348.833 40.4922C348.845 40.5533 348.854 40.6154 348.861 40.6787ZM308.188 40.3916C308.097 40.457 308.005 40.5227 307.914 40.5889C308.005 40.5227 308.097 40.457 308.188 40.3916ZM348.816 40.416C348.804 40.3627 348.791 40.3104 348.775 40.2588C348.791 40.3103 348.804 40.3627 348.816 40.416ZM308.624 40.0859C308.554 40.1342 308.485 40.1827 308.415 40.2314C308.485 40.1827 308.554 40.1342 308.624 40.0859ZM348.754 40.1934C348.737 40.143 348.719 40.0936 348.698 40.0449C348.719 40.0936 348.737 40.143 348.754 40.1934ZM348.665 39.9678C348.641 39.9161 348.614 39.8661 348.586 39.8164C348.614 39.8661 348.641 39.9161 348.665 39.9678ZM348.558 39.7646C348.525 39.7101 348.489 39.6575 348.451 39.6055C348.489 39.6575 348.525 39.7101 348.558 39.7646ZM343.127 35.9229C344.821 36.8123 346.472 37.9048 348.081 39.2002C348.212 39.3149 348.327 39.4376 348.426 39.5684C348.377 39.5041 348.326 39.4412 348.27 39.3809L348.082 39.1992C346.473 37.9037 344.821 36.8122 343.127 35.9229ZM309.686 39.3809C309.59 39.4422 309.494 39.5032 309.398 39.5654C309.494 39.5032 309.59 39.4422 309.686 39.3809ZM312.441 37.7783C311.556 38.2441 310.695 38.7408 309.86 39.2686C310.695 38.741 311.555 38.2448 312.44 37.7793L312.441 37.7783ZM313.526 37.2227V37.2236V37.2227ZM316.836 35.7461C316.092 36.0391 315.354 36.3554 314.621 36.6953C315.354 36.3554 316.092 36.0391 316.836 35.7461ZM341.639 35.1982C341.956 35.3408 342.272 35.491 342.587 35.6475C342.272 35.491 341.956 35.3408 341.639 35.1982ZM319.081 34.9375C318.516 35.1221 317.953 35.3202 317.394 35.5312L317.954 35.3252C318.329 35.1904 318.704 35.0606 319.081 34.9375ZM341.564 35.165C341.422 35.1015 341.278 35.0402 341.135 34.9795C341.278 35.0403 341.422 35.1015 341.564 35.165ZM341.035 34.9375C340.909 34.8848 340.783 34.8328 340.657 34.7822C340.783 34.8328 340.909 34.8848 341.035 34.9375ZM340.471 34.709C340.371 34.6699 340.271 34.6315 340.171 34.5938C340.271 34.6315 340.371 34.6699 340.471 34.709ZM322.508 33.9883C321.739 34.164 320.975 34.3633 320.216 34.5859C320.975 34.3633 321.739 34.164 322.508 33.9883ZM339.971 34.5186C339.839 34.4703 339.708 34.4229 339.576 34.377C339.708 34.4229 339.839 34.4703 339.971 34.5186ZM339.5 34.3506C339.358 34.3017 339.216 34.2543 339.073 34.208C339.216 34.2543 339.358 34.3016 339.5 34.3506ZM338.955 34.1699C338.821 34.127 338.686 34.0855 338.551 34.0449C338.686 34.0855 338.821 34.127 338.955 34.1699ZM338.43 34.0088C338.291 33.968 338.153 33.929 338.014 33.8906C338.153 33.929 338.291 33.968 338.43 34.0088ZM337.907 33.8613C337.779 33.8264 337.65 33.7925 337.521 33.7598C337.65 33.7926 337.779 33.8264 337.907 33.8613ZM325.336 33.4512C324.614 33.5609 323.897 33.6912 323.184 33.8408C323.897 33.6912 324.614 33.5608 325.336 33.4512ZM337.354 33.7178C337.225 33.6859 337.096 33.6557 336.966 33.626C337.096 33.6557 337.225 33.6859 337.354 33.7178ZM336.847 33.5986C336.703 33.5664 336.559 33.5355 336.414 33.5059C336.559 33.5355 336.703 33.5664 336.847 33.5986ZM336.314 33.4854C336.151 33.4525 335.987 33.4211 335.822 33.3916C335.987 33.4211 336.151 33.4525 336.314 33.4854ZM335.792 33.3857C335.654 33.3611 335.515 33.3387 335.376 33.3164C335.515 33.3387 335.654 33.3611 335.792 33.3857ZM335.211 33.29C335.128 33.2773 335.044 33.2658 334.961 33.2539C335.044 33.2658 335.128 33.2773 335.211 33.29ZM328.375 33.1094C327.798 33.1519 327.224 33.2073 326.653 33.2744C327.224 33.2073 327.798 33.1519 328.375 33.1094ZM334.649 33.21C334.553 33.1974 334.455 33.1863 334.358 33.1748C334.455 33.1863 334.553 33.1973 334.649 33.21ZM334.145 33.1494C333.985 33.132 333.826 33.1159 333.666 33.1016C333.826 33.1159 333.985 33.132 334.145 33.1494ZM331.381 33C332.129 33 332.87 33.0315 333.604 33.0957C333.055 33.0476 332.501 33.0179 331.943 33.0059L331.382 33H331.381ZM331.377 33C330.772 33.0001 330.171 33.0128 329.572 33.0391C330.171 33.0128 330.772 33.0001 331.377 33ZM327.838 97.502C328.001 97.4869 328.163 97.4698 328.323 97.4512C328.163 97.4698 328.001 97.4869 327.838 97.502ZM338.09 92.8545C338.175 92.7676 338.259 92.6801 338.343 92.5908C338.259 92.6801 338.175 92.7676 338.09 92.8545ZM295.041 81.5049C295.097 81.6961 295.156 81.8861 295.214 82.0762C295.156 81.8861 295.097 81.6961 295.041 81.5049ZM301.6 77.4355C301.637 77.6271 301.675 77.8178 301.715 78.0078C301.675 77.8178 301.637 77.6271 301.6 77.4355ZM307.402 51.0215C307.493 50.915 307.587 50.81 307.68 50.7041C307.587 50.81 307.493 50.915 307.402 51.0215ZM348.473 42.7275C348.497 42.6787 348.52 42.6302 348.542 42.5811C348.52 42.6302 348.497 42.6787 348.473 42.7275ZM305.928 42.1416C305.8 42.2488 305.673 42.3568 305.547 42.4658C305.673 42.3568 305.8 42.2488 305.928 42.1416ZM348.573 42.5098C348.591 42.4676 348.608 42.4252 348.624 42.3828C348.608 42.4252 348.591 42.4676 348.573 42.5098ZM343.127 35.9229C342.973 35.8422 342.819 35.7629 342.665 35.6855C342.819 35.7629 342.973 35.8422 343.127 35.9229Z" fill="#f46482"/>
<path d="M267.804 29.0996C269.592 29.0997 271.488 29.5252 273.171 30.7031L273.169 30.7041C275.226 32.0938 276.403 34.291 276.403 36.7998V101.3C276.403 103.851 275.201 106.02 273.244 107.443L273.118 107.534L272.987 107.618C271.337 108.668 269.508 109.1 267.703 109.1C265.982 109.1 263.777 108.799 261.911 107.387C259.782 105.776 259.003 103.436 259.003 101.3V85.3594L226.604 56.8574V101.3C226.603 103.851 225.401 106.02 223.444 107.443L223.318 107.534L223.188 107.618C221.537 108.669 219.708 109.1 217.903 109.1C216.182 109.1 213.978 108.799 212.111 107.387C209.982 105.776 209.203 103.436 209.203 101.3V36.7998C209.203 34.9851 209.732 32.7478 211.608 31.0586C213.385 29.4596 215.555 29.0996 217.203 29.0996C220.208 29.0996 222.767 30.418 224.806 32.2461H224.807L259.003 62.3389V36.7998C259.003 34.5751 259.881 32.2445 262.058 30.6982C263.92 29.3753 266.097 29.0996 267.804 29.0996ZM218.272 104.089C218.152 104.096 218.028 104.1 217.903 104.1C218.028 104.1 218.152 104.096 218.272 104.089ZM267.275 104.089C267.414 104.095 267.556 104.1 267.703 104.1C267.556 104.1 267.414 104.095 267.275 104.089ZM267.703 104.1C267.817 104.1 267.929 104.095 268.039 104.089C267.929 104.095 267.817 104.1 267.703 104.1ZM268.174 104.079C268.25 104.073 268.324 104.066 268.398 104.058C268.324 104.066 268.25 104.073 268.174 104.079ZM266.852 104.057C266.941 104.066 267.032 104.072 267.126 104.078C267.032 104.072 266.941 104.066 266.852 104.057ZM268.488 104.046C268.568 104.035 268.647 104.022 268.726 104.008C268.647 104.022 268.568 104.035 268.488 104.046ZM266.484 104.006C266.565 104.019 266.647 104.031 266.731 104.041C266.647 104.031 266.565 104.019 266.484 104.006ZM268.829 103.987C268.899 103.973 268.969 103.957 269.037 103.939C268.969 103.957 268.899 103.973 268.829 103.987ZM266.138 103.936C266.191 103.948 266.246 103.958 266.301 103.97C266.246 103.958 266.191 103.948 266.138 103.936ZM269.151 103.909C269.218 103.891 269.283 103.87 269.348 103.849C269.283 103.87 269.218 103.891 269.151 103.909ZM265.798 103.84C265.854 103.858 265.912 103.874 265.971 103.891C265.912 103.874 265.854 103.858 265.798 103.84ZM269.458 103.812C269.519 103.79 269.579 103.765 269.639 103.74C269.579 103.765 269.519 103.79 269.458 103.812ZM265.526 103.739C265.544 103.747 265.562 103.754 265.58 103.762C265.562 103.754 265.544 103.747 265.526 103.739ZM270.303 103.399C270.125 103.512 269.939 103.611 269.746 103.696C269.84 103.655 269.932 103.611 270.022 103.563L270.304 103.399C270.31 103.395 270.314 103.389 270.32 103.385C270.314 103.389 270.309 103.395 270.303 103.399ZM265.267 103.615C265.278 103.621 265.289 103.628 265.301 103.634C265.289 103.628 265.278 103.621 265.267 103.615ZM264.821 103.313C264.845 103.334 264.869 103.353 264.894 103.372C264.869 103.353 264.845 103.334 264.821 103.313ZM264.722 103.224C264.742 103.243 264.763 103.262 264.784 103.28C264.763 103.262 264.742 103.243 264.722 103.224ZM270.67 103.088C270.624 103.133 270.576 103.177 270.525 103.221C270.576 103.177 270.624 103.133 270.67 103.088ZM220.803 103.15C220.821 103.133 220.84 103.116 220.858 103.099C220.84 103.116 220.821 103.133 220.803 103.15ZM264.606 103.104C264.631 103.13 264.655 103.157 264.681 103.183C264.655 103.157 264.631 103.13 264.606 103.104ZM270.717 103.04C270.736 103.02 270.755 102.999 270.773 102.979C270.755 102.999 270.736 103.02 270.717 103.04ZM220.949 103.006C220.954 103.001 220.958 102.995 220.963 102.99C220.958 102.995 220.954 103.001 220.949 103.006ZM264.451 102.909C264.466 102.93 264.481 102.949 264.496 102.969C264.481 102.949 264.466 102.93 264.451 102.909ZM270.898 102.829C270.92 102.801 270.942 102.772 270.963 102.743C270.942 102.772 270.92 102.801 270.898 102.829ZM221.033 102.909C221.043 102.897 221.053 102.886 221.062 102.874C221.053 102.886 221.043 102.897 221.033 102.909ZM264.381 102.802C264.391 102.818 264.402 102.834 264.412 102.851C264.402 102.834 264.391 102.818 264.381 102.802ZM221.111 102.812C221.126 102.793 221.14 102.774 221.154 102.755C221.14 102.774 221.126 102.793 221.111 102.812ZM264.312 102.683C264.32 102.698 264.329 102.714 264.338 102.729C264.329 102.714 264.32 102.698 264.312 102.683ZM270.99 102.702C271.009 102.675 271.027 102.647 271.044 102.619C271.027 102.647 271.009 102.675 270.99 102.702ZM221.266 102.584C221.283 102.554 221.3 102.524 221.316 102.494C221.3 102.524 221.283 102.554 221.266 102.584ZM264.241 102.539C264.256 102.571 264.27 102.603 264.286 102.634C264.27 102.603 264.256 102.571 264.241 102.539ZM271.066 102.582C271.084 102.553 271.1 102.523 271.116 102.493C271.1 102.523 271.084 102.553 271.066 102.582ZM264.189 102.413C264.202 102.445 264.214 102.477 264.228 102.509C264.214 102.477 264.202 102.445 264.189 102.413ZM271.133 102.462C271.152 102.424 271.172 102.386 271.189 102.348C271.172 102.386 271.152 102.424 271.133 102.462ZM221.339 102.451C221.35 102.429 221.361 102.406 221.372 102.383C221.361 102.406 221.35 102.429 221.339 102.451ZM264.146 102.29C264.156 102.318 264.165 102.346 264.175 102.373C264.165 102.346 264.156 102.318 264.146 102.29ZM271.253 102.188C271.265 102.156 271.276 102.124 271.286 102.091C271.276 102.124 271.265 102.156 271.253 102.188ZM221.407 102.303C221.413 102.289 221.418 102.276 221.424 102.263C221.418 102.276 221.413 102.289 221.407 102.303ZM221.457 102.175C221.465 102.153 221.473 102.131 221.48 102.108C221.473 102.131 221.465 102.153 221.457 102.175ZM271.398 101.46C271.387 101.667 271.354 101.864 271.299 102.051C271.354 101.864 271.388 101.667 271.399 101.46L271.403 101.3L271.398 101.46ZM271.386 36.4844C271.397 36.5863 271.403 36.6916 271.403 36.7998C271.403 36.6915 271.397 36.5864 271.386 36.4844ZM270.303 34.7998C270.853 35.1499 271.198 35.6123 271.335 36.1875C271.301 36.0437 271.253 35.9071 271.192 35.7773C271.152 35.691 271.107 35.6075 271.056 35.5273C270.978 35.407 270.888 35.2937 270.785 35.1875C270.716 35.1166 270.642 35.049 270.562 34.9844C270.481 34.9197 270.395 34.8582 270.304 34.7998C270.224 34.7437 270.141 34.6919 270.056 34.6426C270.14 34.6918 270.223 34.7439 270.303 34.7998ZM221.055 35.6182C221.035 35.602 221.015 35.5852 220.995 35.5693C221.015 35.5852 221.035 35.602 221.055 35.6182ZM220.86 35.4658C220.821 35.4355 220.781 35.4053 220.741 35.376C220.781 35.4053 220.821 35.4355 220.86 35.4658ZM220.314 35.083C220.285 35.0643 220.257 35.0455 220.228 35.0273C220.257 35.0455 220.285 35.0643 220.314 35.083ZM220.103 34.9521C220.056 34.9246 220.01 34.8973 219.964 34.8711C220.01 34.8973 220.056 34.9246 220.103 34.9521ZM219.843 34.8047C219.792 34.777 219.741 34.7497 219.689 34.7236C219.741 34.7497 219.792 34.777 219.843 34.8047ZM219.599 34.6777C219.546 34.6522 219.494 34.6274 219.441 34.6035C219.494 34.6274 219.546 34.6522 219.599 34.6777ZM269.993 34.6084C269.93 34.5736 269.867 34.54 269.802 34.5088C269.867 34.54 269.93 34.5736 269.993 34.6084ZM219.305 34.5439C219.273 34.5305 219.242 34.5177 219.21 34.5049C219.242 34.5177 219.273 34.5305 219.305 34.5439ZM269.697 34.4619C269.642 34.4378 269.587 34.4143 269.53 34.3926C269.587 34.4143 269.642 34.4378 269.697 34.4619ZM219.04 34.4375C219.004 34.424 218.967 34.4121 218.931 34.3994C218.967 34.4121 219.004 34.424 219.04 34.4375ZM218.798 34.3545C218.755 34.3407 218.712 34.3281 218.669 34.3154C218.712 34.3281 218.755 34.3407 218.798 34.3545ZM269.418 34.3516C269.36 34.3313 269.301 34.3127 269.241 34.2949C269.301 34.3127 269.36 34.3313 269.418 34.3516ZM218.521 34.2734C218.485 34.2641 218.45 34.2557 218.414 34.2471C218.45 34.2557 218.485 34.2641 218.521 34.2734ZM269.129 34.2627C269.063 34.2451 268.996 34.2296 268.928 34.2148C268.996 34.2296 269.063 34.2451 269.129 34.2627ZM218.268 34.2129C218.231 34.2051 218.194 34.1984 218.157 34.1914C218.194 34.1984 218.231 34.2051 218.268 34.2129ZM268.82 34.1914C268.738 34.1756 268.654 34.1621 268.568 34.1504C268.654 34.1621 268.738 34.1756 268.82 34.1914ZM217.994 34.1611C217.981 34.159 217.967 34.1582 217.954 34.1562C217.967 34.1582 217.981 34.159 217.994 34.1611ZM267.803 34.0996C268.049 34.0996 268.286 34.1143 268.512 34.1426C268.401 34.1286 268.287 34.1174 268.171 34.1104L267.804 34.0996H267.803ZM220.727 103.22C220.738 103.21 220.749 103.201 220.76 103.191C220.749 103.201 220.738 103.21 220.727 103.22ZM264.532 103.017C264.556 103.046 264.581 103.075 264.606 103.104C264.581 103.075 264.556 103.046 264.532 103.017ZM270.82 102.926C270.84 102.903 270.859 102.879 270.878 102.855C270.859 102.879 270.84 102.903 270.82 102.926ZM221.195 102.694C221.214 102.667 221.232 102.639 221.249 102.611C221.232 102.639 221.214 102.667 221.195 102.694ZM271.198 102.326C271.214 102.289 271.229 102.252 271.243 102.214C271.229 102.252 271.214 102.289 271.198 102.326Z" fill="#f46482"/>
<path d="M169.769 48.0996C177.279 48.0996 183.758 51.019 188.935 56.5996C193.994 62.0538 196.669 68.4789 196.669 75.6992V75.7188L196.569 101.919C196.562 104.84 194.928 107.003 192.89 108.258L192.839 108.289L192.788 108.318C191.163 109.266 189.382 109.699 187.569 109.699C185.881 109.699 183.682 109.359 181.859 107.812C179.879 106.132 179.269 103.838 179.269 101.899V98.1768C176.674 100.662 174.077 102.746 171.475 104.402L171.476 104.403C165.896 107.996 159.935 109.899 153.669 109.899C147.338 109.899 141.837 107.281 137.341 102.54L137.312 102.509C132.88 97.7553 130.469 92.1686 130.469 85.8994C130.469 75.4702 134.628 66.4691 142.576 59.127C150.424 51.8767 159.545 48.0997 169.769 48.0996ZM187.568 104.698L187.569 104.699C187.683 104.699 187.795 104.694 187.906 104.688C187.795 104.695 187.682 104.698 187.568 104.698ZM188.065 104.677C188.127 104.672 188.189 104.667 188.25 104.66C188.189 104.667 188.127 104.672 188.065 104.677ZM188.41 104.639C188.467 104.631 188.524 104.622 188.58 104.612C188.524 104.622 188.467 104.631 188.41 104.639ZM186.472 104.604C186.524 104.614 186.577 104.622 186.631 104.63C186.577 104.622 186.524 104.614 186.472 104.604ZM188.735 104.582C188.797 104.569 188.858 104.556 188.919 104.541C188.858 104.556 188.797 104.569 188.735 104.582ZM186.16 104.532C186.209 104.546 186.26 104.557 186.311 104.568C186.26 104.557 186.209 104.546 186.16 104.532ZM189.044 104.509C189.12 104.488 189.195 104.465 189.27 104.441C189.195 104.465 189.12 104.488 189.044 104.509ZM185.869 104.439C185.914 104.456 185.961 104.47 186.008 104.485C185.961 104.47 185.914 104.456 185.869 104.439ZM189.349 104.417C189.437 104.387 189.525 104.354 189.611 104.319C189.525 104.354 189.437 104.387 189.349 104.417ZM185.628 104.339C185.634 104.342 185.64 104.346 185.646 104.349C185.64 104.346 185.634 104.342 185.628 104.339ZM185.385 104.208C185.394 104.214 185.404 104.22 185.413 104.226C185.404 104.22 185.394 104.214 185.385 104.208ZM185.171 104.061C185.179 104.067 185.187 104.074 185.195 104.08C185.187 104.074 185.179 104.067 185.171 104.061ZM190.617 103.756C190.646 103.733 190.674 103.711 190.701 103.688C190.674 103.711 190.646 103.733 190.617 103.756ZM190.74 103.655C190.772 103.628 190.802 103.601 190.832 103.573C190.802 103.601 190.772 103.628 190.74 103.655ZM190.884 103.522C190.902 103.504 190.92 103.485 190.938 103.467C190.92 103.485 190.902 103.504 190.884 103.522ZM190.988 103.412C191.008 103.39 191.028 103.367 191.047 103.344C191.028 103.367 191.008 103.39 190.988 103.412ZM184.542 103.277C184.549 103.293 184.557 103.307 184.564 103.322C184.557 103.307 184.549 103.293 184.542 103.277ZM191.076 103.309C191.097 103.282 191.118 103.255 191.138 103.229C191.118 103.255 191.097 103.282 191.076 103.309ZM191.186 103.16C191.195 103.146 191.205 103.132 191.215 103.117C191.205 103.132 191.195 103.146 191.186 103.16ZM184.446 103.047C184.448 103.053 184.451 103.058 184.453 103.063C184.451 103.058 184.448 103.053 184.446 103.047ZM191.26 103.046C191.273 103.023 191.286 103 191.299 102.978C191.286 103 191.273 103.023 191.26 103.046ZM191.334 102.911C191.344 102.891 191.354 102.871 191.363 102.851C191.354 102.871 191.344 102.891 191.334 102.911ZM184.333 102.614C184.347 102.687 184.361 102.758 184.379 102.827C184.361 102.758 184.347 102.687 184.333 102.614ZM191.489 102.51C191.496 102.483 191.502 102.456 191.508 102.43C191.502 102.456 191.496 102.483 191.489 102.51ZM184.294 102.343C184.301 102.41 184.308 102.476 184.318 102.54C184.308 102.476 184.301 102.41 184.294 102.343ZM191.516 73.0264C191.617 73.9022 191.669 74.7931 191.669 75.6992L191.568 101.899C191.568 101.943 191.567 101.987 191.564 102.03L191.569 101.899L191.669 75.6992C191.669 74.7931 191.617 73.9022 191.516 73.0264ZM154.608 97.6885L155.169 97.6992C154.794 97.6992 154.422 97.6845 154.052 97.6543L154.608 97.6885ZM156.658 97.5977C156.473 97.6222 156.288 97.6427 156.105 97.6582C156.288 97.6426 156.473 97.6222 156.658 97.5977ZM152.95 97.5186C153.132 97.5488 153.315 97.575 153.499 97.5977L152.95 97.5176C152.768 97.4874 152.586 97.4538 152.405 97.416L152.95 97.5186ZM161.731 95.9688C160.821 96.4137 159.937 96.7727 159.077 97.0459C159.937 96.7727 160.821 96.4137 161.731 95.9688ZM145.779 94.0527C145.91 94.176 146.045 94.2964 146.185 94.4141C146.045 94.2964 145.91 94.176 145.779 94.0527ZM168.469 65.0996C163.447 65.0997 158.729 67.0678 154.183 71.5576L154.171 71.5684L154.159 71.5801C149.701 75.9273 147.669 80.7026 147.669 86.0996C147.669 88.5617 148.441 89.8678 149.646 90.7812C151.532 92.1375 153.34 92.6992 155.169 92.6992C157.045 92.6992 159.936 91.7399 164.019 88.6367C168.122 85.45 171.455 81.979 174.069 78.2363L174.074 78.2305L174.079 78.2236C175.467 76.2497 176.406 74.632 176.984 73.3477C177.581 72.0211 177.669 71.3205 177.669 71.0996C177.669 70.1838 177.423 69.509 176.932 68.8809L176.857 68.7871L176.789 68.6895C176.17 67.815 175.461 67.2598 174.621 66.9043L174.588 66.8906L174.556 66.876C173.096 66.2338 171.852 65.8115 170.811 65.5635L170.702 65.5381L170.596 65.5068C169.423 65.1716 168.754 65.0996 168.469 65.0996ZM180.263 89.8867V89.8877V89.8867ZM142.803 88.0977C142.818 88.2079 142.835 88.3173 142.854 88.4258C142.835 88.3173 142.818 88.2079 142.803 88.0977ZM183.259 86.2891C183.594 85.8668 183.931 85.4373 184.269 85C183.931 85.4373 183.594 85.8668 183.259 86.2891ZM142.685 86.8018C142.693 86.9827 142.705 87.1613 142.72 87.3379C142.705 87.1578 142.693 86.9756 142.685 86.791V86.8018ZM142.693 85C142.678 85.3642 142.669 85.7306 142.669 86.0996C142.669 85.7306 142.678 85.3642 142.693 85ZM135.627 82.6689C135.618 82.7599 135.611 82.8511 135.603 82.9424C135.611 82.8511 135.618 82.7599 135.627 82.6689ZM135.72 81.8467C135.702 81.9886 135.686 82.1309 135.67 82.2734C135.686 82.1309 135.702 81.9886 135.72 81.8467ZM135.825 81.0869C135.806 81.2106 135.79 81.3348 135.772 81.459C135.79 81.3348 135.806 81.2106 135.825 81.0869ZM135.954 80.3125C135.934 80.4229 135.916 80.5337 135.897 80.6445C135.916 80.5337 135.934 80.4229 135.954 80.3125ZM136.108 79.5166C136.088 79.6163 136.068 79.7164 136.049 79.8164C136.068 79.7164 136.088 79.6163 136.108 79.5166ZM136.271 78.7793C136.243 78.8988 136.216 79.0187 136.189 79.1387C136.216 79.0187 136.243 78.8988 136.271 78.7793ZM136.467 77.9951C136.438 78.1055 136.41 78.2163 136.382 78.3271C136.41 78.2163 136.438 78.1055 136.467 77.9951ZM136.672 77.2539C136.634 77.3821 136.598 77.5108 136.562 77.6396C136.598 77.5108 136.634 77.3821 136.672 77.2539ZM136.905 76.4961C136.863 76.6263 136.822 76.7569 136.782 76.8877C136.822 76.7569 136.863 76.6263 136.905 76.4961ZM137.151 75.7676C137.103 75.9039 137.057 76.0407 137.011 76.1777C137.057 76.0407 137.103 75.9039 137.151 75.7676ZM137.426 75.0244C137.384 75.1339 137.342 75.2436 137.302 75.3535C137.342 75.2436 137.384 75.1339 137.426 75.0244ZM137.706 74.3203C137.654 74.4453 137.604 74.5707 137.554 74.6963C137.604 74.5707 137.654 74.4453 137.706 74.3203ZM138.01 73.6143C137.966 73.713 137.923 73.812 137.88 73.9111C137.923 73.812 137.966 73.713 138.01 73.6143ZM138.326 72.9287C138.276 73.0346 138.226 73.1407 138.177 73.2471C138.226 73.1407 138.276 73.0346 138.326 72.9287ZM191.35 71.8721C191.325 71.7255 191.299 71.5793 191.271 71.4336C191.299 71.5793 191.325 71.7255 191.35 71.8721ZM138.688 72.1982C138.643 72.288 138.597 72.3777 138.552 72.4678C138.597 72.3777 138.643 72.288 138.688 72.1982ZM139.04 71.5322C138.994 71.6161 138.949 71.7 138.904 71.7842C138.949 71.7 138.994 71.6161 139.04 71.5322ZM191.247 71.3145C191.223 71.1943 191.199 71.0746 191.173 70.9551C191.199 71.0746 191.223 71.1943 191.247 71.3145ZM139.435 70.8301C139.375 70.9331 139.315 71.0361 139.257 71.1396C139.315 71.0361 139.375 70.9331 139.435 70.8301ZM191.127 70.7451C191.106 70.6535 191.085 70.562 191.063 70.4707C191.085 70.562 191.106 70.6535 191.127 70.7451ZM139.83 70.168C139.776 70.2565 139.721 70.3447 139.668 70.4336C139.721 70.3447 139.776 70.2565 139.83 70.168ZM191.002 70.2217C190.975 70.116 190.948 70.0105 190.92 69.9053C190.948 70.0105 190.975 70.116 191.002 70.2217ZM140.263 69.4844C140.202 69.577 140.141 69.6687 140.082 69.7617C140.141 69.6687 140.202 69.577 140.263 69.4844ZM190.862 69.6973C190.838 69.6088 190.812 69.5207 190.786 69.4326C190.812 69.5207 190.838 69.6088 190.862 69.6973ZM190.737 69.2676C190.703 69.1534 190.668 69.0394 190.632 68.9258C190.668 69.0393 190.703 69.1534 190.737 69.2676ZM140.735 68.7783C140.657 68.8917 140.579 69.0051 140.503 69.1191C140.579 69.0051 140.657 68.8917 140.735 68.7783ZM190.586 68.7861C190.541 68.649 190.495 68.5122 190.447 68.376C190.495 68.5122 190.541 68.649 190.586 68.7861ZM141.238 68.0703C141.144 68.1994 141.05 68.3281 140.958 68.458C141.05 68.3281 141.144 68.1994 141.238 68.0703ZM190.411 68.2744C190.369 68.1563 190.326 68.0384 190.282 67.9209C190.326 68.0384 190.369 68.1563 190.411 68.2744ZM141.745 67.3945C141.642 67.529 141.539 67.6634 141.438 67.7988C141.539 67.6634 141.642 67.529 141.745 67.3945ZM190.211 67.7354C190.176 67.644 190.139 67.5529 190.103 67.4619C190.139 67.5529 190.176 67.644 190.211 67.7354ZM190.027 67.2773C189.985 67.1755 189.942 67.074 189.898 66.9727C189.942 67.074 189.985 67.1755 190.027 67.2773ZM142.176 66.8467C142.096 66.946 142.016 67.0447 141.938 67.1445C142.016 67.0447 142.096 66.946 142.176 66.8467ZM189.828 66.8105C189.777 66.6954 189.726 66.5804 189.673 66.4658C189.726 66.5804 189.777 66.6954 189.828 66.8105ZM142.672 66.2441C142.603 66.326 142.534 66.4071 142.466 66.4893C142.534 66.4071 142.603 66.326 142.672 66.2441ZM189.414 65.9238C189.35 65.7947 189.284 65.6664 189.218 65.5381C189.284 65.6664 189.35 65.7948 189.414 65.9238ZM155.312 64.1807C154.78 64.5356 154.254 64.9142 153.732 65.3154C154.254 64.9142 154.78 64.5356 155.312 64.1807ZM189.124 65.3584C189.075 65.2665 189.025 65.1754 188.975 65.084C189.025 65.1754 189.075 65.2665 189.124 65.3584ZM188.886 64.9219C188.815 64.7951 188.743 64.6689 188.669 64.543C188.743 64.6689 188.815 64.7951 188.886 64.9219ZM144.548 64.1807C144.402 64.3297 144.256 64.4777 144.113 64.6279C144.256 64.4777 144.402 64.3297 144.548 64.1807ZM188.354 64.0176C188.275 63.8906 188.194 63.7648 188.112 63.6387C188.194 63.7648 188.275 63.8906 188.354 64.0176ZM188.03 63.5107C187.959 63.402 187.887 63.2937 187.813 63.1855C187.887 63.2936 187.959 63.402 188.03 63.5107ZM186.078 60.9102C186.682 61.6193 187.237 62.3429 187.743 63.0811C187.237 62.3428 186.682 61.6193 186.078 60.9102ZM160.804 61.4033C160.237 61.6039 159.675 61.8283 159.119 62.0752C159.675 61.8283 160.237 61.6039 160.804 61.4033ZM185.662 60.4326C185.741 60.5211 185.818 60.6103 185.896 60.6992C185.818 60.6105 185.742 60.5209 185.663 60.4326L185.269 60L185.662 60.4326ZM184.216 58.9307C184.168 58.8844 184.12 58.8377 184.071 58.792C184.12 58.8377 184.168 58.8844 184.216 58.9307ZM183.708 58.457C183.692 58.4428 183.677 58.4282 183.661 58.4141C183.677 58.4282 183.692 58.4428 183.708 58.457ZM183.371 58.1592C183.332 58.1251 183.293 58.0904 183.254 58.0566C183.293 58.0904 183.332 58.1251 183.371 58.1592ZM182.959 57.8086C182.909 57.7672 182.86 57.7254 182.81 57.6846C182.86 57.7254 182.909 57.7672 182.959 57.8086ZM182.527 57.46C182.489 57.4294 182.45 57.3984 182.411 57.3682C182.45 57.3984 182.489 57.4294 182.527 57.46ZM181.697 56.8359C181.637 56.7929 181.577 56.7493 181.517 56.707C181.577 56.7493 181.637 56.7929 181.697 56.8359ZM181.317 56.5713C181.229 56.511 181.14 56.4513 181.051 56.3926C181.14 56.4513 181.229 56.511 181.317 56.5713ZM180.875 56.2783C180.797 56.2283 180.72 56.1787 180.642 56.1299C180.72 56.1787 180.797 56.2283 180.875 56.2783ZM180.386 55.9727C180.32 55.9327 180.254 55.8926 180.188 55.8535C180.254 55.8926 180.32 55.9327 180.386 55.9727ZM179.917 55.6982C179.859 55.6653 179.801 55.6319 179.743 55.5996C179.801 55.6319 179.859 55.6653 179.917 55.6982ZM179.464 55.4473C179.4 55.413 179.336 55.3792 179.271 55.3457C179.336 55.3792 179.4 55.413 179.464 55.4473ZM179.002 55.209C178.939 55.1777 178.877 55.1459 178.814 55.1152C178.877 55.1459 178.939 55.1777 179.002 55.209ZM178.522 54.9756C178.465 54.9487 178.407 54.9218 178.35 54.8955C178.407 54.9218 178.465 54.9487 178.522 54.9756ZM178.021 54.75C177.981 54.7325 177.941 54.7154 177.9 54.6982C177.941 54.7154 177.981 54.7325 178.021 54.75ZM177.576 54.5625C177.509 54.5352 177.441 54.5089 177.373 54.4824C177.441 54.5089 177.509 54.5352 177.576 54.5625ZM177.093 54.375C177.022 54.3487 176.952 54.3233 176.881 54.2979C176.952 54.3233 177.022 54.3487 177.093 54.375ZM176.622 54.2061C176.534 54.1757 176.445 54.1463 176.356 54.1172C176.445 54.1463 176.534 54.1757 176.622 54.2061ZM176.127 54.043C176.043 54.0166 175.959 53.992 175.875 53.9668C175.959 53.992 176.043 54.0166 176.127 54.043ZM175.63 53.8936C175.541 53.868 175.451 53.8436 175.361 53.8193C175.451 53.8436 175.541 53.868 175.63 53.8936ZM175.108 53.752C175.02 53.7292 174.931 53.7081 174.842 53.6865C174.931 53.7081 175.02 53.7292 175.108 53.752ZM174.629 53.6357C174.511 53.6086 174.393 53.5827 174.274 53.5576C174.393 53.5827 174.511 53.6086 174.629 53.6357ZM174.104 53.5215C174.002 53.5009 173.899 53.482 173.797 53.4629C173.899 53.482 174.002 53.5009 174.104 53.5215ZM173.576 53.4219C173.494 53.4075 173.412 53.3943 173.329 53.3809C173.412 53.3943 173.494 53.4075 173.576 53.4219ZM173.009 53.3311C172.991 53.3284 172.973 53.3258 172.955 53.3232C172.973 53.3258 172.991 53.3284 173.009 53.3311ZM172.487 53.2607C172.449 53.2561 172.41 53.2525 172.372 53.248C172.41 53.2525 172.449 53.2561 172.487 53.2607ZM171.97 53.2041C171.904 53.1977 171.838 53.1933 171.772 53.1875C171.838 53.1933 171.904 53.1977 171.97 53.2041ZM190.269 104C190.322 103.967 190.373 103.932 190.424 103.897C190.374 103.932 190.322 103.967 190.269 104ZM190.497 103.846C190.522 103.828 190.547 103.811 190.57 103.793C190.547 103.811 190.522 103.828 190.497 103.846ZM191.394 102.782C191.408 102.749 191.421 102.715 191.434 102.681C191.421 102.715 191.408 102.749 191.394 102.782ZM191.445 102.648C191.458 102.611 191.471 102.573 191.481 102.535C191.471 102.573 191.458 102.611 191.445 102.648ZM145.648 93.9258C145.684 93.9609 145.72 93.9965 145.757 94.0312C145.72 93.9965 145.684 93.9609 145.648 93.9258ZM142.763 87.7832C142.76 87.7563 142.757 87.7292 142.754 87.7021C142.757 87.7292 142.76 87.7563 142.763 87.7832ZM142.763 87.7832C142.771 87.8516 142.78 87.9196 142.789 87.9873C142.78 87.9196 142.771 87.8516 142.763 87.7832ZM135.509 84.2471C135.503 84.3637 135.501 84.4806 135.496 84.5977C135.501 84.4806 135.503 84.3637 135.509 84.2471ZM135.509 84.2471C135.515 84.1188 135.524 83.991 135.532 83.8633C135.524 83.991 135.515 84.1188 135.509 84.2471ZM191.489 72.8145C191.475 72.6993 191.46 72.5844 191.443 72.4697C191.46 72.5844 191.475 72.6993 191.489 72.8145ZM191.432 72.3906C191.41 72.2447 191.388 72.0992 191.364 71.9541C191.388 72.0992 191.41 72.2447 191.432 72.3906ZM189.617 66.3467C189.551 66.2053 189.484 66.0642 189.414 65.9238C189.484 66.0642 189.551 66.2053 189.617 66.3467ZM188.627 64.4697C188.551 64.3403 188.473 64.2116 188.394 64.083C188.473 64.2116 188.551 64.3403 188.627 64.4697Z" fill="#f46482"/>
<path d="M82.0811 29.0996C83.8692 29.0996 85.7664 29.5251 87.4492 30.7031L87.4473 30.7041C89.5044 32.0938 90.6816 34.2911 90.6816 36.7998V91.7998H118.481C120.96 91.7998 123.133 92.9484 124.525 94.959L124.746 95.2754C125.809 96.8746 126.281 98.6788 126.281 100.5C126.281 102.21 125.972 104.413 124.528 106.27C122.898 108.365 120.568 109.1 118.481 109.1H84.0811C81.9053 109.1 79.5467 108.863 77.5576 107.902C76.4953 107.389 75.3759 106.591 74.5293 105.365C73.6552 104.099 73.2813 102.678 73.2812 101.3V36.7998C73.2812 34.5751 74.1587 32.2445 76.335 30.6982C78.1971 29.3751 80.374 29.0997 82.0811 29.0996ZM119.082 104.052C119.092 104.05 119.101 104.049 119.11 104.047C119.101 104.049 119.092 104.05 119.082 104.052ZM119.356 103.993C119.37 103.99 119.384 103.985 119.397 103.981C119.384 103.985 119.37 103.99 119.356 103.993ZM119.621 103.908C119.64 103.901 119.658 103.893 119.677 103.886C119.658 103.893 119.64 103.901 119.621 103.908ZM119.851 103.805C119.878 103.791 119.904 103.777 119.931 103.762C119.904 103.777 119.878 103.791 119.851 103.805ZM119.976 103.736C120.001 103.721 120.026 103.705 120.051 103.688C120.026 103.705 120.001 103.721 119.976 103.736ZM120.082 103.668C120.104 103.653 120.125 103.638 120.146 103.622C120.125 103.638 120.104 103.653 120.082 103.668ZM120.661 103.09C120.608 103.167 120.551 103.24 120.491 103.309C120.551 103.24 120.608 103.167 120.661 103.09ZM120.786 102.888C120.794 102.874 120.801 102.861 120.809 102.848C120.801 102.861 120.794 102.874 120.786 102.888ZM120.913 102.634C120.921 102.615 120.929 102.596 120.938 102.576C120.929 102.596 120.921 102.615 120.913 102.634ZM121.02 102.356C121.038 102.303 121.054 102.248 121.07 102.191C121.054 102.248 121.038 102.303 121.02 102.356ZM121.113 102.038C121.133 101.961 121.15 101.881 121.166 101.8C121.15 101.881 121.133 101.961 121.113 102.038ZM121.184 101.711C121.201 101.613 121.215 101.513 121.228 101.409C121.215 101.513 121.201 101.613 121.184 101.711ZM120.204 97.5332C120.303 97.643 120.396 97.7649 120.481 97.8994C120.396 97.7649 120.303 97.643 120.204 97.5332ZM120.15 97.4766C120.137 97.4624 120.123 97.4483 120.109 97.4346C120.123 97.4483 120.137 97.4624 120.15 97.4766ZM120.045 97.374C120.032 97.3623 120.02 97.3502 120.007 97.3389C120.02 97.3502 120.032 97.3623 120.045 97.374ZM119.953 97.2939C119.931 97.2757 119.909 97.2575 119.886 97.2402C119.909 97.2575 119.931 97.2757 119.953 97.2939ZM119.847 97.2119C119.825 97.1961 119.803 97.1809 119.78 97.166C119.803 97.1809 119.825 97.1961 119.847 97.2119ZM119.718 97.126C119.7 97.115 119.682 97.1041 119.664 97.0938C119.682 97.1041 119.7 97.115 119.718 97.126ZM119.605 97.0615C119.583 97.0495 119.56 97.0376 119.537 97.0264C119.56 97.0376 119.583 97.0495 119.605 97.0615ZM119.474 96.9971C119.455 96.9889 119.437 96.9813 119.418 96.9736C119.437 96.9813 119.455 96.9889 119.474 96.9971ZM119.352 96.9473C119.324 96.9368 119.295 96.9273 119.267 96.918C119.295 96.9273 119.324 96.9368 119.352 96.9473ZM119.222 96.9033C119.197 96.896 119.173 96.8893 119.148 96.8828C119.173 96.8893 119.197 96.896 119.222 96.9033ZM119.07 96.8633C119.059 96.8606 119.047 96.858 119.035 96.8555C119.047 96.858 119.059 96.8606 119.07 96.8633ZM118.937 96.8359C118.911 96.8316 118.885 96.8288 118.858 96.8252C118.885 96.8288 118.911 96.8316 118.937 96.8359ZM85.6768 36.6396H85.6777H85.6768ZM84.5811 34.7998C84.503 34.7451 84.4225 34.6938 84.3398 34.6455C84.4225 34.6938 84.503 34.7451 84.5811 34.7998ZM84.2305 34.5869C84.1847 34.5623 84.1389 34.5374 84.0918 34.5146C84.1389 34.5374 84.1847 34.5623 84.2305 34.5869ZM83.957 34.4541C83.9104 34.4338 83.8633 34.414 83.8154 34.3955C83.8633 34.414 83.9104 34.4339 83.957 34.4541ZM83.6875 34.3486C83.6345 34.3303 83.5808 34.3132 83.5264 34.2969C83.5808 34.3132 83.6345 34.3303 83.6875 34.3486ZM83.4014 34.2607C83.3386 34.244 83.2746 34.2299 83.21 34.2158C83.2746 34.2299 83.3386 34.2441 83.4014 34.2607ZM83.0986 34.1914C83.019 34.1761 82.9379 34.1638 82.8555 34.1523C82.9379 34.1638 83.019 34.1762 83.0986 34.1914ZM82.7881 34.1416C82.6772 34.1277 82.564 34.1174 82.4482 34.1104C82.5639 34.1174 82.6772 34.1278 82.7881 34.1416ZM119.726 103.865C119.76 103.85 119.794 103.833 119.828 103.816C119.794 103.833 119.76 103.85 119.726 103.865Z" fill="#f46482"/>
<path d="M32.1006 29C41.8536 29.0001 50.0806 31.3216 55.6631 36.9912C60.9336 42.3441 63.5 49.11 63.5 56.8994C63.5 65.9054 59.8459 73.0805 52.2539 77.3564C45.3625 81.2378 35.9217 82.8994 24.5 82.8994C22.9753 82.8994 20.7913 82.7876 18.0352 82.5859H18.0264C17.8126 82.5699 17.6038 82.5556 17.4004 82.541V101.399C17.4004 103.908 16.2228 106.104 14.166 107.494L14.168 107.496C12.4851 108.674 10.5879 109.1 8.7998 109.1C7.09274 109.1 4.91585 108.824 3.05371 107.501C0.877487 105.955 0 103.624 0 101.399V36.8994C4.62247e-05 34.7629 0.77916 32.4237 2.9082 30.8125C4.77443 29.4003 6.97906 29.0996 8.7002 29.0996L9.12305 29.1084C11.2177 29.1962 13.4707 29.9525 15.1279 31.9297C20.8477 29.9983 26.5115 29 32.1006 29ZM11.5195 103.245C11.5294 103.237 11.5391 103.229 11.5488 103.222C11.5391 103.229 11.5294 103.237 11.5195 103.245ZM11.999 102.749C12.0114 102.732 12.0234 102.714 12.0352 102.696C12.0234 102.714 12.0114 102.732 11.999 102.749ZM12.0674 102.646C12.0812 102.623 12.0945 102.601 12.1074 102.578C12.0945 102.601 12.0812 102.623 12.0674 102.646ZM12.1406 102.519C12.1495 102.502 12.1576 102.485 12.166 102.468C12.1576 102.485 12.1495 102.502 12.1406 102.519ZM12.2559 102.26C12.26 102.248 12.2636 102.237 12.2676 102.226C12.2636 102.237 12.26 102.248 12.2559 102.26ZM26.4336 77.8818C26.4522 77.8815 26.4707 77.8812 26.4893 77.8809C26.4707 77.8812 26.4522 77.8815 26.4336 77.8818ZM29.251 77.791C29.2878 77.7893 29.3246 77.7879 29.3613 77.7861C29.3246 77.7879 29.2878 77.7893 29.251 77.791ZM31.0635 77.6865C31.112 77.6832 31.1606 77.6801 31.209 77.6768C31.1605 77.6801 31.112 77.6832 31.0635 77.6865ZM31.9014 77.625C31.9836 77.6185 32.0656 77.6122 32.1475 77.6055C32.0656 77.6122 31.9836 77.6185 31.9014 77.625ZM32.7207 77.5566C32.8258 77.5473 32.9307 77.5381 33.0352 77.5283C32.9307 77.5381 32.8258 77.5473 32.7207 77.5566ZM33.7803 77.4541C33.8014 77.4519 33.8226 77.4505 33.8438 77.4482C33.8226 77.4505 33.8014 77.4519 33.7803 77.4541ZM34.5293 77.3721C34.6079 77.3631 34.6864 77.3549 34.7646 77.3457C34.6864 77.3549 34.6079 77.3631 34.5293 77.3721ZM35.3457 77.2734C35.44 77.2615 35.5341 77.2496 35.6279 77.2373C35.5341 77.2496 35.44 77.2615 35.3457 77.2734ZM36.1836 77.1621C36.2662 77.1505 36.3485 77.1388 36.4307 77.127C36.3485 77.1388 36.2662 77.1505 36.1836 77.1621ZM36.9873 77.0439C37.0912 77.028 37.1947 77.0115 37.2979 76.9951C37.1947 77.0116 37.0912 77.028 36.9873 77.0439ZM37.8145 76.9102C37.8934 76.8968 37.9722 76.8837 38.0508 76.8701C37.9722 76.8837 37.8934 76.8968 37.8145 76.9102ZM38.5605 76.7793C38.6779 76.7579 38.7948 76.7359 38.9111 76.7139C38.7948 76.7359 38.6779 76.7579 38.5605 76.7793ZM39.3682 76.625C39.4446 76.6098 39.5207 76.5945 39.5967 76.5791C39.5207 76.5945 39.4446 76.6098 39.3682 76.625ZM40.1738 76.459C40.2346 76.4459 40.295 76.4322 40.3555 76.4189C40.295 76.4322 40.2346 76.4459 40.1738 76.459ZM40.8799 76.3008C40.9645 76.2812 41.0488 76.2612 41.1328 76.2412C41.0488 76.2612 40.9645 76.2812 40.8799 76.3008ZM41.6035 76.1279C41.6908 76.1062 41.7776 76.0836 41.8643 76.0615C41.7776 76.0836 41.6908 76.1062 41.6035 76.1279ZM42.3594 75.9326C42.4074 75.9198 42.4551 75.9065 42.5029 75.8936C42.4551 75.9065 42.4074 75.9198 42.3594 75.9326ZM43.082 75.7324C43.1118 75.7239 43.1413 75.7146 43.1709 75.7061C43.1413 75.7146 43.1118 75.7239 43.082 75.7324ZM43.748 75.5342C43.7904 75.5212 43.8328 75.5082 43.875 75.4951C43.8328 75.5082 43.7904 75.5212 43.748 75.5342ZM44.4229 75.3213C44.4787 75.303 44.5343 75.2841 44.5898 75.2656C44.5343 75.2841 44.4787 75.303 44.4229 75.3213ZM45.0312 75.1162C45.124 75.0841 45.2158 75.0503 45.3076 75.0176C45.2158 75.0503 45.124 75.0841 45.0312 75.1162ZM45.7158 74.8711C45.7738 74.8496 45.831 74.8264 45.8887 74.8047C45.831 74.8264 45.7738 74.8496 45.7158 74.8711ZM46.3096 74.6445C46.3993 74.6093 46.4883 74.573 46.5771 74.5371C46.4883 74.573 46.3993 74.6093 46.3096 74.6445ZM46.9492 74.3848C47.0087 74.3599 47.0679 74.3347 47.127 74.3096C47.0679 74.3347 47.0087 74.3599 46.9492 74.3848ZM47.54 74.1309C47.5866 74.1102 47.6324 74.0882 47.6787 74.0674C47.6324 74.0882 47.5866 74.1102 47.54 74.1309ZM27.3828 69.9951L28.9004 70L27.3828 69.9941C26.9284 69.991 26.4831 69.9864 26.0469 69.9805C26.4831 69.9864 26.9284 69.992 27.3828 69.9951ZM23.7012 69.9316C24.4418 69.9524 25.2133 69.9684 26.0156 69.9795C25.2133 69.9684 24.4418 69.9524 23.7012 69.9316ZM12.4004 68.7002C12.6855 68.7906 13.0014 68.8731 13.3467 68.9541C13.0013 68.8731 12.6855 68.7896 12.4004 68.6992V68.7002ZM31.1006 46.3994C26.9675 46.3994 22.415 47.4609 17.4004 49.7881V64.5459C19.9785 64.8211 23.7496 65 28.9004 65C35.0197 65 39.4238 63.923 42.4785 62.1807C45.0026 60.6843 46.1005 58.7611 46.1006 55.7998C46.1006 53.2922 45.1842 51.2695 42.9912 49.4346L42.9463 49.3955C40.9832 47.7129 37.3623 46.3995 31.1006 46.3994ZM51.0479 57.0781C51.0593 56.9399 51.0695 56.8006 51.0771 56.6602C51.0695 56.8006 51.0593 56.9399 51.0479 57.0781ZM58.4443 55.0938C58.4638 55.4074 58.4772 55.7238 58.4863 56.043C58.4772 55.7238 58.4637 55.4074 58.4443 55.0938ZM58.3574 54.0273C58.3539 53.9922 58.3504 53.957 58.3467 53.9219C58.3504 53.957 58.3539 53.9922 58.3574 54.0273ZM58.3223 53.709C58.3092 53.5937 58.2958 53.4788 58.2812 53.3643C58.2958 53.4788 58.3092 53.5937 58.3223 53.709ZM58.0762 52.0381C58.0533 51.9123 58.0297 51.7869 58.0049 51.6621C58.0297 51.7869 58.0533 51.9123 58.0762 52.0381ZM57.9521 51.4072C57.9333 51.3175 57.9143 51.2279 57.8945 51.1387C57.9143 51.2279 57.9333 51.3175 57.9521 51.4072ZM57.8271 50.8447C57.8062 50.756 57.7855 50.6673 57.7637 50.5791C57.7856 50.6673 57.8062 50.756 57.8271 50.8447ZM57.6953 50.3135C57.6707 50.2191 57.6458 50.125 57.6201 50.0312C57.6458 50.125 57.6707 50.2191 57.6953 50.3135ZM57.5498 49.7812C57.5216 49.683 57.4933 49.5849 57.4639 49.4873C57.4933 49.5849 57.5216 49.683 57.5498 49.7812ZM57.4121 49.3184C57.372 49.1892 57.3313 49.0606 57.2891 48.9326C57.3313 49.0606 57.372 49.1892 57.4121 49.3184ZM57.2383 48.7822C57.1987 48.6651 57.1577 48.5487 57.1162 48.4326C57.1577 48.5487 57.1986 48.6651 57.2383 48.7822ZM57.0605 48.2764C57.0191 48.1633 56.9768 48.0506 56.9336 47.9385C56.9768 48.0506 57.0191 48.1633 57.0605 48.2764ZM56.8369 47.6934C56.8064 47.6168 56.7746 47.5409 56.7432 47.4648C56.7746 47.5409 56.8064 47.6168 56.8369 47.6934ZM56.6416 47.2207C56.5962 47.1145 56.55 47.0087 56.5029 46.9033C56.55 47.0087 56.5962 47.1145 56.6416 47.2207ZM56.4365 46.7559C56.3841 46.6408 56.3308 46.5261 56.2764 46.4121C56.3308 46.5261 56.3841 46.6408 56.4365 46.7559ZM56.2148 46.2852C56.1606 46.1736 56.105 46.0627 56.0488 45.9521C56.105 46.0627 56.1606 46.1736 56.2148 46.2852ZM55.957 45.7734C55.9197 45.7016 55.8819 45.63 55.8438 45.5586C55.8819 45.63 55.9197 45.7016 55.957 45.7734ZM55.6953 45.2852C55.6431 45.1909 55.5898 45.0974 55.5361 45.0039C55.5898 45.0974 55.6431 45.1909 55.6953 45.2852ZM55.4531 44.8594C55.3823 44.7381 55.3096 44.618 55.2363 44.498C55.3096 44.618 55.3823 44.7382 55.4531 44.8594ZM55.1709 44.3896C55.0916 44.2616 55.0109 44.1343 54.9287 44.0078C55.0109 44.1343 55.0916 44.2616 55.1709 44.3896ZM54.584 43.4941C54.4933 43.3629 54.4015 43.2321 54.3076 43.1025C54.4015 43.2321 54.4933 43.3629 54.584 43.4941ZM50.793 39.3027C51.251 39.6816 51.6866 40.0805 52.0996 40.5C52.7659 41.1767 53.3801 41.8813 53.9424 42.6133C53.4927 42.0278 53.0104 41.4593 52.4941 40.9092L52.1006 40.5C51.6874 40.0804 51.2512 39.6817 50.793 39.3027ZM21.4395 42.8955C21.3867 42.9114 21.3341 42.9282 21.2812 42.9443C21.53 42.8686 21.7778 42.7948 22.0254 42.7246L21.4395 42.8955ZM23.1895 42.4141C23.1497 42.424 23.1101 42.4343 23.0703 42.4443C23.3036 42.3852 23.5363 42.3285 23.7686 42.2744L23.1895 42.4141ZM27.1973 41.6533C27.1761 41.656 27.155 41.6593 27.1338 41.6621C27.3436 41.6348 27.5528 41.609 27.7617 41.5859L27.1973 41.6533ZM29.4648 41.4443C29.256 41.4558 29.0467 41.4695 28.8369 41.4854C29.0467 41.4695 29.256 41.4558 29.4648 41.4443ZM49.4941 38.3242C49.7662 38.5108 50.0314 38.7036 50.29 38.9023C50.0314 38.7036 49.7662 38.5108 49.4941 38.3242ZM12.2002 38.3994V38.4004C12.6292 38.2171 13.0572 38.039 13.4844 37.8672L13.4854 37.8662C13.0578 38.0381 12.6295 38.216 12.2002 38.3994ZM49.2852 38.1846C49.1846 38.1176 49.0837 38.0507 48.9814 37.9854C49.0837 38.0507 49.1846 38.1176 49.2852 38.1846ZM48.8115 37.8789C48.7063 37.8132 48.6012 37.7467 48.4941 37.6826C48.6012 37.7467 48.7063 37.8132 48.8115 37.8789ZM19.0557 35.9365C17.8455 36.2874 16.6276 36.6855 15.4023 37.1318C15.19 37.2092 14.9774 37.2879 14.7646 37.3682L14.7637 37.3691C16.2048 36.8258 17.6355 36.3484 19.0557 35.9365ZM48.3125 37.5771C48.2036 37.5136 48.0941 37.4505 47.9834 37.3887C48.0941 37.4505 48.2036 37.5136 48.3125 37.5771ZM47.8018 37.2891C47.6883 37.2272 47.5743 37.1656 47.459 37.1055C47.5743 37.1656 47.6883 37.2272 47.8018 37.2891ZM47.2773 37.0127C47.1536 36.9498 47.0292 36.8871 46.9033 36.8262C47.0292 36.8871 47.1536 36.9498 47.2773 37.0127ZM46.7471 36.752C46.6185 36.691 46.4892 36.6302 46.3584 36.5713C46.4892 36.6302 46.6185 36.691 46.7471 36.752ZM46.1699 36.4883C46.0411 36.4316 45.9112 36.376 45.7803 36.3213C45.9112 36.376 46.0411 36.4317 46.1699 36.4883ZM45.6162 36.2529C45.48 36.1972 45.3426 36.1425 45.2041 36.0889C45.3426 36.1425 45.48 36.1972 45.6162 36.2529ZM45.0273 36.0215C44.8748 35.9638 44.7207 35.9078 44.5654 35.8525C44.7207 35.9078 44.8748 35.9638 45.0273 36.0215ZM44.4404 35.8086C44.3002 35.7596 44.159 35.7111 44.0166 35.6641C44.159 35.7111 44.3002 35.7596 44.4404 35.8086ZM11.5303 35.4609V35.46V35.4609ZM5.29297 35.5459V35.5469V35.5459ZM43.7666 35.583C43.6348 35.5409 43.5018 35.5004 43.3682 35.46C43.5018 35.5004 43.6348 35.5409 43.7666 35.583ZM21.0781 35.3926L21.0791 35.3916L21.0781 35.3926ZM43.1885 35.4053C43.045 35.363 42.9005 35.3216 42.7549 35.2812C42.9005 35.3216 43.045 35.363 43.1885 35.4053ZM42.5098 35.2148C42.3737 35.1784 42.2366 35.1432 42.0986 35.1084C42.2366 35.1432 42.3737 35.1784 42.5098 35.2148ZM11.2119 35.0449V35.0439V35.0449ZM5.70801 34.9863V34.9854V34.9863ZM41.875 35.0527C41.734 35.0183 41.5921 34.9849 41.4492 34.9521C41.5921 34.9849 41.734 35.0183 41.875 35.0527ZM41.1924 34.8936C41.0347 34.8588 40.8758 34.8257 40.7158 34.793C40.8758 34.8257 41.0347 34.8588 41.1924 34.8936ZM25.332 34.5332C24.7454 34.6245 24.1568 34.7271 23.5664 34.8418L24.1846 34.7266C24.5679 34.6572 24.9503 34.5926 25.332 34.5332ZM10.2314 34.3691C10.3952 34.4362 10.5491 34.5152 10.6924 34.6074C10.5967 34.5459 10.4964 34.4898 10.3916 34.4395C10.3393 34.4143 10.286 34.3905 10.2314 34.3682V34.3691ZM40.5488 34.7588C40.3853 34.7262 40.2206 34.6946 40.0547 34.6641C40.2206 34.6945 40.3853 34.7262 40.5488 34.7588ZM6.30469 34.5625V34.5615V34.5625ZM39.8135 34.6201C39.63 34.5877 39.4451 34.5572 39.2588 34.5273C39.4451 34.5572 39.63 34.5877 39.8135 34.6201ZM39.1602 34.5107C38.9587 34.479 38.7555 34.4497 38.5508 34.4209C38.7555 34.4496 38.9587 34.479 39.1602 34.5107ZM37.1201 34.2471C37.5584 34.2925 37.9897 34.3433 38.4141 34.4014C37.9897 34.3433 37.5584 34.2925 37.1201 34.2471ZM7.08105 34.2744V34.2754V34.2744ZM9.70801 34.2051V34.2041V34.2051ZM35.501 34.1094C35.9713 34.1406 36.4342 34.178 36.8896 34.2227C36.4342 34.178 35.9713 34.1406 35.501 34.1094ZM8.7002 34.0996C8.54595 34.0996 8.39656 34.104 8.25195 34.1113C8.39649 34.104 8.54602 34.0996 8.7002 34.0996ZM8.91504 34.1045C8.84455 34.1017 8.77295 34.0996 8.7002 34.0996C8.77295 34.0996 8.84455 34.1017 8.91504 34.1045ZM32.0996 34C33.225 34 34.3138 34.0328 35.3652 34.0996C34.5786 34.0497 33.7713 34.0184 32.9434 34.0059L32.1006 34H32.0996ZM51.0322 57.2412C51.0373 57.187 51.0433 57.1327 51.0479 57.0781C51.0433 57.1327 51.0373 57.187 51.0322 57.2412ZM58.4404 55.0449C58.4293 54.8703 58.4176 54.6964 58.4033 54.5234C58.4176 54.6964 58.4293 54.8703 58.4404 55.0449ZM58.25 53.1289C58.2328 53.0028 58.2153 52.8771 58.1963 52.752C58.2153 52.8771 58.2328 53.0028 58.25 53.1289ZM58.1836 52.6719C58.1582 52.5086 58.131 52.3462 58.1025 52.1846C58.131 52.3462 58.1582 52.5086 58.1836 52.6719ZM54.876 43.9277C54.7911 43.7984 54.705 43.6698 54.6172 43.542C54.705 43.6698 54.7911 43.7984 54.876 43.9277ZM54.25 43.0234C54.1505 42.8874 54.0493 42.7523 53.9463 42.6182C54.0493 42.7523 54.1505 42.8874 54.25 43.0234ZM50.793 39.3027C50.6669 39.1985 50.5396 39.0953 50.4102 38.9941C50.5396 39.0953 50.6669 39.1985 50.793 39.3027Z" fill="#f46482"/>
<path d="M146.165 23.3219C148.045 30.1312 153.356 35.8083 160.661 37.8231C166.566 39.4516 172.578 38.3569 177.363 35.2988C175.482 28.49 170.172 22.8126 162.867 20.7979C156.962 19.1694 150.949 20.2637 146.165 23.3219Z" fill="url(#paint0_linear_28396_38262)"/>
<path d="M183.12 41.2855L178.649 36.7747L177.372 35.5884C172.568 31.1272 166.022 29.0448 159.523 29.9102" stroke="#348E2B" stroke-width="2" stroke-linecap="round"/>
<defs>
<linearGradient id="paint0_linear_28396_38262" x1="164.024" y1="21.1168" x2="159.504" y2="37.504" gradientUnits="userSpaceOnUse">
<stop stop-color="#10B981"/>
<stop offset="1" stop-color="#A3E635"/>
</linearGradient>
</defs>
</svg>
