<svg width="810" height="255" viewBox="0 0 810 255" fill="none" xmlns="http://www.w3.org/2000/svg">
<path d="M237.488 50.9003C238.446 55.3053 237.54 59.4095 233.831 61.5443C232.951 62.0507 230.898 62.1996 229.853 62.4267C228.808 62.6539 226.508 63.4513 225.498 63.3558C221.237 62.9533 218.709 59.5956 217.751 55.1905C216.794 50.7854 216.993 47.3067 220.702 45.1719C223.424 43.6052 224.724 44.7567 225.768 44.5296C226.813 44.3025 227.934 42.8685 230.278 43.09C234.539 43.4924 236.53 46.4952 237.488 50.9003Z" fill="#DB4533"/>
<path d="M217.859 41.2385C217.652 43.6439 221.664 47.4941 225.25 45.9896C224.93 42.4139 220.079 40.2854 217.859 41.2385Z" fill="#69AF24"/>
<path d="M231.646 37.5232C229.241 37.3159 225.391 41.3282 226.895 44.9136C230.471 44.5943 232.599 39.7428 231.646 37.5232Z" fill="#69AF24"/>
<path d="M226.888 42.4152C227.035 41.7745 226.634 41.1366 225.993 40.9904C225.352 40.8442 224.714 41.2451 224.568 41.8859L225.728 42.1506L226.888 42.4152ZM225.728 42.1506L224.568 41.8859C224.432 42.4832 224.315 43.1323 224.358 43.8514C224.403 44.5855 224.608 45.3235 225.022 46.1347L226.082 45.5943L227.142 45.0539C226.856 44.4922 226.756 44.0714 226.734 43.7084C226.711 43.3303 226.768 42.944 226.888 42.4152L225.728 42.1506Z" fill="#795231"/>
<path d="M22.0402 164.43C20.8735 168.785 18.1882 172.018 13.9133 172.217C12.8993 172.264 11.0061 171.456 9.9732 171.179C8.94034 170.902 6.53064 170.557 5.67605 170.009C2.07316 167.7 1.36418 163.557 2.53087 159.203C3.69757 154.848 5.46866 151.848 9.74357 151.649C12.8804 151.503 13.5081 153.122 14.541 153.399C15.5738 153.676 17.2265 152.914 19.2093 154.185C22.8122 156.495 23.2069 160.076 22.0402 164.43Z" fill="#DB4533"/>
<path d="M9.01688 146.854C7.73073 148.897 9.5336 154.158 13.4101 154.463C14.7641 151.138 11.4265 147.024 9.01688 146.854Z" fill="#69AF24"/>
<path d="M22.9721 149.865C20.9288 148.578 15.6682 150.381 15.3632 154.257C18.688 155.612 22.8025 152.274 22.9721 149.865Z" fill="#69AF24"/>
<path d="M16.499 152.033C16.9225 151.531 16.8583 150.78 16.3557 150.356C15.8531 149.933 15.1024 149.997 14.6789 150.5L15.589 151.266L16.499 152.033ZM15.589 151.266L14.6789 150.5C14.2842 150.968 13.8831 151.492 13.5922 152.151C13.2952 152.824 13.1398 153.574 13.1357 154.484L14.3257 154.49L15.5157 154.495C15.5185 153.864 15.6226 153.445 15.7695 153.112C15.9224 152.766 16.1495 152.448 16.499 152.033L15.589 151.266Z" fill="#795231"/>
<path d="M224.684 233.532C240.907 235.007 246.929 241.031 247.913 243.859C214.237 243.367 143.198 243.49 128.45 243.49C110.014 243.49 114.807 230.95 107.802 225.418C100.796 219.885 78.6733 243.858 63.9248 218.41C49.1763 192.962 78.3046 183.003 94.8967 183.741C111.489 184.479 118.863 210.665 130.293 211.402C141.723 212.14 136.561 197.019 152.785 197.019C169.008 197.019 169.008 204.395 176.382 208.452C183.757 212.509 184.494 205.502 198.874 209.927C213.254 214.353 204.404 231.688 224.684 233.532Z" fill="#F8FAFC"/>
<path d="M45.2666 193.682C40.5904 195.023 40.5983 200.684 43.9189 201.767C46.0601 202.465 47.6163 202.462 49.5115 201.025C51.8805 199.229 51.1119 192.005 45.2666 193.682Z" fill="#F8FAFC"/>
<path d="M27.5912 193.936C25.1405 196.368 27.7716 197.593 29.351 198.187C30.7049 198.696 31.411 198.379 32.1596 196.858C33.0954 194.957 30.6545 190.896 27.5912 193.936Z" fill="#F8FAFC"/>
<path d="M234.214 154.867C235.088 154.867 236.087 155.042 236.887 155.709C237.751 156.43 238.049 157.436 238.049 158.371C238.049 172.013 238.159 182.205 238.379 188.96V188.969L238.933 208.8V208.826C238.933 211.482 239.1 215.644 239.438 221.336L239.593 223.869L239.595 223.896L240.195 236.304H247.045C248.001 236.304 248.969 236.668 249.617 237.566C250.186 238.354 250.326 239.309 250.326 240.14C250.326 240.961 250.171 241.77 249.8 242.514L249.769 242.576L249.732 242.638C249.196 243.531 248.321 244.03 247.324 244.081L246.642 244.178L246.513 244.196H245.53C243.917 244.271 240.906 244.308 236.536 244.308C235.406 244.308 234.466 243.788 233.793 242.98L233.729 242.904L233.675 242.822C233.133 242.009 232.923 241.077 232.923 240.14V235.714C232.923 231.114 232.741 225.916 232.374 220.118L232.372 220.09C232.076 213.876 231.928 208.607 231.928 204.29C231.928 200.343 231.744 192.67 231.376 181.243L231.221 177.49C230.882 169.017 230.711 162.529 230.711 158.039C230.711 157.096 231.126 156.259 231.875 155.689C232.541 155.166 233.337 154.867 234.214 154.867ZM234.214 156.711C233.771 156.711 233.366 156.858 232.997 157.153C232.702 157.375 232.555 157.67 232.555 158.039L232.564 160.07C232.613 165.097 232.831 172.128 233.218 181.164C233.586 192.598 233.771 200.307 233.771 204.29L233.778 205.938C233.811 209.892 233.956 214.58 234.214 220.002C234.583 225.829 234.767 231.067 234.767 235.714V240.14L234.773 240.383C234.806 240.94 234.951 241.412 235.209 241.8C235.531 242.187 235.911 242.405 236.346 242.453L236.536 242.464C237.61 242.464 238.599 242.46 239.503 242.456C238.602 242.46 237.617 242.463 236.548 242.463C236.032 242.463 235.589 242.241 235.221 241.799C234.926 241.356 234.778 240.803 234.778 240.14V235.714C234.778 231.067 234.594 225.829 234.226 220.002C233.931 213.806 233.782 208.567 233.782 204.289C233.782 200.306 233.598 192.597 233.229 181.164C232.787 170.837 232.565 163.128 232.565 158.038C232.566 157.669 232.714 157.375 233.009 157.153C233.376 156.859 233.78 156.712 234.221 156.711H234.214Z" fill="#F68C9E"/>
<path d="M222.88 168.046C223.408 168.361 223.923 168.91 224.366 169.425C224.857 169.997 225.439 170.749 226.103 171.662L227.96 174.218L227.992 174.27C228.553 175.16 229.322 176.28 230.307 177.635C230.818 178.338 231.165 179.18 231.148 180.123C231.197 181.266 230.604 182.161 229.818 182.732C229.198 183.183 228.487 183.457 227.716 183.525C226.621 183.622 225.658 183.155 225.031 182.293C224.723 181.869 224.453 181.443 224.241 181.017L223.085 179.428C218.238 183.025 209.479 189.981 196.78 200.326C184.237 210.543 175.069 217.761 169.299 221.957L166.737 223.82L166.676 223.857C166.395 224.03 166.114 224.212 165.831 224.398L167.061 226.092C167.634 226.88 168.135 227.804 168.216 228.797C168.312 229.964 167.811 230.973 166.898 231.637C166.109 232.211 165.193 232.37 164.331 232.319L164.33 232.321C163.469 232.281 162.526 231.957 161.891 231.083L158.356 226.22L158.335 226.188C157.374 224.742 156.097 222.922 154.5 220.726C153.914 219.919 153.691 218.983 153.754 218.031L153.76 217.947L153.772 217.865C153.915 216.96 154.345 216.096 155.168 215.498C155.909 214.959 156.879 214.656 157.927 214.968C158.862 215.247 159.536 215.927 160.012 216.582L161.462 218.576C168.024 213.762 176.004 207.642 185.405 200.214L185.414 200.206L185.421 200.201C193.594 193.892 199.97 188.891 204.553 185.195L204.603 185.154L204.655 185.118L209.283 181.889L215.159 177.616C217.03 176.255 218.413 175.212 219.345 174.469L218.071 172.716C217.569 172.026 217.317 171.113 217.638 170.149C217.915 169.32 218.529 168.734 219.079 168.334C220.159 167.549 221.427 167.436 222.627 167.92L222.758 167.975L222.88 168.046ZM159.076 223.991L159.87 225.167L163.382 229.999L163.47 230.105C163.687 230.335 164.003 230.46 164.415 230.479C164.556 230.489 164.69 230.487 164.817 230.478C164.69 230.487 164.555 230.487 164.415 230.478C163.944 230.456 163.6 230.296 163.383 229.998L159.871 225.165C159.525 224.645 159.138 224.08 158.715 223.469C158.838 223.647 158.96 223.821 159.076 223.991ZM165.038 230.453C165.087 230.445 165.135 230.436 165.182 230.425C165.135 230.436 165.087 230.445 165.038 230.453ZM165.376 230.371C165.42 230.355 165.462 230.338 165.504 230.32C165.462 230.338 165.42 230.356 165.376 230.371ZM166.075 229.908C166.001 229.992 165.915 230.071 165.814 230.144C165.727 230.208 165.632 230.262 165.532 230.308C165.581 230.286 165.629 230.263 165.674 230.237L165.815 230.146C165.915 230.072 166.001 229.993 166.075 229.908ZM166.126 229.845C166.143 229.822 166.161 229.8 166.177 229.777C166.161 229.8 166.143 229.822 166.126 229.845ZM166.216 229.712C166.231 229.686 166.245 229.661 166.258 229.635C166.245 229.661 166.231 229.687 166.216 229.712ZM166.287 229.568C166.299 229.54 166.311 229.513 166.32 229.484C166.311 229.513 166.299 229.54 166.287 229.568ZM166.338 229.421C166.346 229.391 166.355 229.36 166.361 229.329C166.355 229.36 166.346 229.391 166.338 229.421ZM166.373 229.25C166.376 229.224 166.378 229.198 166.38 229.172C166.378 229.198 166.376 229.224 166.373 229.25ZM166.383 229.071C166.383 229.05 166.382 229.028 166.381 229.007C166.382 229.028 166.383 229.05 166.383 229.071ZM166.373 228.893C166.37 228.868 166.365 228.844 166.361 228.818C166.365 228.844 166.37 228.868 166.373 228.893ZM166.345 228.719C166.338 228.687 166.33 228.655 166.322 228.622C166.33 228.655 166.338 228.687 166.345 228.719ZM166.293 228.516C166.285 228.489 166.275 228.463 166.266 228.437C166.275 228.463 166.285 228.489 166.293 228.516ZM166.225 228.322C166.212 228.287 166.197 228.252 166.182 228.216C166.197 228.252 166.212 228.287 166.225 228.322ZM166.131 228.1C166.125 228.087 166.118 228.075 166.112 228.062C166.118 228.075 166.125 228.087 166.131 228.1ZM155.744 217.627C155.674 217.784 155.624 217.959 155.594 218.153C155.556 218.727 155.688 219.224 155.991 219.642C156.496 220.336 156.969 220.994 157.412 221.616C156.969 220.994 156.497 220.335 155.992 219.641C155.689 219.223 155.556 218.727 155.594 218.152C155.625 217.959 155.675 217.783 155.744 217.626L155.744 217.627ZM168.215 220.464L165.71 222.286C164.967 222.744 164.219 223.245 163.462 223.787C164.218 223.245 164.967 222.745 165.71 222.287L168.215 220.466C168.408 220.325 168.604 220.178 168.806 220.031C168.604 220.178 168.408 220.324 168.215 220.464ZM155.909 217.335C156.004 217.202 156.119 217.086 156.253 216.989C156.3 216.955 156.346 216.923 156.393 216.895C156.346 216.923 156.3 216.955 156.253 216.99C156.163 217.055 156.082 217.128 156.009 217.209L155.909 217.335ZM156.527 216.822C156.516 216.828 156.505 216.834 156.494 216.84C156.505 216.834 156.516 216.828 156.527 216.822ZM156.678 216.759C156.651 216.768 156.625 216.779 156.598 216.79C156.625 216.779 156.651 216.768 156.678 216.759ZM156.803 216.721C156.782 216.726 156.761 216.733 156.74 216.739C156.761 216.733 156.782 216.726 156.803 216.721ZM156.946 216.696C156.929 216.698 156.913 216.7 156.897 216.703C156.913 216.7 156.929 216.698 156.946 216.696ZM157.088 216.688C157.066 216.688 157.043 216.689 157.02 216.69C157.043 216.689 157.066 216.688 157.088 216.688ZM157.226 216.698C157.203 216.695 157.181 216.693 157.158 216.691C157.181 216.693 157.203 216.695 157.226 216.698ZM157.355 216.724C157.338 216.719 157.321 216.716 157.304 216.712C157.321 216.716 157.338 216.719 157.355 216.724ZM157.484 216.765C157.47 216.76 157.457 216.754 157.443 216.75C157.457 216.754 157.47 216.76 157.484 216.765ZM157.618 216.823C157.606 216.817 157.595 216.811 157.584 216.806C157.595 216.811 157.606 216.817 157.618 216.823ZM157.751 216.898C157.739 216.89 157.728 216.883 157.716 216.876C157.728 216.883 157.739 216.89 157.751 216.898ZM169.866 219.248C170.047 219.113 170.232 218.976 170.42 218.836C170.232 218.976 170.047 219.113 169.866 219.248ZM172.263 217.446C172.406 217.338 172.551 217.228 172.697 217.117C172.551 217.228 172.406 217.338 172.263 217.446ZM173.762 216.3C174.413 215.801 175.089 215.281 175.789 214.738C175.089 215.281 174.413 215.801 173.762 216.3ZM176.672 214.051C177.318 213.548 177.984 213.027 178.669 212.489C177.984 213.027 177.318 213.548 176.672 214.051ZM179.9 211.521C180.709 210.883 181.543 210.223 182.404 209.539C181.543 210.223 180.709 210.883 179.9 211.521ZM183.335 208.799C184.178 208.127 185.045 207.434 185.936 206.72C185.045 207.434 184.178 208.127 183.335 208.799ZM203.334 192.636C200.946 194.565 198.372 196.65 195.616 198.895C192.597 201.355 189.774 203.638 187.149 205.747C188.411 204.733 189.72 203.68 191.073 202.586L195.616 198.896C198.372 196.65 200.946 194.565 203.334 192.636ZM224.4 178.099C223.967 177.502 223.647 177.188 223.441 177.155L222.953 177.236C221.651 178.183 220.001 179.431 218.001 180.979C219.554 179.777 220.895 178.756 222.027 177.917L222.952 177.237L223.44 177.157C223.646 177.189 223.966 177.503 224.4 178.099L225.831 180.069C225.867 180.148 225.908 180.228 225.952 180.312C225.908 180.228 225.868 180.147 225.831 180.068L225.05 178.994L224.4 178.099ZM226.742 181.444C226.777 181.474 226.812 181.5 226.849 181.524C226.812 181.5 226.777 181.474 226.742 181.444ZM226.853 181.526C226.887 181.548 226.922 181.567 226.958 181.585C226.922 181.567 226.887 181.548 226.853 181.526ZM226.128 180.619C226.184 180.71 226.243 180.805 226.308 180.901L226.521 181.208C226.585 181.295 226.655 181.369 226.728 181.433C226.655 181.369 226.586 181.294 226.522 181.207C226.373 181.001 226.242 180.805 226.128 180.619ZM226.992 181.601C227.023 181.615 227.054 181.627 227.086 181.637C227.054 181.627 227.023 181.615 226.992 181.601ZM228.012 181.599C227.864 181.643 227.712 181.673 227.555 181.687C227.398 181.701 227.252 181.687 227.117 181.648C227.206 181.674 227.299 181.69 227.398 181.693L227.555 181.688C227.712 181.674 227.864 181.643 228.012 181.599ZM225.983 180.368C226.023 180.441 226.066 180.514 226.111 180.589C226.066 180.514 226.023 180.441 225.983 180.368ZM228.734 181.24C228.519 181.396 228.292 181.512 228.051 181.588C228.241 181.527 228.424 181.444 228.598 181.333L228.734 181.24C228.786 181.202 228.835 181.164 228.88 181.124L228.88 181.123C228.835 181.163 228.786 181.202 228.734 181.24ZM229.107 180.871C229.199 180.74 229.26 180.601 229.289 180.452L229.25 180.597C229.217 180.693 229.169 180.783 229.107 180.871ZM229.303 180.065C229.303 180.036 229.304 180.007 229.302 179.978C229.304 180.007 229.303 180.036 229.303 180.065ZM229.298 179.907C229.295 179.876 229.292 179.845 229.288 179.814C229.292 179.845 229.295 179.876 229.298 179.907ZM219.386 171.296C219.41 171.371 219.443 171.445 219.487 171.52L219.561 171.632L221.838 174.763L221.839 174.763L219.562 171.631C219.481 171.52 219.422 171.408 219.386 171.296ZM229.269 179.7C229.265 179.684 229.262 179.668 229.258 179.651C229.262 179.668 229.265 179.684 229.269 179.7ZM229.236 179.558C229.229 179.534 229.222 179.511 229.214 179.487C229.222 179.511 229.229 179.534 229.236 179.558ZM229.177 179.377C229.173 179.366 229.168 179.355 229.164 179.345C229.168 179.355 229.173 179.366 229.177 179.377ZM229.11 179.215C229.106 179.207 229.102 179.198 229.097 179.189C229.102 179.198 229.106 179.207 229.11 179.215ZM219.341 171.066C219.343 171.101 219.348 171.136 219.354 171.171C219.348 171.136 219.343 171.101 219.341 171.066ZM219.357 170.843C219.372 170.77 219.396 170.697 219.43 170.625C219.396 170.697 219.372 170.77 219.357 170.843ZM219.489 170.512C219.473 170.539 219.459 170.567 219.446 170.594C219.459 170.567 219.473 170.539 219.489 170.512ZM219.56 170.405C219.54 170.433 219.521 170.461 219.503 170.489C219.521 170.461 219.54 170.433 219.56 170.405ZM219.641 170.3C219.62 170.325 219.599 170.351 219.58 170.376C219.599 170.351 219.62 170.325 219.641 170.3ZM219.743 170.186C219.718 170.211 219.695 170.236 219.673 170.261C219.695 170.236 219.718 170.211 219.743 170.186ZM219.811 170.118C219.798 170.131 219.784 170.144 219.77 170.157C219.784 170.144 219.798 170.131 219.811 170.118ZM220.52 169.621C220.441 169.656 220.362 169.699 220.285 169.747C220.362 169.699 220.441 169.656 220.52 169.621ZM164.843 230.476C164.9 230.472 164.956 230.466 165.01 230.458C164.956 230.466 164.9 230.472 164.843 230.476ZM165.208 230.419C165.259 230.406 165.309 230.392 165.358 230.376C165.309 230.392 165.259 230.406 165.208 230.419ZM219.358 171.191C219.365 171.223 219.373 171.255 219.383 171.288C219.373 171.255 219.365 171.223 219.358 171.191ZM219.341 170.97C219.34 171.002 219.339 171.034 219.341 171.066C219.339 171.034 219.34 171.002 219.341 170.97ZM219.356 170.851C219.35 170.884 219.345 170.917 219.342 170.95C219.345 170.917 219.35 170.884 219.356 170.851Z" fill="#F68C9E"/>
<path d="M269.759 120.659C266.881 114.528 264.55 111.833 258.898 108.34C261.604 98.9922 265.058 95.7643 272.888 91.7422C282.459 100.64 279.146 119.29 269.759 120.659Z" fill="#313131"/>
<path d="M272.433 90.9955C272.792 90.8111 273.239 90.8696 273.529 91.1392C278.573 95.8278 280.166 103.009 279.337 109.133C278.92 112.205 277.888 115.076 276.312 117.289C274.736 119.503 272.567 121.116 269.892 121.506C269.478 121.567 269.073 121.36 268.906 121.003C267.482 117.97 266.22 115.843 264.647 114.053C263.077 112.267 261.163 110.774 258.379 109.054C258.05 108.85 257.898 108.474 258 108.119C259.371 103.385 260.955 100.113 263.25 97.5042C265.542 94.8991 268.486 93.0234 272.433 90.9955ZM272.705 92.8141C269.152 94.6779 266.631 96.3634 264.674 98.5876C262.698 100.834 261.244 103.692 259.953 107.976C262.538 109.614 264.457 111.133 266.072 112.971C267.676 114.797 268.948 116.902 270.287 119.678C272.022 119.23 273.55 118.068 274.777 116.345C276.164 114.398 277.121 111.792 277.51 108.919C278.263 103.358 276.862 97.0329 272.705 92.8141Z" fill="#3A3A3B"/>
<path d="M260.738 84.5555C247.972 84.8253 246.566 91.9131 252.455 104.404C245.093 103.036 237.99 103.287 232.208 101.178C227.059 98.7257 225.51 98.6683 227.791 103.549C231.86 109.958 241.293 116.58 255.217 127.162C283.196 148.208 269.575 188.248 226.319 188.248C210.856 188.761 198.471 180.125 180.485 172.163C175.269 169.855 172.302 170.34 168.703 171.65C163.918 143.76 191.161 119.805 226.319 128.189C207.239 113.958 201.609 104.585 203.495 84.5555C207.728 51.7039 260.738 55.6394 260.738 84.5555Z" fill="#FF9CAC"/>
<path d="M233.012 154.451C233.521 153.633 234.646 153.353 235.527 153.825C240.334 156.405 243.113 160.016 243.952 163.852C244.787 167.673 243.655 171.546 240.998 174.547C235.597 180.645 224.435 182.794 211.046 175.609C210.165 175.136 209.864 174.09 210.372 173.272C210.88 172.454 212.006 172.173 212.886 172.646C225.267 179.29 234.26 176.771 238.156 172.372C240.146 170.125 240.947 167.292 240.344 164.534C239.745 161.792 237.715 158.95 233.686 156.789C232.806 156.316 232.504 155.27 233.012 154.451Z" fill="#F68C9E"/>
<path d="M215.642 147.439C215.641 147.439 215.641 147.439 215.641 149.322V147.439C214.522 147.44 213.616 148.282 213.616 149.322C213.616 150.296 214.413 151.097 215.433 151.194L215.641 151.204H215.681C215.711 151.204 215.757 151.204 215.819 151.205C215.942 151.207 216.127 151.209 216.364 151.215C216.838 151.227 217.52 151.25 218.342 151.297C219.992 151.39 222.173 151.577 224.344 151.944C226.547 152.316 228.594 152.85 230.062 153.58C231.567 154.328 231.993 155.025 232.026 155.586C232.055 156.062 231.776 156.723 230.303 157.525C228.871 158.305 226.806 158.918 224.551 159.375C222.331 159.824 220.08 160.093 218.371 160.25C217.519 160.328 216.81 160.376 216.316 160.406C216.07 160.421 215.877 160.431 215.748 160.437C215.684 160.44 215.635 160.442 215.604 160.443C215.588 160.444 215.576 160.445 215.569 160.445H215.561C214.452 160.485 213.585 161.348 213.617 162.38C213.649 163.411 214.568 164.226 215.677 164.207C215.679 164.207 215.683 164.208 215.689 164.208C215.701 164.208 215.723 164.207 215.753 164.207C215.812 164.207 215.905 164.208 216.027 164.21C216.27 164.215 216.626 164.227 217.058 164.257C217.931 164.316 219.074 164.443 220.214 164.708C221.374 164.977 222.405 165.36 223.145 165.865C223.845 166.342 224.22 166.874 224.316 167.537C224.345 167.741 224.305 168.192 223.156 168.9C222.044 169.584 220.381 170.174 218.514 170.648C216.683 171.114 214.81 171.433 213.381 171.635C212.67 171.736 212.077 171.807 211.664 171.852C211.458 171.875 211.297 171.891 211.19 171.902C211.136 171.907 211.096 171.911 211.07 171.913C211.057 171.914 211.047 171.915 211.042 171.916C211.039 171.916 211.037 171.916 211.036 171.916C209.923 172.012 209.103 172.929 209.207 173.964C209.31 174.999 210.297 175.76 211.411 175.664L211.223 173.79C211.403 175.593 211.411 175.661 211.411 175.664H211.413C211.414 175.664 211.415 175.663 211.416 175.663C211.419 175.663 211.423 175.663 211.428 175.663C211.437 175.662 211.451 175.661 211.467 175.659C211.501 175.656 211.55 175.651 211.612 175.645C211.736 175.633 211.915 175.615 212.14 175.59C212.59 175.541 213.229 175.464 213.991 175.356C215.508 175.142 217.548 174.797 219.584 174.279C221.584 173.77 223.741 173.055 225.392 172.039C227.004 171.046 228.668 169.402 228.329 167.039C228.07 165.235 227.028 163.909 225.753 162.98C228.047 162.497 230.46 161.803 232.351 160.774C234.295 159.715 236.225 157.981 236.069 155.377C235.919 152.858 233.952 151.245 231.971 150.261C229.953 149.258 227.422 148.637 225.068 148.24C222.684 147.837 220.332 147.638 218.589 147.539C217.713 147.489 216.983 147.465 216.47 147.452C216.213 147.446 216.009 147.442 215.868 147.441C215.798 147.44 215.743 147.44 215.705 147.439H215.642Z" fill="#F8DFDF"/>
<path d="M260.736 84.5566C248.222 85.0699 246.382 91.4005 252.637 104.575L258.898 108.339C261.433 99.5253 264.464 95.8852 272.888 91.7427L260.736 84.5566Z" fill="white"/>
<path d="M260.827 83.7078C260.967 83.722 261.102 83.7655 261.221 83.8361L273.372 91.0221C273.648 91.1856 273.811 91.4736 273.798 91.778C273.785 92.0824 273.598 92.3573 273.309 92.4998C269.151 94.5445 266.414 96.4226 264.4 98.8176C262.383 101.215 261.032 104.201 259.778 108.561C259.702 108.826 259.494 109.04 259.22 109.139C258.945 109.237 258.636 109.207 258.389 109.058L252.128 105.294C251.977 105.204 251.858 105.074 251.786 104.921C250.207 101.597 249.121 98.6663 248.591 96.1255C248.062 93.5895 248.075 91.3791 248.77 89.5364C250.208 85.7242 254.329 83.9639 260.686 83.7031L260.827 83.7078ZM260.481 85.4261C254.515 85.718 251.538 87.3708 250.507 90.1025C249.96 91.5532 249.903 93.4279 250.398 95.8C250.88 98.1108 251.872 100.834 253.36 103.997L258.337 106.99C259.535 103.109 260.905 100.194 262.95 97.7636C264.941 95.3963 267.525 93.5433 271.069 91.6877L260.481 85.4261Z" fill="#3A3A3B"/>
<path d="M248.625 85.0326C248.625 87.5744 246.565 89.6354 244.024 89.6354C241.482 89.6354 239.422 87.5744 239.422 85.0326C239.422 82.4907 241.482 80.4297 244.024 80.4297C246.565 80.4297 248.625 82.4907 248.625 85.0326Z" fill="white"/>
<path d="M245.677 88.6237C246.693 88.6237 247.517 87.7994 247.517 86.7826C247.517 85.7657 246.693 84.9414 245.677 84.9414C244.66 84.9414 243.836 85.7657 243.836 86.7826C243.836 87.7994 244.66 88.6237 245.677 88.6237Z" fill="#4B454C"/>
<path d="M234.214 154.867C235.088 154.867 236.087 155.042 236.887 155.709C237.751 156.43 238.049 157.436 238.049 158.371C238.049 172.013 238.159 182.205 238.379 188.96V188.969L238.933 208.8V208.826C238.933 211.482 239.1 215.644 239.438 221.336L239.593 223.869L239.595 223.896L240.195 236.304H247.045C248.001 236.304 248.969 236.668 249.617 237.566C250.186 238.354 250.326 239.309 250.326 240.14C250.326 240.961 250.171 241.77 249.8 242.514L249.769 242.576L249.732 242.638C249.196 243.531 248.321 244.03 247.324 244.081L246.642 244.178L246.513 244.196H245.53C243.917 244.271 240.906 244.308 236.536 244.308C235.406 244.308 234.466 243.788 233.793 242.98L233.729 242.904L233.675 242.822C233.133 242.009 232.923 241.077 232.923 240.14V235.714C232.923 231.114 232.741 225.916 232.374 220.118L232.372 220.09C232.076 213.876 231.928 208.607 231.928 204.29C231.928 200.343 231.744 192.67 231.376 181.243L231.221 177.49C230.882 169.017 230.711 162.529 230.711 158.039C230.711 157.096 231.126 156.259 231.875 155.689C232.541 155.166 233.337 154.867 234.214 154.867ZM234.214 156.711C233.771 156.711 233.366 156.858 232.997 157.153C232.702 157.375 232.555 157.67 232.555 158.039L232.564 160.07C232.613 165.097 232.831 172.128 233.218 181.164C233.586 192.598 233.771 200.307 233.771 204.29L233.778 205.938C233.811 209.892 233.956 214.58 234.214 220.002C234.583 225.829 234.767 231.067 234.767 235.714V240.14L234.773 240.383C234.806 240.94 234.951 241.412 235.209 241.8C235.531 242.187 235.911 242.405 236.346 242.453L236.536 242.464C237.61 242.464 238.599 242.46 239.503 242.456C238.602 242.46 237.617 242.463 236.548 242.463C236.032 242.463 235.589 242.241 235.221 241.799C234.926 241.356 234.778 240.803 234.778 240.14V235.714C234.778 231.067 234.594 225.829 234.226 220.002C233.931 213.806 233.782 208.567 233.782 204.289C233.782 200.306 233.598 192.597 233.229 181.164C232.787 170.837 232.565 163.128 232.565 158.038C232.566 157.669 232.714 157.375 233.009 157.153C233.376 156.859 233.78 156.712 234.221 156.711H234.214Z" fill="#F68C9E"/>
<path d="M222.88 168.046C223.408 168.361 223.923 168.91 224.366 169.425C224.857 169.997 225.439 170.749 226.103 171.662L227.96 174.218L227.992 174.27C228.553 175.16 229.322 176.28 230.307 177.635C230.818 178.338 231.165 179.18 231.148 180.123C231.197 181.266 230.604 182.161 229.818 182.732C229.198 183.183 228.487 183.457 227.716 183.525C226.621 183.622 225.658 183.155 225.031 182.293C224.723 181.869 224.453 181.443 224.241 181.017L223.085 179.428C218.238 183.025 209.479 189.981 196.78 200.326C184.237 210.543 175.069 217.761 169.299 221.957L166.737 223.82L166.676 223.857C166.395 224.03 166.114 224.212 165.831 224.398L167.061 226.092C167.634 226.88 168.135 227.804 168.216 228.797C168.312 229.964 167.811 230.973 166.898 231.637C166.109 232.211 165.193 232.37 164.331 232.319L164.33 232.321C163.469 232.281 162.526 231.957 161.891 231.083L158.356 226.22L158.335 226.188C157.374 224.742 156.097 222.922 154.5 220.726C153.914 219.919 153.691 218.983 153.754 218.031L153.76 217.947L153.772 217.865C153.915 216.96 154.345 216.096 155.168 215.498C155.909 214.959 156.879 214.656 157.927 214.968C158.862 215.247 159.536 215.927 160.012 216.582L161.462 218.576C168.024 213.762 176.004 207.642 185.405 200.214L185.414 200.206L185.421 200.201C193.594 193.892 199.97 188.891 204.553 185.195L204.603 185.154L204.655 185.118L209.283 181.889L215.159 177.616C217.03 176.255 218.413 175.212 219.345 174.469L218.071 172.716C217.569 172.026 217.317 171.113 217.638 170.149C217.915 169.32 218.529 168.734 219.079 168.334C220.159 167.549 221.427 167.436 222.627 167.92L222.758 167.975L222.88 168.046ZM159.076 223.991L159.87 225.167L163.382 229.999L163.47 230.105C163.687 230.335 164.003 230.46 164.415 230.479C164.556 230.489 164.69 230.487 164.817 230.478C164.69 230.487 164.555 230.487 164.415 230.478C163.944 230.456 163.6 230.296 163.383 229.998L159.871 225.165C159.525 224.645 159.138 224.08 158.715 223.469C158.838 223.647 158.96 223.821 159.076 223.991ZM165.038 230.453C165.087 230.445 165.135 230.436 165.182 230.425C165.135 230.436 165.087 230.445 165.038 230.453ZM165.376 230.371C165.42 230.355 165.462 230.338 165.504 230.32C165.462 230.338 165.42 230.356 165.376 230.371ZM166.075 229.908C166.001 229.992 165.915 230.071 165.814 230.144C165.727 230.208 165.632 230.262 165.532 230.308C165.581 230.286 165.629 230.263 165.674 230.237L165.815 230.146C165.915 230.072 166.001 229.993 166.075 229.908ZM166.126 229.845C166.143 229.822 166.161 229.8 166.177 229.777C166.161 229.8 166.143 229.822 166.126 229.845ZM166.216 229.712C166.231 229.686 166.245 229.661 166.258 229.635C166.245 229.661 166.231 229.687 166.216 229.712ZM166.287 229.568C166.299 229.54 166.311 229.513 166.32 229.484C166.311 229.513 166.299 229.54 166.287 229.568ZM166.338 229.421C166.346 229.391 166.355 229.36 166.361 229.329C166.355 229.36 166.346 229.391 166.338 229.421ZM166.373 229.25C166.376 229.224 166.378 229.198 166.38 229.172C166.378 229.198 166.376 229.224 166.373 229.25ZM166.383 229.071C166.383 229.05 166.382 229.028 166.381 229.007C166.382 229.028 166.383 229.05 166.383 229.071ZM166.373 228.893C166.37 228.868 166.365 228.844 166.361 228.818C166.365 228.844 166.37 228.868 166.373 228.893ZM166.345 228.719C166.338 228.687 166.33 228.655 166.322 228.622C166.33 228.655 166.338 228.687 166.345 228.719ZM166.293 228.516C166.285 228.489 166.275 228.463 166.266 228.437C166.275 228.463 166.285 228.489 166.293 228.516ZM166.225 228.322C166.212 228.287 166.197 228.252 166.182 228.216C166.197 228.252 166.212 228.287 166.225 228.322ZM166.131 228.1C166.125 228.087 166.118 228.075 166.112 228.062C166.118 228.075 166.125 228.087 166.131 228.1ZM155.744 217.627C155.674 217.784 155.624 217.959 155.594 218.153C155.556 218.727 155.688 219.224 155.991 219.642C156.496 220.336 156.969 220.994 157.412 221.616C156.969 220.994 156.497 220.335 155.992 219.641C155.689 219.223 155.556 218.727 155.594 218.152C155.625 217.959 155.675 217.783 155.744 217.626L155.744 217.627ZM168.215 220.464L165.71 222.286C164.967 222.744 164.219 223.245 163.462 223.787C164.218 223.245 164.967 222.745 165.71 222.287L168.215 220.466C168.408 220.325 168.604 220.178 168.806 220.031C168.604 220.178 168.408 220.324 168.215 220.464ZM155.909 217.335C156.004 217.202 156.119 217.086 156.253 216.989C156.3 216.955 156.346 216.923 156.393 216.895C156.346 216.923 156.3 216.955 156.253 216.99C156.163 217.055 156.082 217.128 156.009 217.209L155.909 217.335ZM156.527 216.822C156.516 216.828 156.505 216.834 156.494 216.84C156.505 216.834 156.516 216.828 156.527 216.822ZM156.678 216.759C156.651 216.768 156.625 216.779 156.598 216.79C156.625 216.779 156.651 216.768 156.678 216.759ZM156.803 216.721C156.782 216.726 156.761 216.733 156.74 216.739C156.761 216.733 156.782 216.726 156.803 216.721ZM156.946 216.696C156.929 216.698 156.913 216.7 156.897 216.703C156.913 216.7 156.929 216.698 156.946 216.696ZM157.088 216.688C157.066 216.688 157.043 216.689 157.02 216.69C157.043 216.689 157.066 216.688 157.088 216.688ZM157.226 216.698C157.203 216.695 157.181 216.693 157.158 216.691C157.181 216.693 157.203 216.695 157.226 216.698ZM157.355 216.724C157.338 216.719 157.321 216.716 157.304 216.712C157.321 216.716 157.338 216.719 157.355 216.724ZM157.484 216.765C157.47 216.76 157.457 216.754 157.443 216.75C157.457 216.754 157.47 216.76 157.484 216.765ZM157.618 216.823C157.606 216.817 157.595 216.811 157.584 216.806C157.595 216.811 157.606 216.817 157.618 216.823ZM157.751 216.898C157.739 216.89 157.728 216.883 157.716 216.876C157.728 216.883 157.739 216.89 157.751 216.898ZM169.866 219.248C170.047 219.113 170.232 218.976 170.42 218.836C170.232 218.976 170.047 219.113 169.866 219.248ZM172.263 217.446C172.406 217.338 172.551 217.228 172.697 217.117C172.551 217.228 172.406 217.338 172.263 217.446ZM173.762 216.3C174.413 215.801 175.089 215.281 175.789 214.738C175.089 215.281 174.413 215.801 173.762 216.3ZM176.672 214.051C177.318 213.548 177.984 213.027 178.669 212.489C177.984 213.027 177.318 213.548 176.672 214.051ZM179.9 211.521C180.709 210.883 181.543 210.223 182.404 209.539C181.543 210.223 180.709 210.883 179.9 211.521ZM183.335 208.799C184.178 208.127 185.045 207.434 185.936 206.72C185.045 207.434 184.178 208.127 183.335 208.799ZM203.334 192.636C200.946 194.565 198.372 196.65 195.616 198.895C192.597 201.355 189.774 203.638 187.149 205.747C188.411 204.733 189.72 203.68 191.073 202.586L195.616 198.896C198.372 196.65 200.946 194.565 203.334 192.636ZM224.4 178.099C223.967 177.502 223.647 177.188 223.441 177.155L222.953 177.236C221.651 178.183 220.001 179.431 218.001 180.979C219.554 179.777 220.895 178.756 222.027 177.917L222.952 177.237L223.44 177.157C223.646 177.189 223.966 177.503 224.4 178.099L225.831 180.069C225.867 180.148 225.908 180.228 225.952 180.312C225.908 180.228 225.868 180.147 225.831 180.068L225.05 178.994L224.4 178.099ZM226.742 181.444C226.777 181.474 226.812 181.5 226.849 181.524C226.812 181.5 226.777 181.474 226.742 181.444ZM226.853 181.526C226.887 181.548 226.922 181.567 226.958 181.585C226.922 181.567 226.887 181.548 226.853 181.526ZM226.128 180.619C226.184 180.71 226.243 180.805 226.308 180.901L226.521 181.208C226.585 181.295 226.655 181.369 226.728 181.433C226.655 181.369 226.586 181.294 226.522 181.207C226.373 181.001 226.242 180.805 226.128 180.619ZM226.992 181.601C227.023 181.615 227.054 181.627 227.086 181.637C227.054 181.627 227.023 181.615 226.992 181.601ZM228.012 181.599C227.864 181.643 227.712 181.673 227.555 181.687C227.398 181.701 227.252 181.687 227.117 181.648C227.206 181.674 227.299 181.69 227.398 181.693L227.555 181.688C227.712 181.674 227.864 181.643 228.012 181.599ZM225.983 180.368C226.023 180.441 226.066 180.514 226.111 180.589C226.066 180.514 226.023 180.441 225.983 180.368ZM228.734 181.24C228.519 181.396 228.292 181.512 228.051 181.588C228.241 181.527 228.424 181.444 228.598 181.333L228.734 181.24C228.786 181.202 228.835 181.164 228.88 181.124L228.88 181.123C228.835 181.163 228.786 181.202 228.734 181.24ZM229.107 180.871C229.199 180.74 229.26 180.601 229.289 180.452L229.25 180.597C229.217 180.693 229.169 180.783 229.107 180.871ZM229.303 180.065C229.303 180.036 229.304 180.007 229.302 179.978C229.304 180.007 229.303 180.036 229.303 180.065ZM229.298 179.907C229.295 179.876 229.292 179.845 229.288 179.814C229.292 179.845 229.295 179.876 229.298 179.907ZM219.386 171.296C219.41 171.371 219.443 171.445 219.487 171.52L219.561 171.632L221.838 174.763L221.839 174.763L219.562 171.631C219.481 171.52 219.422 171.408 219.386 171.296ZM229.269 179.7C229.265 179.684 229.262 179.668 229.258 179.651C229.262 179.668 229.265 179.684 229.269 179.7ZM229.236 179.558C229.229 179.534 229.222 179.511 229.214 179.487C229.222 179.511 229.229 179.534 229.236 179.558ZM229.177 179.377C229.173 179.366 229.168 179.355 229.164 179.345C229.168 179.355 229.173 179.366 229.177 179.377ZM229.11 179.215C229.106 179.207 229.102 179.198 229.097 179.189C229.102 179.198 229.106 179.207 229.11 179.215ZM219.341 171.066C219.343 171.101 219.348 171.136 219.354 171.171C219.348 171.136 219.343 171.101 219.341 171.066ZM219.357 170.843C219.372 170.77 219.396 170.697 219.43 170.625C219.396 170.697 219.372 170.77 219.357 170.843ZM219.489 170.512C219.473 170.539 219.459 170.567 219.446 170.594C219.459 170.567 219.473 170.539 219.489 170.512ZM219.56 170.405C219.54 170.433 219.521 170.461 219.503 170.489C219.521 170.461 219.54 170.433 219.56 170.405ZM219.641 170.3C219.62 170.325 219.599 170.351 219.58 170.376C219.599 170.351 219.62 170.325 219.641 170.3ZM219.743 170.186C219.718 170.211 219.695 170.236 219.673 170.261C219.695 170.236 219.718 170.211 219.743 170.186ZM219.811 170.118C219.798 170.131 219.784 170.144 219.77 170.157C219.784 170.144 219.798 170.131 219.811 170.118ZM220.52 169.621C220.441 169.656 220.362 169.699 220.285 169.747C220.362 169.699 220.441 169.656 220.52 169.621ZM164.843 230.476C164.9 230.472 164.956 230.466 165.01 230.458C164.956 230.466 164.9 230.472 164.843 230.476ZM165.208 230.419C165.259 230.406 165.309 230.392 165.358 230.376C165.309 230.392 165.259 230.406 165.208 230.419ZM219.358 171.191C219.365 171.223 219.373 171.255 219.383 171.288C219.373 171.255 219.365 171.223 219.358 171.191ZM219.341 170.97C219.34 171.002 219.339 171.034 219.341 171.066C219.339 171.034 219.34 171.002 219.341 170.97ZM219.356 170.851C219.35 170.884 219.345 170.917 219.342 170.95C219.345 170.917 219.35 170.884 219.356 170.851Z" fill="#F68C9E"/>
<path d="M269.759 120.659C266.881 114.528 264.55 111.833 258.898 108.34C261.604 98.9922 265.058 95.7643 272.888 91.7422C282.459 100.64 279.146 119.29 269.759 120.659Z" fill="#313131"/>
<path d="M272.433 90.9955C272.792 90.8111 273.239 90.8696 273.529 91.1392C278.573 95.8278 280.166 103.009 279.337 109.133C278.92 112.205 277.888 115.076 276.312 117.289C274.736 119.503 272.567 121.116 269.892 121.506C269.478 121.567 269.073 121.36 268.906 121.003C267.482 117.97 266.22 115.843 264.647 114.053C263.077 112.267 261.163 110.774 258.379 109.054C258.05 108.85 257.898 108.474 258 108.119C259.371 103.385 260.955 100.113 263.25 97.5042C265.542 94.8991 268.486 93.0234 272.433 90.9955ZM272.705 92.8141C269.152 94.6779 266.631 96.3634 264.674 98.5876C262.698 100.834 261.244 103.692 259.953 107.976C262.538 109.614 264.457 111.133 266.072 112.971C267.676 114.797 268.948 116.902 270.287 119.678C272.022 119.23 273.55 118.068 274.777 116.345C276.164 114.398 277.121 111.792 277.51 108.919C278.263 103.358 276.862 97.0329 272.705 92.8141Z" fill="#3A3A3B"/>
<path d="M260.738 84.5555C247.972 84.8253 246.566 91.9131 252.455 104.404C245.093 103.036 237.99 103.287 232.208 101.178C227.059 98.7257 225.51 98.6683 227.791 103.549C231.86 109.958 241.293 116.58 255.217 127.162C283.196 148.208 269.575 188.248 226.319 188.248C210.856 188.761 198.471 180.125 180.485 172.163C175.269 169.855 172.302 170.34 168.703 171.65C163.918 143.76 191.161 119.805 226.319 128.189C207.239 113.958 201.609 104.585 203.495 84.5555C207.728 51.7039 260.738 55.6394 260.738 84.5555Z" fill="#FF9CAC"/>
<path d="M233.012 154.451C233.521 153.633 234.646 153.353 235.527 153.825C240.334 156.405 243.113 160.016 243.952 163.852C244.787 167.673 243.655 171.546 240.998 174.547C235.597 180.645 224.435 182.794 211.046 175.609C210.165 175.136 209.864 174.09 210.372 173.272C210.88 172.454 212.006 172.173 212.886 172.646C225.267 179.29 234.26 176.771 238.156 172.372C240.146 170.125 240.947 167.292 240.344 164.534C239.745 161.792 237.715 158.95 233.686 156.789C232.806 156.316 232.504 155.27 233.012 154.451Z" fill="#F68C9E"/>
<path d="M215.642 147.439C215.641 147.439 215.641 147.439 215.641 149.322V147.439C214.522 147.44 213.616 148.282 213.616 149.322C213.616 150.296 214.413 151.097 215.433 151.194L215.641 151.204H215.681C215.711 151.204 215.757 151.204 215.819 151.205C215.942 151.207 216.127 151.209 216.364 151.215C216.838 151.227 217.52 151.25 218.342 151.297C219.992 151.39 222.173 151.577 224.344 151.944C226.547 152.316 228.594 152.85 230.062 153.58C231.567 154.328 231.993 155.025 232.026 155.586C232.055 156.062 231.776 156.723 230.303 157.525C228.871 158.305 226.806 158.918 224.551 159.375C222.331 159.824 220.08 160.093 218.371 160.25C217.519 160.328 216.81 160.376 216.316 160.406C216.07 160.421 215.877 160.431 215.748 160.437C215.684 160.44 215.635 160.442 215.604 160.443C215.588 160.444 215.576 160.445 215.569 160.445H215.561C214.452 160.485 213.585 161.348 213.617 162.38C213.649 163.411 214.568 164.226 215.677 164.207C215.679 164.207 215.683 164.208 215.689 164.208C215.701 164.208 215.723 164.207 215.753 164.207C215.812 164.207 215.905 164.208 216.027 164.21C216.27 164.215 216.626 164.227 217.058 164.257C217.931 164.316 219.074 164.443 220.214 164.708C221.374 164.977 222.405 165.36 223.145 165.865C223.845 166.342 224.22 166.874 224.316 167.537C224.345 167.741 224.305 168.192 223.156 168.9C222.044 169.584 220.381 170.174 218.514 170.648C216.683 171.114 214.81 171.433 213.381 171.635C212.67 171.736 212.077 171.807 211.664 171.852C211.458 171.875 211.297 171.891 211.19 171.902C211.136 171.907 211.096 171.911 211.07 171.913C211.057 171.914 211.047 171.915 211.042 171.916C211.039 171.916 211.037 171.916 211.036 171.916C209.923 172.012 209.103 172.929 209.207 173.964C209.31 174.999 210.297 175.76 211.411 175.664L211.223 173.79C211.403 175.593 211.411 175.661 211.411 175.664H211.413C211.414 175.664 211.415 175.663 211.416 175.663C211.419 175.663 211.423 175.663 211.428 175.663C211.437 175.662 211.451 175.661 211.467 175.659C211.501 175.656 211.55 175.651 211.612 175.645C211.736 175.633 211.915 175.615 212.14 175.59C212.59 175.541 213.229 175.464 213.991 175.356C215.508 175.142 217.548 174.797 219.584 174.279C221.584 173.77 223.741 173.055 225.392 172.039C227.004 171.046 228.668 169.402 228.329 167.039C228.07 165.235 227.028 163.909 225.753 162.98C228.047 162.497 230.46 161.803 232.351 160.774C234.295 159.715 236.225 157.981 236.069 155.377C235.919 152.858 233.952 151.245 231.971 150.261C229.953 149.258 227.422 148.637 225.068 148.24C222.684 147.837 220.332 147.638 218.589 147.539C217.713 147.489 216.983 147.465 216.47 147.452C216.213 147.446 216.009 147.442 215.868 147.441C215.798 147.44 215.743 147.44 215.705 147.439H215.642Z" fill="#F8DFDF"/>
<path d="M260.736 84.5566C248.222 85.0699 246.382 91.4005 252.637 104.575L258.898 108.339C261.433 99.5253 264.464 95.8852 272.888 91.7427L260.736 84.5566Z" fill="white"/>
<path d="M260.827 83.7078C260.967 83.722 261.102 83.7655 261.221 83.8361L273.372 91.0221C273.648 91.1856 273.811 91.4736 273.798 91.778C273.785 92.0824 273.598 92.3573 273.309 92.4998C269.151 94.5445 266.414 96.4226 264.4 98.8176C262.383 101.215 261.032 104.201 259.778 108.561C259.702 108.826 259.494 109.04 259.22 109.139C258.945 109.237 258.636 109.207 258.389 109.058L252.128 105.294C251.977 105.204 251.858 105.074 251.786 104.921C250.207 101.597 249.121 98.6663 248.591 96.1255C248.062 93.5895 248.075 91.3791 248.77 89.5364C250.208 85.7242 254.329 83.9639 260.686 83.7031L260.827 83.7078ZM260.481 85.4261C254.515 85.718 251.538 87.3708 250.507 90.1025C249.96 91.5532 249.903 93.4279 250.398 95.8C250.88 98.1108 251.872 100.834 253.36 103.997L258.337 106.99C259.535 103.109 260.905 100.194 262.95 97.7636C264.941 95.3963 267.525 93.5433 271.069 91.6877L260.481 85.4261Z" fill="#3A3A3B"/>
<path d="M248.625 85.0326C248.625 87.5744 246.565 89.6354 244.024 89.6354C241.482 89.6354 239.422 87.5744 239.422 85.0326C239.422 82.4907 241.482 80.4297 244.024 80.4297C246.565 80.4297 248.625 82.4907 248.625 85.0326Z" fill="white"/>
<path d="M245.677 88.6237C246.693 88.6237 247.517 87.7994 247.517 86.7826C247.517 85.7657 246.693 84.9414 245.677 84.9414C244.66 84.9414 243.836 85.7657 243.836 86.7826C243.836 87.7994 244.66 88.6237 245.677 88.6237Z" fill="#4B454C"/>
<path d="M356.023 162.717C356.771 162.264 357.718 161.896 358.75 162.05C359.865 162.217 360.643 162.921 361.129 163.718C368.224 175.354 373.619 183.989 377.321 189.637L377.326 189.644L388.114 206.272L388.127 206.294C389.509 208.559 391.817 212.023 395.067 216.702L396.517 218.782L396.533 218.805L403.501 229.076L409.366 225.525C410.184 225.03 411.203 224.839 412.226 225.269C413.122 225.646 413.739 226.388 414.171 227.096C414.598 227.797 414.887 228.567 414.955 229.394L414.96 229.464L414.961 229.535C414.967 230.575 414.477 231.454 413.65 232.014L413.116 232.451L413.015 232.534L412.174 233.043C410.831 233.942 408.272 235.534 404.53 237.799C403.562 238.385 402.487 238.429 401.491 238.089L401.397 238.057L401.308 238.016C400.421 237.603 399.756 236.917 399.269 236.117L396.967 232.342C394.574 228.419 391.714 224.081 388.385 219.326L388.368 219.302C384.883 214.156 382.016 209.739 379.77 206.056C377.718 202.69 373.57 196.24 367.311 186.685L365.226 183.565C360.529 176.513 357.008 171.068 354.673 167.239C354.183 166.435 354.102 165.506 354.448 164.632C354.746 163.84 355.272 163.172 356.023 162.717ZM411.362 226.914C411.792 227.036 412.201 227.415 412.589 228.052C412.896 228.555 413.07 229.053 413.111 229.545C413.113 229.974 412.925 230.303 412.546 230.532L411.941 231.029L411.183 231.488C409.895 232.353 407.357 233.933 403.568 236.227C403.405 236.325 403.234 236.392 403.056 236.429C403.175 236.405 403.291 236.368 403.403 236.316L403.571 236.227C407.36 233.933 409.898 232.353 411.186 231.487L411.944 231.029L412.549 230.533C412.928 230.304 413.116 229.974 413.114 229.544C413.078 229.114 412.94 228.679 412.7 228.24L412.593 228.052C412.161 227.344 411.703 226.955 411.221 226.884L411.362 226.914ZM402.888 236.454C402.937 236.45 402.985 236.442 403.033 236.433C402.985 236.442 402.937 236.449 402.888 236.454ZM402.714 236.461C402.754 236.461 402.793 236.461 402.833 236.458C402.793 236.461 402.754 236.461 402.714 236.461ZM402.547 236.451C402.581 236.454 402.614 236.457 402.647 236.459C402.614 236.457 402.581 236.454 402.547 236.451ZM402.383 236.426C402.407 236.431 402.432 236.436 402.456 236.44C402.432 236.436 402.407 236.431 402.383 236.426ZM401.926 236.265C401.941 236.274 401.957 236.281 401.973 236.289C401.957 236.281 401.941 236.274 401.926 236.265ZM401.765 236.164C401.782 236.176 401.799 236.186 401.816 236.197C401.799 236.186 401.782 236.176 401.765 236.164ZM401.616 236.056C401.635 236.071 401.654 236.085 401.673 236.099C401.654 236.085 401.635 236.071 401.616 236.056ZM401.479 235.942C401.49 235.951 401.501 235.96 401.511 235.969C401.501 235.96 401.49 235.951 401.479 235.942ZM411.048 226.873C411.059 226.873 411.069 226.872 411.08 226.872C411.069 226.872 411.059 226.873 411.048 226.873ZM358.929 164.031C359.162 164.166 359.368 164.38 359.547 164.674C366.645 176.313 372.053 184.97 375.772 190.644L386.547 207.25C388.158 209.892 390.976 214.088 395 219.835L402.704 231.194C402.755 231.277 402.813 231.329 402.878 231.353C402.833 231.335 402.79 231.304 402.751 231.258L402.707 231.193L395.002 219.835C390.979 214.088 388.16 209.892 386.549 207.249L375.775 190.643C372.521 185.679 367.973 178.431 362.132 168.899L359.55 164.674C359.37 164.38 359.163 164.166 358.929 164.031ZM358.76 163.949C358.722 163.934 358.685 163.921 358.646 163.909C358.685 163.921 358.723 163.934 358.76 163.949ZM358.611 163.9C358.574 163.891 358.538 163.882 358.5 163.876C358.538 163.882 358.574 163.891 358.611 163.9ZM358.447 163.868C358.414 163.864 358.38 163.861 358.345 163.859C358.38 163.861 358.414 163.864 358.447 163.868ZM358.279 163.857C358.25 163.857 358.221 163.857 358.191 163.859C358.221 163.857 358.25 163.857 358.279 163.857ZM358.113 163.864C358.083 163.867 358.054 163.871 358.024 163.876C358.054 163.871 358.083 163.867 358.113 163.864ZM357.936 163.89C357.912 163.895 357.888 163.901 357.863 163.907C357.888 163.901 357.912 163.895 357.936 163.89ZM357.751 163.936C357.741 163.939 357.731 163.943 357.721 163.946C357.731 163.943 357.741 163.939 357.751 163.936ZM358.917 164.024C358.876 164.001 358.836 163.981 358.794 163.962C358.836 163.981 358.877 164.001 358.917 164.024Z" fill="#F68C9E"/>
<path d="M355.339 160.632C355.948 160.717 356.638 161.021 357.246 161.324C357.923 161.66 358.751 162.126 359.72 162.71L362.428 164.341L362.478 164.376C363.342 164.978 364.487 165.711 365.922 166.575C366.668 167.024 367.315 167.665 367.666 168.539C368.155 169.571 367.956 170.624 367.452 171.454C367.055 172.109 366.506 172.635 365.82 172.997C364.846 173.51 363.775 173.454 362.861 172.903C362.412 172.633 361.996 172.345 361.635 172.036L359.951 171.022C356.872 176.208 351.487 185.999 343.78 200.434C336.166 214.69 330.504 224.88 326.806 230.975L325.165 233.681L325.123 233.739C324.931 234.006 324.742 234.282 324.552 234.563L326.348 235.645C327.184 236.148 328.003 236.804 328.465 237.686C329.006 238.722 328.936 239.845 328.351 240.809C327.846 241.642 327.061 242.143 326.245 242.431L326.246 242.433C325.436 242.729 324.438 242.796 323.512 242.238L318.357 239.134L318.326 239.112C316.876 238.155 314.989 236.977 312.661 235.575C311.806 235.059 311.237 234.285 310.925 233.384L310.898 233.305L310.877 233.224C310.658 232.336 310.719 231.376 311.247 230.506C311.722 229.724 312.5 229.069 313.589 228.95C314.561 228.844 315.447 229.209 316.141 229.627L318.255 230.9C322.444 223.93 327.436 215.211 333.231 204.736L333.236 204.726L333.241 204.717C338.337 195.749 342.281 188.68 345.077 183.504L345.108 183.448L345.142 183.394L348.161 178.632L351.926 172.425C353.125 170.449 353.998 168.953 354.57 167.909L352.711 166.79C351.979 166.349 351.392 165.607 351.314 164.596C351.248 163.726 351.588 162.949 351.94 162.369C352.633 161.228 353.759 160.634 355.055 160.614L355.198 160.613L355.339 160.632ZM325.171 240.809C325.194 240.807 325.217 240.804 325.24 240.801C325.217 240.804 325.194 240.807 325.171 240.809ZM359.377 168.798L358.958 169.062C355.976 173.976 350.366 184.146 342.129 199.573C334.517 213.827 328.876 223.978 325.206 230.026L323.6 232.672C323.04 233.453 322.492 234.285 321.957 235.167L325.372 237.223C326.827 238.099 327.287 238.979 326.752 239.861C326.522 240.239 326.134 240.521 325.589 240.708C325.482 240.747 325.379 240.775 325.28 240.794C325.385 240.775 325.495 240.747 325.608 240.705C326.086 240.541 326.442 240.304 326.677 239.994L326.771 239.857C327.273 239.03 326.9 238.205 325.653 237.384L325.392 237.219L321.977 235.163C322.512 234.281 323.06 233.45 323.62 232.669L325.226 230.023C328.437 224.731 333.157 216.297 339.387 204.722L342.149 199.569C349.871 185.107 355.284 175.264 358.387 170.041L358.976 169.058L359.392 168.796C359.387 168.797 359.381 168.797 359.377 168.798ZM314.988 231.089C314.477 230.815 314.035 230.721 313.664 230.803C314.079 230.719 314.579 230.851 315.166 231.205L318.865 233.433C318.867 233.43 318.869 233.425 318.871 233.422L315.186 231.202L314.988 231.089ZM313.593 230.819C313.586 230.821 313.579 230.823 313.573 230.825C313.58 230.823 313.586 230.821 313.593 230.819ZM364.544 171.502C364.572 171.498 364.601 171.493 364.629 171.487C364.601 171.494 364.572 171.498 364.544 171.502ZM354.812 162.474C354.893 162.465 354.977 162.46 355.063 162.459C355.62 162.536 356.848 163.146 358.745 164.289L361.401 165.889C362.311 166.523 363.493 167.278 364.947 168.154C365.453 168.459 365.788 168.832 365.951 169.275C366.153 169.654 366.119 170.064 365.852 170.505C365.623 170.883 365.318 171.173 364.937 171.374C364.844 171.423 364.75 171.459 364.656 171.482C364.709 171.47 364.761 171.455 364.814 171.435L364.956 171.369C365.289 171.194 365.565 170.951 365.783 170.639L365.871 170.502C366.139 170.061 366.172 169.65 365.971 169.271C365.828 168.884 365.554 168.549 365.148 168.268L364.967 168.15C363.513 167.274 362.33 166.519 361.42 165.884L358.764 164.284C356.867 163.142 355.64 162.533 355.083 162.455C354.989 162.456 354.899 162.463 354.812 162.474Z" fill="#F68C9E"/>
<path d="M405.03 115.089C400.699 109.886 397.762 107.866 391.402 105.906C391.679 96.1981 394.22 92.215 400.804 86.3698C412.322 92.5699 413.792 111.417 405.03 115.089Z" fill="#313131"/>
<path d="M400.206 85.7603C400.508 85.4923 400.956 85.437 401.305 85.6248C407.375 88.8924 410.723 95.4319 411.456 101.556C411.824 104.628 411.544 107.66 410.571 110.193C409.598 112.727 407.9 114.828 405.402 115.874C405.016 116.036 404.572 115.938 404.32 115.635C402.177 113.06 400.418 111.322 398.443 109.986C396.472 108.653 394.24 107.69 391.108 106.725C390.738 106.611 390.496 106.285 390.506 105.917C390.646 101 391.361 97.4415 392.932 94.3471C394.502 91.2565 396.886 88.7075 400.206 85.7603ZM400.926 87.4493C397.948 90.1392 395.926 92.3986 394.586 95.0373C393.233 97.7027 392.541 100.828 392.364 105.289C395.283 106.225 397.526 107.212 399.554 108.584C401.568 109.946 403.33 111.662 405.327 114.009C406.898 113.142 408.087 111.637 408.845 109.664C409.701 107.437 409.975 104.68 409.631 101.806C408.965 96.2455 406.018 90.4848 400.926 87.4493Z" fill="#3A3A3B"/>
<path d="M387.22 82.4676C374.905 85.9235 375.32 93.1234 384.17 103.717C376.686 104.238 369.859 106.259 363.721 105.669C358.11 104.588 356.593 104.92 360.031 109.065C365.587 114.238 376.4 118.275 392.564 125.014C424.989 138.345 421.831 180.438 379.874 191.264C365.004 195.63 350.821 190.386 331.375 187.196C325.736 186.271 322.98 187.482 319.818 189.649C308.173 163.9 328.582 133.938 364.792 133.238C342.71 124.265 334.895 116.619 331.694 96.7949C327.551 63.9959 379.959 54.5305 387.22 82.4676Z" fill="#FBD5DA"/>
<path d="M377.884 156.942C378.172 156.024 379.193 155.472 380.166 155.708C385.476 156.997 389.079 159.79 390.856 163.287C392.625 166.769 392.5 170.794 390.676 174.359C386.969 181.602 376.681 186.472 361.89 182.881C360.917 182.645 360.362 181.71 360.649 180.792C360.937 179.874 361.959 179.322 362.931 179.558C376.609 182.878 384.7 178.194 387.373 172.969C388.739 170.3 388.805 167.362 387.528 164.848C386.258 162.349 383.575 160.112 379.124 159.032C378.152 158.795 377.597 157.86 377.884 156.942Z" fill="#F8B0BB"/>
<path d="M362.369 153.746C362.37 153.746 362.371 153.746 361.898 155.564L362.369 153.746C363.454 154.026 364.123 155.067 363.862 156.071C363.618 157.013 362.643 157.587 361.629 157.425L361.426 157.383L361.387 157.373C361.357 157.365 361.312 157.354 361.252 157.339C361.132 157.31 360.952 157.266 360.721 157.213C360.258 157.105 359.591 156.957 358.782 156.796C357.158 156.474 354.996 156.108 352.797 155.919C350.568 155.728 348.448 155.731 346.841 156.069C345.193 156.415 344.605 156.982 344.431 157.515C344.284 157.968 344.388 158.677 345.615 159.82C346.809 160.932 348.659 162.041 350.73 163.046C352.771 164.036 354.887 164.86 356.506 165.439C357.312 165.727 357.988 165.952 358.459 166.104C358.695 166.18 358.879 166.238 359.002 166.276C359.064 166.295 359.111 166.309 359.141 166.318C359.156 166.323 359.167 166.326 359.174 166.328L359.182 166.33C360.247 166.647 360.872 167.698 360.582 168.686C360.292 169.674 359.196 170.232 358.125 169.936C358.123 169.935 358.119 169.935 358.113 169.934C358.101 169.931 358.08 169.925 358.052 169.917C357.994 169.902 357.903 169.88 357.785 169.852C357.548 169.795 357.199 169.718 356.773 169.638C355.912 169.477 354.771 169.314 353.598 169.284C352.406 169.254 351.31 169.366 350.465 169.668C349.666 169.954 349.168 170.374 348.91 170.991C348.83 171.18 348.755 171.627 349.692 172.598C350.599 173.537 352.064 174.523 353.755 175.449C355.414 176.357 357.151 177.133 358.486 177.686C359.151 177.962 359.708 178.179 360.097 178.326C360.292 178.4 360.444 178.456 360.545 178.493C360.596 178.511 360.634 178.525 360.659 178.534C360.671 178.538 360.68 178.541 360.685 178.543C360.688 178.544 360.69 178.544 360.691 178.545C361.747 178.916 362.311 180.008 361.951 180.982C361.59 181.956 360.442 182.444 359.386 182.072L360.039 180.309C359.411 182.005 359.388 182.07 359.386 182.072L359.384 182.072C359.383 182.071 359.382 182.071 359.381 182.07C359.378 182.069 359.374 182.068 359.37 182.067C359.361 182.063 359.348 182.059 359.332 182.053C359.3 182.042 359.254 182.025 359.196 182.004C359.078 181.961 358.91 181.899 358.698 181.819C358.273 181.658 357.673 181.424 356.961 181.129C355.543 180.542 353.651 179.698 351.806 178.689C349.994 177.696 348.081 176.465 346.735 175.07C345.42 173.708 344.219 171.703 345.142 169.505C345.846 167.828 347.19 166.807 348.66 166.229C346.556 165.188 344.39 163.914 342.814 162.446C341.194 160.937 339.758 158.778 340.562 156.302C341.341 153.906 343.654 152.84 345.822 152.384C348.032 151.921 350.643 151.955 353.025 152.159C355.439 152.367 357.77 152.764 359.486 153.104C360.348 153.276 361.062 153.434 361.564 153.551C361.814 153.609 362.012 153.657 362.149 153.69C362.218 153.707 362.272 153.721 362.309 153.73L362.369 153.746Z" fill="#FDEDEF"/>
<path d="M387.209 82.4669C375.199 86.095 375.004 92.6718 384.38 103.835L391.398 105.904C391.643 96.7545 393.67 92.479 400.8 86.3684L387.209 82.4669Z" fill="white"/>
<path d="M387.106 81.6242C387.245 81.603 387.387 81.6112 387.521 81.6496L401.111 85.5511C401.421 85.6399 401.65 85.8775 401.714 86.1749C401.778 86.4723 401.666 86.7844 401.421 86.9946C397.901 90.0107 395.719 92.5102 394.366 95.3283C393.012 98.1498 392.451 101.373 392.33 105.899C392.323 106.173 392.175 106.433 391.933 106.597C391.691 106.76 391.384 106.809 391.107 106.727L384.089 104.657C383.92 104.608 383.772 104.512 383.663 104.383C381.297 101.566 379.508 99.0063 378.356 96.6841C377.206 94.3663 376.663 92.2276 376.875 90.2732C377.312 86.2302 380.867 83.4981 386.968 81.6549L387.106 81.6242ZM387.202 83.3711C381.489 85.1462 379.015 87.4883 378.702 90.3853C378.535 91.9239 378.951 93.7494 380.027 95.9174C381.074 98.0294 382.721 100.412 384.959 103.096L390.538 104.741C390.725 100.692 391.322 97.5332 392.695 94.673C394.032 91.8875 396.073 89.4504 399.044 86.7707L387.202 83.3711Z" fill="#3A3A3B"/>
<path d="M375.575 85.958C376.214 88.4138 374.733 90.9208 372.268 91.5568C369.803 92.1929 367.286 90.7173 366.648 88.2615C366.01 85.8057 367.491 83.2987 369.956 82.6627C372.421 82.0267 374.937 83.5022 375.575 85.958Z" fill="white"/>
<path d="M373.632 90.1673C374.618 89.9128 375.211 88.9102 374.955 87.9277C374.7 86.9453 373.693 86.3552 372.707 86.6096C371.721 86.864 371.129 87.8667 371.384 88.8491C371.64 89.8316 372.646 90.4217 373.632 90.1673Z" fill="#4B454C"/>
<path d="M356.134 162.949C356.882 162.495 357.827 162.126 358.857 162.28C359.97 162.447 360.746 163.152 361.232 163.951C368.315 175.607 373.7 184.258 377.395 189.916L377.4 189.924L388.169 206.581L388.183 206.603C389.562 208.873 391.865 212.342 395.109 217.029L396.558 219.113L396.573 219.136L403.528 229.426L409.383 225.869C410.2 225.372 411.217 225.181 412.238 225.612C413.132 225.989 413.748 226.732 414.18 227.442C414.606 228.144 414.894 228.915 414.962 229.743L414.967 229.814L414.968 229.885C414.974 230.927 414.485 231.807 413.659 232.368L413.127 232.806L413.026 232.889L412.186 233.399C410.846 234.3 408.291 235.895 404.556 238.164C403.589 238.751 402.517 238.795 401.522 238.454L401.429 238.423L401.34 238.381C400.454 237.968 399.791 237.28 399.304 236.479L397.006 232.697C394.618 228.767 391.763 224.421 388.439 219.658L388.423 219.634C384.944 214.479 382.081 210.053 379.84 206.364C377.791 202.992 373.651 196.531 367.403 186.96L365.322 183.833C360.632 176.769 357.118 171.314 354.787 167.477C354.298 166.672 354.217 165.741 354.562 164.866C354.86 164.073 355.385 163.404 356.134 162.949ZM403.266 236.744C403.321 236.725 403.376 236.703 403.43 236.678L403.598 236.588L403.599 236.587C403.491 236.652 403.38 236.705 403.266 236.744ZM403.086 236.791C403.137 236.78 403.188 236.767 403.238 236.751C403.188 236.767 403.137 236.78 403.086 236.791ZM402.915 236.816C402.966 236.811 403.017 236.804 403.067 236.795C403.017 236.804 402.966 236.811 402.915 236.816ZM402.729 236.822C402.78 236.824 402.83 236.822 402.879 236.818C402.83 236.822 402.78 236.824 402.729 236.822ZM402.541 236.809C402.592 236.816 402.642 236.82 402.691 236.822C402.642 236.819 402.591 236.816 402.541 236.809ZM357.092 164.524C356.714 164.754 356.444 165.091 356.282 165.534C356.144 165.876 356.172 166.205 356.363 166.52L357.426 168.251C360.077 172.521 363.914 178.416 368.936 185.936C375.187 195.513 379.348 202.004 381.416 205.407L382.278 206.813C384.358 210.174 386.916 214.105 389.952 218.603C393.292 223.391 396.169 227.77 398.582 231.74L400.88 235.522L401.011 235.726C401.328 236.185 401.698 236.513 402.119 236.71C402.253 236.755 402.383 236.787 402.51 236.805C402.383 236.787 402.254 236.754 402.121 236.709C401.639 236.484 401.226 236.088 400.881 235.521L398.584 231.739C396.171 227.768 393.293 223.389 389.953 218.601C386.484 213.46 383.639 209.062 381.417 205.406C379.349 202.003 375.19 195.512 368.939 185.934C363.199 177.34 359.007 170.868 356.365 166.519C356.173 166.204 356.146 165.875 356.283 165.533C356.445 165.09 356.715 164.754 357.093 164.524L357.092 164.524ZM358.822 164.163C358.812 164.16 358.803 164.157 358.793 164.154C358.803 164.157 358.812 164.16 358.822 164.163ZM358.676 164.122C358.667 164.12 358.659 164.118 358.651 164.117C358.659 164.118 358.667 164.12 358.676 164.122ZM358.523 164.097C358.515 164.096 358.507 164.095 358.499 164.095C358.507 164.095 358.515 164.096 358.523 164.097ZM358.363 164.089C358.357 164.089 358.35 164.089 358.344 164.089C358.35 164.089 358.357 164.089 358.363 164.089ZM358.206 164.099C358.194 164.1 358.182 164.101 358.169 164.103C358.182 164.101 358.194 164.1 358.206 164.099ZM358.037 164.125C358.024 164.128 358.012 164.132 357.999 164.135C358.012 164.132 358.024 164.128 358.037 164.125ZM357.858 164.17C357.849 164.172 357.841 164.176 357.832 164.179C357.841 164.176 357.849 164.173 357.858 164.17ZM357.684 164.229C357.664 164.236 357.645 164.245 357.625 164.253C357.645 164.245 357.664 164.236 357.684 164.229Z" fill="#F68C9E"/>
<path d="M355.467 160.865C356.076 160.95 356.764 161.256 357.371 161.559C358.046 161.896 358.874 162.363 359.841 162.947L362.544 164.581L362.595 164.616C363.457 165.219 364.599 165.953 366.032 166.819C366.777 167.269 367.423 167.91 367.773 168.786C368.262 169.821 368.063 170.874 367.56 171.706C367.164 172.362 366.614 172.89 365.93 173.252C364.957 173.766 363.889 173.71 362.976 173.158C362.528 172.887 362.113 172.599 361.753 172.289L360.072 171.274C356.999 176.469 351.623 186.277 343.929 200.738C336.329 215.019 330.678 225.228 326.987 231.333L325.347 234.045L325.306 234.102C325.114 234.37 324.925 234.647 324.736 234.929L326.528 236.012C327.362 236.516 328.181 237.172 328.642 238.056C329.183 239.094 329.112 240.219 328.529 241.185C328.024 242.019 327.241 242.522 326.426 242.809L326.426 242.812C325.618 243.109 324.621 243.176 323.697 242.617L318.552 239.507L318.52 239.485C317.072 238.526 315.19 237.345 312.866 235.94C312.013 235.424 311.445 234.649 311.133 233.748L311.106 233.667L311.085 233.587C310.866 232.697 310.927 231.735 311.454 230.864C311.928 230.08 312.704 229.424 313.792 229.305C314.762 229.199 315.647 229.564 316.34 229.983L318.45 231.258C322.632 224.276 327.614 215.541 333.398 205.048L333.403 205.038L333.409 205.029C338.496 196.045 342.433 188.963 345.224 183.778L345.254 183.722L345.289 183.667L348.303 178.897L352.062 172.68C353.259 170.7 354.129 169.202 354.7 168.156L352.844 167.035C352.114 166.593 351.528 165.849 351.45 164.836C351.384 163.964 351.723 163.188 352.075 162.606C352.766 161.463 353.891 160.867 355.185 160.847L355.327 160.846L355.467 160.865ZM359.792 169.066C359.668 169.03 359.57 169.02 359.499 169.038L359.08 169.302C356.104 174.225 350.505 184.413 342.282 199.866C334.684 214.146 329.053 224.316 325.39 230.375L323.787 233.026C323.228 233.808 322.681 234.641 322.147 235.524L325.556 237.585C327.008 238.462 327.466 239.343 326.932 240.227C326.703 240.605 326.316 240.888 325.772 241.076C325.441 241.198 325.145 241.22 324.885 241.144C325.149 241.227 325.451 241.206 325.79 241.081C326.266 240.917 326.622 240.679 326.857 240.369L326.95 240.23C327.451 239.402 327.08 238.576 325.835 237.753L325.574 237.589L322.165 235.529C322.699 234.646 323.246 233.813 323.805 233.03L325.408 230.379C328.613 225.078 333.326 216.629 339.544 205.034L342.301 199.872C350.01 185.384 355.413 175.523 358.511 170.291L359.099 169.307L359.517 169.042C359.585 169.026 359.676 169.034 359.792 169.066ZM314.62 231.207C314.851 231.278 315.1 231.394 315.367 231.555L319.06 233.788C319.061 233.786 319.061 233.784 319.062 233.782L315.386 231.561L315.188 231.447C314.988 231.34 314.799 231.26 314.62 231.207ZM314.472 231.169C314.516 231.179 314.561 231.19 314.607 231.204C314.561 231.19 314.517 231.179 314.472 231.169ZM314.385 231.152C314.368 231.15 314.352 231.146 314.335 231.144C314.352 231.147 314.368 231.149 314.385 231.152ZM364.232 171.715C364.266 171.725 364.3 171.734 364.334 171.741C364.3 171.735 364.266 171.725 364.232 171.715ZM355.309 162.709C355.91 162.846 357.097 163.45 358.868 164.521L361.519 166.123C362.428 166.759 363.609 167.514 365.06 168.392C365.565 168.697 365.9 169.072 366.063 169.515C366.264 169.895 366.231 170.306 365.964 170.748C365.735 171.127 365.43 171.417 365.049 171.618C364.814 171.742 364.58 171.783 364.345 171.743C364.539 171.78 364.732 171.762 364.926 171.687L365.068 171.622C365.4 171.446 365.676 171.202 365.893 170.89L365.982 170.753C366.249 170.311 366.282 169.899 366.081 169.519C365.938 169.132 365.664 168.797 365.26 168.515L365.079 168.397C363.627 167.519 362.446 166.762 361.538 166.127L358.887 164.524C357.097 163.443 355.904 162.837 355.309 162.709ZM364.172 171.697C364.175 171.698 364.177 171.7 364.18 171.701C364.177 171.7 364.175 171.698 364.172 171.697Z" fill="#F68C9E"/>
<path d="M405.069 115.236C400.745 110.023 397.813 108 391.465 106.036C391.741 96.311 394.277 92.3207 400.85 86.4651C412.348 92.6763 413.815 111.557 405.069 115.236Z" fill="#313131"/>
<path d="M400.235 85.8556C400.537 85.5871 400.984 85.5317 401.332 85.7199C407.391 88.9932 410.734 95.5444 411.466 101.679C411.833 104.757 411.554 107.794 410.583 110.331C409.611 112.87 407.916 114.975 405.423 116.023C405.037 116.185 404.593 116.087 404.342 115.783C402.203 113.204 400.448 111.463 398.476 110.125C396.509 108.789 394.28 107.825 391.154 106.857C390.785 106.743 390.543 106.417 390.553 106.048C390.693 101.122 391.407 97.5576 392.975 94.4576C394.541 91.3615 396.921 88.8081 400.235 85.8556ZM400.954 87.5476C397.982 90.2423 395.963 92.5057 394.626 95.1491C393.275 97.8192 392.584 100.95 392.407 105.419C395.321 106.357 397.561 107.346 399.585 108.72C401.595 110.085 403.355 111.803 405.347 114.154C406.915 113.286 408.103 111.778 408.859 109.802C409.714 107.57 409.988 104.809 409.644 101.93C408.979 96.3595 406.037 90.5885 400.954 87.5476Z" fill="#3A3A3B"/>
<path d="M387.276 82.5581C374.983 86.0201 375.398 93.2328 384.232 103.846C376.761 104.368 369.946 106.391 363.819 105.8C358.218 104.717 356.704 105.05 360.136 109.203C365.682 114.385 376.476 118.429 392.611 125.18C424.978 138.535 421.826 180.702 379.943 191.548C365.099 195.922 350.942 190.669 331.531 187.473C325.902 186.546 323.151 187.76 319.995 189.93C308.37 164.136 328.743 134.12 364.888 133.419C342.845 124.43 335.044 116.77 331.85 96.9108C327.714 64.0535 380.028 54.5712 387.276 82.5581Z" fill="#FBD5DA"/>
<path d="M377.954 157.164C378.241 156.244 379.26 155.691 380.231 155.927C385.532 157.219 389.128 160.017 390.902 163.52C392.669 167.009 392.544 171.041 390.723 174.612C387.023 181.868 376.753 186.747 361.988 183.149C361.017 182.913 360.463 181.976 360.75 181.056C361.037 180.137 362.056 179.583 363.027 179.82C376.681 183.146 384.757 178.453 387.426 173.219C388.789 170.545 388.855 167.602 387.58 165.084C386.312 162.58 383.634 160.339 379.192 159.257C378.221 159.02 377.667 158.083 377.954 157.164Z" fill="#F8B0BB"/>
<path d="M362.475 153.96C362.475 153.96 362.476 153.96 362.004 155.782L362.475 153.96C363.557 154.24 364.225 155.284 363.965 156.289C363.721 157.233 362.748 157.808 361.736 157.646L361.533 157.603L361.494 157.593C361.465 157.586 361.419 157.575 361.36 157.56C361.24 157.53 361.06 157.487 360.829 157.433C360.367 157.325 359.701 157.177 358.894 157.016C357.273 156.693 355.114 156.326 352.92 156.137C350.694 155.945 348.578 155.949 346.974 156.287C345.329 156.634 344.742 157.202 344.569 157.736C344.422 158.19 344.526 158.9 345.751 160.045C346.942 161.159 348.788 162.27 350.857 163.277C352.893 164.269 355.006 165.094 356.622 165.674C357.426 165.962 358.101 166.188 358.572 166.34C358.807 166.416 358.99 166.474 359.114 166.512C359.175 166.531 359.222 166.546 359.252 166.555C359.267 166.559 359.278 166.563 359.285 166.565L359.293 166.567C360.357 166.884 360.98 167.937 360.69 168.927C360.401 169.917 359.307 170.475 358.238 170.179C358.236 170.178 358.232 170.178 358.226 170.177C358.214 170.173 358.193 170.168 358.165 170.16C358.107 170.145 358.017 170.123 357.898 170.095C357.661 170.038 357.314 169.96 356.888 169.881C356.028 169.719 354.89 169.556 353.719 169.526C352.529 169.496 351.435 169.608 350.591 169.911C349.794 170.197 349.297 170.618 349.039 171.236C348.96 171.425 348.885 171.873 349.82 172.846C350.725 173.786 352.188 174.774 353.876 175.701C355.532 176.611 357.266 177.389 358.599 177.943C359.262 178.219 359.818 178.437 360.207 178.584C360.401 178.658 360.552 178.714 360.654 178.751C360.705 178.769 360.743 178.783 360.767 178.792C360.779 178.796 360.788 178.8 360.794 178.802C360.796 178.802 360.798 178.803 360.799 178.803C361.853 179.175 362.417 180.269 362.057 181.244C361.697 182.22 360.551 182.709 359.497 182.337L360.149 180.57C359.522 182.27 359.498 182.334 359.497 182.337L359.495 182.336C359.494 182.336 359.493 182.335 359.492 182.335C359.489 182.334 359.485 182.333 359.481 182.331C359.472 182.328 359.459 182.324 359.443 182.318C359.411 182.306 359.365 182.29 359.307 182.268C359.19 182.225 359.021 182.163 358.81 182.083C358.386 181.922 357.786 181.688 357.075 181.392C355.66 180.804 353.772 179.959 351.931 178.947C350.121 177.953 348.212 176.72 346.868 175.323C345.556 173.958 344.357 171.949 345.278 169.748C345.981 168.067 347.322 167.045 348.79 166.465C346.689 165.423 344.527 164.146 342.954 162.676C341.337 161.164 339.903 159.001 340.706 156.52C341.484 154.12 343.792 153.052 345.957 152.596C348.162 152.131 350.769 152.166 353.147 152.371C355.556 152.578 357.884 152.976 359.597 153.317C360.457 153.489 361.17 153.648 361.67 153.765C361.921 153.823 362.118 153.871 362.255 153.904C362.324 153.921 362.377 153.935 362.414 153.944L362.475 153.96Z" fill="#FDEDEF"/>
<path d="M387.275 82.5633C375.286 86.1979 375.091 92.7864 384.451 103.969L391.457 106.042C391.701 96.8764 393.724 92.5932 400.842 86.4717L387.275 82.5633Z" fill="white"/>
<path d="M387.163 81.7104C387.301 81.6892 387.443 81.6974 387.576 81.7358L401.143 85.6443C401.451 85.7332 401.681 85.9713 401.744 86.2692C401.808 86.5671 401.697 86.8798 401.452 87.0904C397.939 90.1118 395.76 92.6158 394.41 95.4388C393.058 98.2654 392.498 101.494 392.377 106.028C392.37 106.303 392.222 106.563 391.981 106.727C391.74 106.891 391.433 106.94 391.157 106.858L384.151 104.785C383.982 104.735 383.834 104.639 383.726 104.509C381.364 101.688 379.577 99.1234 378.428 96.7971C377.28 94.4752 376.738 92.3326 376.949 90.3748C377.386 86.3246 380.934 83.5876 387.025 81.7412L387.163 81.7104ZM387.258 83.4604C381.555 85.2386 379.086 87.5849 378.773 90.4871C378.607 92.0285 379.022 93.8571 380.096 96.029C381.141 98.1448 382.785 100.532 385.019 103.22L390.588 104.869C390.775 100.813 391.371 97.6477 392.741 94.7824C394.076 91.9919 396.113 89.5505 399.08 86.866L387.258 83.4604Z" fill="#3A3A3B"/>
<path d="M375.651 86.0575C376.288 88.5177 374.81 91.0292 372.349 91.6663C369.889 92.3035 367.377 90.8253 366.74 88.3651C366.103 85.9049 367.581 83.3935 370.042 82.7564C372.502 82.1192 375.014 83.5973 375.651 86.0575Z" fill="white"/>
<path d="M373.729 90.2704C374.713 90.0156 375.304 89.0111 375.05 88.0269C374.795 87.0428 373.79 86.4516 372.806 86.7064C371.821 86.9613 371.23 87.9658 371.485 88.95C371.74 89.9341 372.744 90.5253 373.729 90.2704Z" fill="#4B454C"/>
<path d="M123.09 185.385C124.047 189.79 123.141 193.894 119.432 196.029C118.553 196.535 116.499 196.684 115.455 196.911C114.41 197.138 112.11 197.936 111.099 197.84C106.839 197.438 104.311 194.08 103.353 189.675C102.395 185.27 102.595 181.791 106.304 179.656C109.026 178.09 110.325 179.241 111.37 179.014C112.415 178.787 113.535 177.353 115.88 177.574C120.14 177.977 122.132 180.98 123.09 185.385Z" fill="#DB4533"/>
<path d="M103.461 175.725C103.253 178.13 107.266 181.98 110.851 180.476C110.532 176.9 105.68 174.772 103.461 175.725Z" fill="#69AF24"/>
<path d="M117.248 172.01C114.842 171.802 110.992 175.815 112.497 179.4C116.072 179.081 118.201 174.229 117.248 172.01Z" fill="#69AF24"/>
<path d="M112.49 176.902C112.636 176.261 112.235 175.623 111.594 175.477C110.954 175.331 110.316 175.731 110.17 176.372L111.33 176.637L112.49 176.902ZM111.33 176.637L110.17 176.372C110.033 176.969 109.917 177.619 109.96 178.338C110.004 179.072 110.21 179.81 110.623 180.621L111.683 180.081L112.744 179.54C112.457 178.979 112.357 178.558 112.336 178.195C112.313 177.817 112.369 177.43 112.49 176.902L111.33 176.637Z" fill="#795231"/>
<path d="M627 52C627 49.2386 629.239 47 632 47C634.761 47 637 49.2386 637 52V215H627V52Z" fill="#614743"/>
<path d="M572 68C572 65.7909 573.791 64 576 64H684.386C685.426 64 686.426 64.4055 687.172 65.1304L700.045 77.6304C701.663 79.2014 701.663 81.7986 700.045 83.3696L687.172 95.8696C686.426 96.5945 685.426 97 684.386 97H576C573.791 97 572 95.2091 572 93V68Z" fill="#F68C9E"/>
<path d="M579 67H683.139C683.872 67.0001 684.58 67.2691 685.129 67.7559L696.964 78.2559C698.309 79.4495 698.309 81.5505 696.964 82.7441L685.129 93.2441C684.58 93.7309 683.872 93.9999 683.139 94H579C577.343 94 576 92.6569 576 91V70C576 68.3431 577.343 67 579 67Z" fill="#F68C9E" stroke="white" stroke-width="2"/>
<path d="M588.047 86V74.6875H590.078V79.8906H590.234L594.656 74.6875H597.141L592.766 79.7656L597.188 86H594.734L591.344 81.1406L590.078 82.625V86H588.047ZM598.438 86V74.6875H605.797V76.3906H600.469V79.4844H605.406V81.1875H600.469V84.2812H605.828V86H598.438ZM607.75 86V74.6875H615.109V76.3906H609.781V79.4844H614.719V81.1875H609.781V84.2812H615.141V86H607.75ZM617.062 86V74.6875H621.312C623.906 74.6875 625.289 76.2656 625.297 78.4375C625.289 80.6016 623.891 82.1719 621.281 82.1719H619.094V86H617.062ZM619.094 80.5H621C622.531 80.4922 623.219 79.6328 623.219 78.4375C623.219 77.2266 622.531 76.3906 621 76.3906H619.094V80.5ZM638.312 78.2969C637.945 77.0938 637.016 76.3594 635.641 76.3594C633.82 76.3594 632.492 77.7812 632.5 80.3281C632.492 82.8984 633.797 84.3281 635.688 84.3281C637.398 84.3281 638.484 83.2969 638.516 81.6875H635.891V80.0781H640.484V81.4375C640.484 84.3516 638.484 86.1562 635.688 86.1562C632.562 86.1562 630.445 83.9297 630.453 80.3438C630.445 76.7109 632.664 74.5312 635.625 74.5312C638.117 74.5312 640.047 76.0781 640.391 78.2969H638.312ZM652.422 80.3438C652.43 84 650.195 86.1562 647.234 86.1562C644.258 86.1562 642.039 83.9922 642.047 80.3438C642.039 76.6875 644.258 74.5312 647.234 74.5312C650.195 74.5312 652.43 76.6875 652.422 80.3438ZM644.094 80.3438C644.086 82.9297 645.391 84.3281 647.234 84.3281C649.086 84.3281 650.383 82.9297 650.375 80.3438C650.383 77.7578 649.086 76.3594 647.234 76.3594C645.391 76.3594 644.086 77.7578 644.094 80.3438ZM656.266 74.6875V86H654.234V74.6875H656.266ZM667.672 74.6875V86H665.859L660.5 78.2656H660.406V86H658.375V74.6875H660.219L665.547 82.4219H665.656V74.6875H667.672ZM677.344 78.2969C676.977 77.0938 676.047 76.3594 674.672 76.3594C672.852 76.3594 671.523 77.7812 671.531 80.3281C671.523 82.8984 672.828 84.3281 674.719 84.3281C676.43 84.3281 677.516 83.2969 677.547 81.6875H674.922V80.0781H679.516V81.4375C679.516 84.3516 677.516 86.1562 674.719 86.1562C671.594 86.1562 669.477 83.9297 669.484 80.3438C669.477 76.7109 671.695 74.5312 674.656 74.5312C677.148 74.5312 679.078 76.0781 679.422 78.2969H677.344Z" fill="white"/>
<rect x="601" y="117" width="62" height="62" rx="11" fill="#F68C9E" stroke="white" stroke-width="2"/>
<path d="M613.547 128.391V126.688H622.562V128.391H619.078V138H617.047V128.391H613.547ZM624.156 138V126.688H626.188V131.484H631.453V126.688H633.5V138H631.453V133.188H626.188V138H624.156ZM637.625 126.688V138H635.594V126.688H637.625ZM645.891 129.797C645.789 128.82 644.969 128.258 643.75 128.266C642.461 128.258 641.695 128.883 641.688 129.734C641.68 130.688 642.688 131.078 643.625 131.297L644.688 131.578C646.375 131.969 648 132.859 648 134.828C648 136.812 646.43 138.172 643.719 138.172C641.086 138.172 639.414 136.906 639.328 134.672H641.328C641.422 135.852 642.414 136.43 643.703 136.438C645.039 136.43 645.961 135.781 645.969 134.812C645.961 133.922 645.148 133.547 643.922 133.234L642.641 132.906C640.781 132.422 639.625 131.484 639.625 129.859C639.625 127.859 641.398 126.531 643.781 126.531C646.18 126.531 647.812 127.883 647.844 129.797H645.891ZM616.438 156L613.25 144.688H615.438L617.484 153.016H617.594L619.766 144.688H621.766L623.953 153.031H624.047L626.094 144.688H628.281L625.094 156H623.078L620.812 148.047H620.734L618.453 156H616.438ZM629.953 156H627.781L631.766 144.688H634.266L638.266 156H636.094L635.148 153.203H630.891L629.953 156ZM631.438 151.562H634.602L633.062 147H632.969L631.438 151.562ZM637.672 144.688H639.969L642.75 149.688H642.859L645.641 144.688H647.938L643.828 151.766V156H641.797V151.766L637.672 144.688Z" fill="white"/>
<path d="M614.736 170.789L614 162.684L643.434 163.421V159L653 165.632L643.434 173V167.842L614.736 170.789Z" fill="white"/>
<path d="M769 13C769 10.2386 771.239 8 774 8C776.761 8 779 10.2386 779 13V215H769V13Z" fill="#614743"/>
<rect x="753" y="8" width="42" height="117" rx="4" fill="#F68C9E"/>
<circle cx="773.5" cy="9.5" r="9.5" fill="#F68C9E"/>
<circle cx="773.5" cy="124.5" r="9.5" fill="#F68C9E"/>
<ellipse cx="774" cy="35" rx="12" ry="12" transform="rotate(90 774 35)" fill="#F46482"/>
<g clip-path="url(#clip0_28556_40362)">
<rect x="767" y="31" width="14" height="9" rx="2.62784" fill="#FDEDEF"/>
<path d="M772.924 36.262C773.639 36.6028 774.47 36.6028 775.185 36.262L782.73 32.6667C783.572 32.2652 783.286 31 782.353 31H765.757C764.824 31 764.538 32.2652 765.38 32.6667L772.924 36.262Z" fill="#F8B0BB"/>
</g>
<ellipse cx="775" cy="66" rx="12" ry="12" transform="rotate(90 775 66)" fill="#E13F6D"/>
<rect x="768" y="66.3086" width="4.30719" height="5.38399" rx="1.21659" fill="#FDEDEF"/>
<rect x="772.844" y="64.1543" width="4.30719" height="7.53759" rx="1.21659" fill="#FBD5DA"/>
<rect x="777.695" y="62" width="4.30719" height="9.69118" rx="1.21659" fill="#F8B0BB"/>
<ellipse cx="774" cy="97" rx="12" ry="12" transform="rotate(90 774 97)" fill="#BD335A"/>
<path d="M767.826 92.7205C767.802 92.0157 768.38 91.4377 769.085 91.4624L773.897 91.6316C774.205 91.6424 774.497 91.7695 774.715 91.9872L781.063 98.3346C781.538 98.8097 781.538 99.5803 781.063 100.055L776.419 104.699C775.944 105.174 775.174 105.174 774.699 104.699L768.351 98.3512C768.133 98.1335 768.006 97.8413 767.995 97.5336L767.826 92.7205ZM769.895 93.5388C769.504 93.9293 769.504 94.5625 769.895 94.953C770.285 95.3436 770.918 95.3436 771.309 94.953C771.699 94.5625 771.699 93.9294 771.309 93.5388C770.918 93.1484 770.285 93.1484 769.895 93.5388Z" fill="#FBD5DA"/>
<path d="M455 236.916L467 236.916" stroke="#F68C9E" stroke-width="3" stroke-linecap="round"/>
<path d="M458.939 235.855L457.879 236.916L460 239.037L461.061 237.977L460 236.916L458.939 235.855ZM466.061 232.977C466.646 232.391 466.646 231.441 466.061 230.855C465.475 230.27 464.525 230.27 463.939 230.855L465 231.916L466.061 232.977ZM460 236.916L461.061 237.977L466.061 232.977L465 231.916L463.939 230.855L458.939 235.855L460 236.916Z" fill="#F68C9E"/>
<path d="M466.061 240.855C466.646 241.441 466.646 242.391 466.061 242.977C465.475 243.562 464.525 243.562 463.939 242.977L465 241.916L466.061 240.855ZM458.939 237.977L457.879 236.916L460 234.795L461.061 235.855L460 236.916L458.939 237.977ZM465 241.916L463.939 242.977L458.939 237.977L460 236.916L461.061 235.855L466.061 240.855L465 241.916Z" fill="#F68C9E"/>
<path d="M552 217.914L564 217.914" stroke="#F68C9E" stroke-width="3" stroke-linecap="round"/>
<path d="M555.939 216.853L554.879 217.914L557 220.035L558.061 218.975L557 217.914L555.939 216.853ZM563.061 213.975C563.646 213.389 563.646 212.439 563.061 211.853C562.475 211.268 561.525 211.268 560.939 211.853L562 212.914L563.061 213.975ZM557 217.914L558.061 218.975L563.061 213.975L562 212.914L560.939 211.853L555.939 216.853L557 217.914Z" fill="#F68C9E"/>
<path d="M563.061 221.853C563.646 222.439 563.646 223.389 563.061 223.975C562.475 224.561 561.525 224.561 560.939 223.975L562 222.914L563.061 221.853ZM555.939 218.975L554.879 217.914L557 215.793L558.061 216.853L557 217.914L555.939 218.975ZM562 222.914L560.939 223.975L555.939 218.975L557 217.914L558.061 216.853L563.061 221.853L562 222.914Z" fill="#F68C9E"/>
<path d="M644 241.914L656 241.914" stroke="#F68C9E" stroke-width="3" stroke-linecap="round"/>
<path d="M647.939 240.853L646.879 241.914L649 244.035L650.061 242.975L649 241.914L647.939 240.853ZM655.061 237.975C655.646 237.389 655.646 236.439 655.061 235.853C654.475 235.268 653.525 235.268 652.939 235.853L654 236.914L655.061 237.975ZM649 241.914L650.061 242.975L655.061 237.975L654 236.914L652.939 235.853L647.939 240.853L649 241.914Z" fill="#F68C9E"/>
<path d="M655.061 245.855C655.646 246.441 655.646 247.391 655.061 247.977C654.475 248.562 653.525 248.562 652.939 247.977L654 246.916L655.061 245.855ZM647.939 242.977L646.879 241.916L649 239.795L650.061 240.855L649 241.916L647.939 242.977ZM654 246.916L652.939 247.977L647.939 242.977L649 241.916L650.061 240.855L655.061 245.855L654 246.916Z" fill="#F68C9E"/>
<path d="M741 222.916L753 222.916" stroke="#F68C9E" stroke-width="3" stroke-linecap="round"/>
<path d="M744.939 221.855L743.879 222.916L746 225.037L747.061 223.977L746 222.916L744.939 221.855ZM752.061 218.977C752.646 218.391 752.646 217.441 752.061 216.855C751.475 216.27 750.525 216.27 749.939 216.855L751 217.916L752.061 218.977ZM746 222.916L747.061 223.977L752.061 218.977L751 217.916L749.939 216.855L744.939 221.855L746 222.916Z" fill="#F68C9E"/>
<path d="M752.061 226.855C752.646 227.441 752.646 228.391 752.061 228.977C751.475 229.562 750.525 229.562 749.939 228.977L751 227.916L752.061 226.855ZM744.939 223.977L743.879 222.916L746 220.795L747.061 221.855L746 222.916L744.939 223.977ZM751 227.916L749.939 228.977L744.939 223.977L746 222.916L747.061 221.855L752.061 226.855L751 227.916Z" fill="#F68C9E"/>
<defs>
<clipPath id="clip0_28556_40362">
<rect x="767" y="31" width="14" height="9" rx="2.62784" fill="white"/>
</clipPath>
</defs>
</svg>
