<svg width="50" height="50" viewBox="0 0 50 50" fill="none" xmlns="http://www.w3.org/2000/svg">
<g clip-path="url(#clip0_28485_38077)">
<path d="M8.52213 25.8934C9.43865 24.0003 10.1809 23.1682 11.981 22.0895C11.1194 19.2034 10.0191 18.2067 7.5255 16.9648C4.47698 19.7121 5.53223 25.4708 8.52213 25.8934Z" fill="#313131" stroke="#3A3A3B" stroke-width="1.5" stroke-linecap="round" stroke-linejoin="round"/>
<path d="M11.5158 14.0806C15.9133 14.1717 16.3978 16.5654 14.369 20.7839C16.9049 20.3219 19.3516 20.4067 21.3433 19.6946C23.117 18.8662 23.6507 18.8468 22.8651 20.4953C21.4635 22.6595 18.2142 24.8959 13.4176 28.4699C3.77987 35.5776 8.47192 49.0998 23.3719 49.0998C28.6984 49.2732 32.9649 46.3567 39.1604 43.6679C40.957 42.8881 41.9789 43.052 43.2188 43.4945C44.8671 34.0751 35.4829 25.985 23.3719 28.8166C29.9446 24.0105 31.884 20.8451 31.2342 14.0806C29.7759 2.98583 11.5158 4.31493 11.5158 14.0806Z" fill="#F68C9E"/>
<path d="M14.8351 35.7148C13.2455 43.2935 23.5462 46.109 33.529 42.8741" stroke="#F46482" stroke-width="2" stroke-linecap="round" stroke-linejoin="round"/>
<path d="M30.603 35.7148C30.603 35.7148 36.9885 35.7148 37.1188 37.7377C37.2491 39.7608 30.603 39.9856 30.603 39.9856C30.603 39.9856 34.1231 39.9294 34.3839 41.615C34.6449 43.3009 29.0391 43.7506 29.0391 43.7506" stroke="#F8DFDF" stroke-width="2" stroke-linecap="round" stroke-linejoin="round"/>
<path d="M11.625 14.2852C15.8854 14.4586 16.5118 16.5976 14.3822 21.049L12.2507 22.3209C11.3879 19.3429 10.3559 18.1129 7.48828 16.7132L11.625 14.2852Z" fill="white" stroke="#3A3A3B" stroke-width="1.5" stroke-linecap="round" stroke-linejoin="round"/>
<path d="M15.5703 12.0541C15.5703 12.7937 16.1734 13.3934 16.9173 13.3934C17.6611 13.3934 18.2642 12.7937 18.2642 12.0541C18.2642 11.3145 17.6611 10.7148 16.9173 10.7148C16.1734 10.7148 15.5703 11.3145 15.5703 12.0541Z" fill="white"/>
<path d="M16.4683 13.3931C15.9724 13.3931 15.5703 12.9934 15.5703 12.5003C15.5703 12.0072 15.9724 11.6074 16.4683 11.6074C16.9642 11.6074 17.3662 12.0072 17.3662 12.5003C17.3662 12.9934 16.9642 13.3931 16.4683 13.3931Z" fill="#4B454C"/>
<path d="M21.6402 0.680914C26.1911 0.723272 29.8974 3.37062 30.2453 6.70138L12.9199 6.54075C13.3313 3.21671 17.0891 0.638574 21.6402 0.680914Z" fill="#FACC15"/>
<rect width="23.1104" height="2.86473" rx="1.04853" transform="matrix(0.999956 0.00938408 -0.00954245 0.999954 10.0273 6.51367)" fill="#FACC15"/>
<path d="M18.7302 2.79883C18.7455 1.20346 20.0511 -0.0777068 21.6465 -0.062735V-0.062735C23.2419 -0.0477633 24.5228 1.25768 24.5076 2.85304L24.4714 6.64844L18.694 6.59423L18.7302 2.79883Z" fill="#EAB308"/>
</g>
<defs>
<clipPath id="clip0_28485_38077">
<rect width="44" height="50" fill="white" transform="translate(3)"/>
</clipPath>
</defs>
</svg>
