<svg width="810" height="255" viewBox="0 0 810 255" fill="none" xmlns="http://www.w3.org/2000/svg">
<rect x="93.8281" y="76.3247" width="58.3964" height="58.3964" rx="14.0151" fill="#1E2841"/>
<g clip-path="url(#clip0_4903_169239)">
<rect x="111.734" y="98.3174" width="21.6797" height="14.0151" rx="2.62784" fill="#384568"/>
<path d="M121.172 106.188C122.102 106.879 123.375 106.879 124.304 106.188L132.782 99.8967C133.46 99.3937 133.104 98.3174 132.26 98.3174H113.217C112.373 98.3174 112.017 99.3937 112.695 99.8967L121.172 106.188Z" fill="#303B59"/>
</g>
<path d="M118.134 217.738L98.2836 229.082L103.955 239.009C104.617 238.631 112.519 234.641 138.836 221.707C134.298 213.767 123.144 215.753 118.134 217.738Z" fill="black"/>
<rect x="60.3945" y="171.906" width="31.2224" height="68.9188" transform="rotate(-29.9324 60.3945 171.906)" fill="#1F2C3E"/>
<path d="M118.197 128.463C116.894 130.984 113.385 132.63 111.793 133.138L102.646 133.113L105.848 145.099C108.479 144.931 115.181 144.26 120.947 142.917C128.155 141.239 128.116 140.631 131.642 138.578C137.636 135.087 136.437 132.786 133.722 132.959L123.402 133.617L123.401 133.617C122.187 133.695 119.153 133.888 121.426 131.305C123.699 128.722 119.826 125.312 118.197 128.463Z" fill="#64707E"/>
<path d="M52.8544 183.72C49.8574 176.113 47.7466 168.187 46.5638 160.097L79.3767 160.267L85.5948 196.535L58.5464 198.168L52.8544 183.72Z" fill="#1F2C3E"/>
<path d="M33.6015 215.017L27.5191 192.828L20.6478 194.074C18.2517 194.509 16.5988 196.833 16.9519 199.242C17.7053 204.383 19.1678 214.65 21.7551 233.322C30.7432 231.692 33.9118 220.375 33.6015 215.017Z" fill="black"/>
<path d="M34.3229 217.729L25.6698 190.945L70.4185 179.537C76.2867 178.041 82.2508 181.609 83.7071 187.487L85.286 193.86C86.7353 199.71 83.1677 205.628 77.3176 207.077L34.3229 217.729Z" fill="#1F2C3E"/>
<path d="M39.8818 76.7824C42.3276 88.9682 53.7176 97.3422 65.9033 94.8964C83.7522 93.6213 84.9145 77.9584 84.7843 72.5924C84.7552 71.3954 84.445 70.2502 83.9226 69.1728C81.128 63.409 70.7829 44.6561 57.0465 50.768C44.8608 53.2137 37.4361 64.5967 39.8818 76.7824Z" fill="#64707E"/>
<path d="M84.754 68.9871C83.5337 69.1872 82.0059 64.6391 81.0113 63.8548L80.3375 71.071L80.9902 87.1045C85.4178 81.9359 86.5639 71.5045 86.4167 70.2753C86.2571 68.942 85.6256 68.8442 84.754 68.9871Z" fill="#64707E"/>
<path fill-rule="evenodd" clip-rule="evenodd" d="M72.6089 52.9649C67.5506 54.7652 58.6098 58.6542 52.9501 68.664C47.4147 78.4538 48.0723 83.1794 49.0364 90.108C49.0955 90.5323 49.1557 90.965 49.2157 91.4075C44.2137 88.233 40.4655 83.1007 39.2077 76.8336C36.7619 64.6478 44.6578 52.7867 56.8435 50.3409C62.4653 49.2126 68.0179 50.2853 72.6089 52.9649Z" fill="#0F172A"/>
<ellipse cx="1.60745" cy="1.61402" rx="1.60745" ry="1.61402" transform="matrix(-0.90602 0.423235 0.423235 0.90602 73.9648 63.2744)" fill="#1F2C3E"/>
<circle cx="5.62606" cy="5.62606" r="5.62606" transform="matrix(-0.980447 0.196781 0.196781 0.980447 53.5039 69.3755)" fill="#64707E"/>
<rect x="53.0586" y="86.9541" width="15.2082" height="17.5864" rx="7.60409" transform="rotate(1.73691 53.0586 86.9541)" fill="#64707E"/>
<mask id="path-16-outside-1_4903_169239" maskUnits="userSpaceOnUse" x="28.7905" y="32.9528" width="45.1851" height="34.8322" fill="black">
<rect fill="white" x="28.7905" y="32.9528" width="45.1851" height="34.8322"/>
<path fill-rule="evenodd" clip-rule="evenodd" d="M68.6102 48.601L39.018 62.7563C36.923 56.7173 41.1487 49.1676 48.9211 45.4497C56.6935 41.7318 65.2233 43.18 68.6102 48.601Z"/>
</mask>
<path fill-rule="evenodd" clip-rule="evenodd" d="M68.6102 48.601L39.018 62.7563C36.923 56.7173 41.1487 49.1676 48.9211 45.4497C56.6935 41.7318 65.2233 43.18 68.6102 48.601Z" fill="#1F2C3E"/>
<path d="M39.018 62.7563L35.9391 63.8244L37.1343 67.2698L40.4242 65.6961L39.018 62.7563ZM68.6102 48.601L70.0164 51.5409L73.3063 49.9672L71.374 46.8743L68.6102 48.601ZM40.4242 65.6961L70.0164 51.5409L67.2039 45.6611L37.6117 59.8164L40.4242 65.6961ZM42.0968 61.6882C40.7612 57.8381 43.3705 51.7173 50.3274 48.3896L47.5148 42.5098C38.9269 46.6178 33.0847 55.5964 35.9391 63.8244L42.0968 61.6882ZM50.3274 48.3896C57.2842 45.0618 63.6871 46.8716 65.8463 50.3277L71.374 46.8743C66.7595 39.4883 56.1028 38.4018 47.5148 42.5098L50.3274 48.3896Z" fill="#1F2C3E" mask="url(#path-16-outside-1_4903_169239)"/>
<rect x="34.0859" y="65.1162" width="43.7382" height="5.46727" rx="1.82242" transform="rotate(-25.5639 34.0859 65.1162)" fill="#1F2C3E"/>
<path d="M45.7311 106.738C49.4464 97.9915 56.2492 97.9357 59.3172 98.4995L65.2333 133.272L98.8135 131.327L101.734 150.537C86.4649 151.548 51.2589 162.131 40.8237 150.114C34.0625 142.328 41.0868 117.671 45.7311 106.738Z" fill="#1F2C3E"/>
<path fill-rule="evenodd" clip-rule="evenodd" d="M86.3918 128.554C86.3815 128.475 86.3711 128.395 86.3604 128.315C83.7679 108.813 71.9527 94.2955 59.9705 95.8884C45.7941 96.3981 40.3955 114.518 42.9555 133.981L42.9549 133.981L46.7197 162.3L90.1111 156.532L86.3918 128.554Z" fill="#1F2C3E"/>
<path d="M53.5714 104.615C57.4383 95.9475 63.9487 96.3817 67.0624 97.0072L73.1298 131.531L107.406 127.794L111.057 152.802C95.5214 153.503 58.6268 160.094 48.1393 147.872C41.3442 139.953 48.7378 115.449 53.5714 104.615Z" fill="#1F2C3E"/>
<rect x="55.0156" y="151.4" width="35.2812" height="24.3319" fill="#1F2C3E"/>
<rect x="258.219" y="76.3247" width="58.3964" height="58.3964" rx="14.0151" fill="#1E2841"/>
<rect x="272.82" y="104.442" width="8.65133" height="10.8142" rx="1.21659" fill="#303B59"/>
<rect x="282.555" y="100.116" width="8.65133" height="15.1398" rx="1.21659" fill="#303B59"/>
<rect x="292.285" y="95.7905" width="8.65133" height="19.4655" rx="1.21659" fill="#303B59"/>
<path d="M282.521 217.737L262.67 229.081L268.342 239.008C269.004 238.63 276.906 234.64 303.223 221.707C298.685 213.767 287.531 215.752 282.521 217.737Z" fill="black"/>
<rect x="224.781" y="171.905" width="31.2224" height="68.9188" transform="rotate(-29.9324 224.781 171.905)" fill="#1F2C3E"/>
<path d="M282.588 128.462C281.285 130.984 277.775 132.63 276.183 133.137L267.036 133.112L270.239 145.099C272.869 144.931 279.572 144.26 285.338 142.917C292.545 141.238 292.506 140.63 296.033 138.577C302.026 135.087 300.827 132.786 298.113 132.959L287.793 133.617L287.792 133.617C286.578 133.694 283.543 133.888 285.817 131.305C288.09 128.722 284.216 125.311 282.588 128.462Z" fill="#64707E"/>
<path d="M217.245 183.719C214.248 176.113 212.137 168.186 210.954 160.096L243.767 160.266L249.985 196.534L222.937 198.167L217.245 183.719Z" fill="#1F2C3E"/>
<path d="M197.992 215.016L191.91 192.827L185.038 194.073C182.642 194.508 180.989 196.832 181.343 199.242C182.096 204.382 183.558 214.649 186.146 233.321C195.134 231.691 198.302 220.374 197.992 215.016Z" fill="black"/>
<path d="M198.713 217.728L190.06 190.945L234.809 179.536C240.677 178.04 246.641 181.609 248.098 187.487L249.677 193.86C251.126 199.71 247.558 205.627 241.708 207.077L198.713 217.728Z" fill="#1F2C3E"/>
<path d="M204.265 76.78C206.71 88.9657 218.1 97.3397 230.286 94.894C248.135 93.6188 249.297 77.956 249.167 72.59C249.138 71.3929 248.828 70.2478 248.305 69.1704C245.511 63.4066 235.166 44.6537 221.429 50.7655C209.244 53.2113 201.819 64.5943 204.265 76.78Z" fill="#64707E"/>
<path d="M249.137 68.9846C247.917 69.1847 246.389 64.6367 245.394 63.8523L244.72 71.0686L245.373 87.102C249.801 81.9335 250.947 71.5021 250.8 70.2728C250.64 68.9396 250.008 68.8417 249.137 68.9846Z" fill="#64707E"/>
<path fill-rule="evenodd" clip-rule="evenodd" d="M236.992 52.9612C231.934 54.7612 222.992 58.6499 217.331 68.661C211.796 78.4507 212.453 83.1763 213.417 90.1049C213.476 90.5286 213.536 90.9606 213.596 91.4025C208.595 88.2279 204.848 83.096 203.59 76.8297C201.145 64.644 209.04 52.7828 221.226 50.3371C226.848 49.2087 232.401 50.2815 236.992 52.9612Z" fill="#0F172A"/>
<ellipse cx="1.60745" cy="1.61402" rx="1.60745" ry="1.61402" transform="matrix(-0.90602 0.423235 0.423235 0.90602 238.348 63.272)" fill="#1F2C3E"/>
<circle cx="5.62606" cy="5.62606" r="5.62606" transform="matrix(-0.980447 0.196781 0.196781 0.980447 217.887 69.3735)" fill="#64707E"/>
<rect x="217.441" y="86.9517" width="15.2082" height="17.5864" rx="7.60409" transform="rotate(1.73691 217.441 86.9517)" fill="#64707E"/>
<mask id="path-39-outside-2_4903_169239" maskUnits="userSpaceOnUse" x="193.173" y="32.9518" width="45.1851" height="34.8322" fill="black">
<rect fill="white" x="193.173" y="32.9518" width="45.1851" height="34.8322"/>
<path fill-rule="evenodd" clip-rule="evenodd" d="M232.993 48.5997L203.401 62.7549C201.306 56.716 205.532 49.1666 213.304 45.4488C221.076 41.7309 229.606 43.1789 232.993 48.5997Z"/>
</mask>
<path fill-rule="evenodd" clip-rule="evenodd" d="M232.993 48.5997L203.401 62.7549C201.306 56.716 205.532 49.1666 213.304 45.4488C221.076 41.7309 229.606 43.1789 232.993 48.5997Z" fill="#1F2C3E"/>
<path d="M203.401 62.7549L200.322 63.8229L201.517 67.2686L204.807 65.6948L203.401 62.7549ZM232.993 48.5997L234.399 51.5396L237.689 49.9658L235.756 46.8728L232.993 48.5997ZM204.807 65.6948L234.399 51.5396L231.586 45.6598L201.994 59.8151L204.807 65.6948ZM206.48 61.687C205.144 57.8369 207.753 51.7163 214.71 48.3886L211.898 42.5089C203.31 46.6168 197.468 55.5951 200.322 63.8229L206.48 61.687ZM214.71 48.3886C221.667 45.0609 228.07 46.8706 230.229 50.3266L235.756 46.8728C231.142 39.4873 220.485 38.401 211.898 42.5089L214.71 48.3886Z" fill="#1F2C3E" mask="url(#path-39-outside-2_4903_169239)"/>
<rect x="198.465" y="65.1147" width="43.7382" height="5.46727" rx="1.82242" transform="rotate(-25.5639 198.465 65.1147)" fill="#1F2C3E"/>
<path d="M210.118 106.738C213.833 97.991 220.636 97.9352 223.704 98.499L229.62 133.272L263.2 131.326L266.121 150.537C250.852 151.547 215.646 162.13 205.21 150.114C198.449 142.328 205.474 117.671 210.118 106.738Z" fill="#1F2C3E"/>
<path fill-rule="evenodd" clip-rule="evenodd" d="M207.388 134.297C207.378 134.225 207.369 134.154 207.359 134.082C204.767 114.581 210.159 96.3981 224.361 95.8875C236.322 94.2974 248.117 108.762 250.737 128.212L250.737 128.212L254.502 156.531L211.111 162.3L207.388 134.297Z" fill="#1F2C3E"/>
<path d="M217.958 104.615C221.825 95.947 228.335 96.3812 231.449 97.0068L237.517 131.53L271.793 127.794L275.444 152.801C259.908 153.503 223.014 160.094 212.526 147.872C205.731 139.953 213.125 115.449 217.958 104.615Z" fill="#1F2C3E"/>
<rect x="219.406" y="151.399" width="35.2812" height="24.3319" fill="#1F2C3E"/>
<rect x="422.004" y="76.4004" width="58.3964" height="58.3964" rx="14.0151" fill="#1E2841"/>
<path fill-rule="evenodd" clip-rule="evenodd" d="M441.308 105.433C441.319 105.74 441.446 106.033 441.664 106.25L452.139 116.726C452.614 117.201 453.384 117.201 453.86 116.726L461.984 108.601C462.459 108.126 462.459 107.356 461.984 106.88L451.509 96.4052C451.291 96.1875 450.999 96.0604 450.691 96.0496L442.271 95.7536C441.566 95.7288 440.988 96.3071 441.012 97.0122L441.308 105.433ZM446.435 101.178C447.039 100.574 447.039 99.594 446.435 98.9899C445.831 98.3857 444.851 98.3857 444.247 98.9899C443.643 99.594 443.643 100.574 444.247 101.178C444.851 101.782 445.831 101.782 446.435 101.178Z" fill="#303B59"/>
<path d="M446.763 217.737L426.912 229.081L432.584 239.008C433.246 238.63 441.148 234.64 467.465 221.707C462.927 213.767 451.773 215.752 446.763 217.737Z" fill="black"/>
<rect x="389.023" y="171.905" width="31.2224" height="68.9188" transform="rotate(-29.9324 389.023 171.905)" fill="#1F2C3E"/>
<path d="M446.83 128.462C445.527 130.983 442.017 132.629 440.425 133.137L431.278 133.112L434.481 145.098C437.111 144.93 443.814 144.259 449.58 142.916C456.787 141.238 456.749 140.63 460.275 138.577C466.268 135.086 465.07 132.785 462.355 132.958L452.035 133.616L452.034 133.616C450.82 133.694 447.786 133.887 450.059 131.304C452.332 128.721 448.459 125.311 446.83 128.462Z" fill="#64707E"/>
<path d="M381.483 183.72C378.486 176.113 376.376 168.187 375.193 160.097L408.006 160.267L414.224 196.535L387.175 198.168L381.483 183.72Z" fill="#1F2C3E"/>
<path d="M362.23 215.017L356.148 192.828L349.277 194.074C346.881 194.509 345.228 196.833 345.581 199.242C346.334 204.383 347.797 214.65 350.384 233.322C359.372 231.692 362.541 220.375 362.23 215.017Z" fill="black"/>
<path d="M362.952 217.729L354.299 190.945L399.047 179.537C404.916 178.041 410.88 181.609 412.336 187.487L413.915 193.86C415.364 199.71 411.797 205.628 405.946 207.077L362.952 217.729Z" fill="#1F2C3E"/>
<path d="M368.507 76.7805C370.953 88.9662 382.343 97.3402 394.528 94.8945C412.377 93.6193 413.539 77.9565 413.409 72.5905C413.38 71.3934 413.07 70.2483 412.548 69.1708C409.753 63.4071 399.408 44.6542 385.672 50.766C373.486 53.2118 366.061 64.5947 368.507 76.7805Z" fill="#64707E"/>
<path d="M413.379 68.9856C412.159 69.1857 410.631 64.6376 409.636 63.8533L408.963 71.0696L409.615 87.103C414.043 81.9345 415.189 71.5031 415.042 70.2738C414.882 68.9405 414.251 68.8427 413.379 68.9856Z" fill="#64707E"/>
<path fill-rule="evenodd" clip-rule="evenodd" d="M401.234 52.9629C396.176 54.763 387.234 58.6518 381.574 68.6625C376.038 78.4523 376.696 83.1778 377.66 90.1064C377.719 90.5303 377.779 90.9625 377.839 91.4046C372.838 88.2301 369.09 83.0979 367.832 76.8312C365.386 64.6455 373.282 52.7843 385.468 50.3386C391.09 49.2102 396.643 50.2831 401.234 52.9629Z" fill="#0F172A"/>
<ellipse cx="1.60745" cy="1.61402" rx="1.60745" ry="1.61402" transform="matrix(-0.90602 0.423235 0.423235 0.90602 402.59 63.2729)" fill="#1F2C3E"/>
<circle cx="5.62606" cy="5.62606" r="5.62606" transform="matrix(-0.980447 0.196781 0.196781 0.980447 382.129 69.3745)" fill="#64707E"/>
<rect x="381.684" y="86.9526" width="15.2082" height="17.5864" rx="7.60409" transform="rotate(1.73691 381.684 86.9526)" fill="#64707E"/>
<mask id="path-60-outside-3_4903_169239" maskUnits="userSpaceOnUse" x="357.416" y="32.9528" width="45.1851" height="34.8322" fill="black">
<rect fill="white" x="357.416" y="32.9528" width="45.1851" height="34.8322"/>
<path fill-rule="evenodd" clip-rule="evenodd" d="M397.235 48.6007L367.643 62.7559C365.548 56.717 369.774 49.1675 377.546 45.4497C385.318 41.7319 393.848 43.1799 397.235 48.6007Z"/>
</mask>
<path fill-rule="evenodd" clip-rule="evenodd" d="M397.235 48.6007L367.643 62.7559C365.548 56.717 369.774 49.1675 377.546 45.4497C385.318 41.7319 393.848 43.1799 397.235 48.6007Z" fill="#1F2C3E"/>
<path d="M367.643 62.7559L364.564 63.8239L365.759 67.2695L369.049 65.6958L367.643 62.7559ZM397.235 48.6007L398.641 51.5405L401.931 49.9668L399.999 46.8738L397.235 48.6007ZM369.049 65.6958L398.641 51.5405L395.829 45.6608L366.237 59.816L369.049 65.6958ZM370.722 61.688C369.386 57.8379 371.996 51.7173 378.952 48.3896L376.14 42.5099C367.552 46.6178 361.71 55.596 364.564 63.8239L370.722 61.688ZM378.952 48.3896C385.909 45.0619 392.312 46.8716 394.471 50.3275L399.999 46.8738C395.384 39.4883 384.728 38.4019 376.14 42.5099L378.952 48.3896Z" fill="#1F2C3E" mask="url(#path-60-outside-3_4903_169239)"/>
<rect x="362.707" y="65.1157" width="43.7382" height="5.46727" rx="1.82242" transform="rotate(-25.5639 362.707 65.1157)" fill="#1F2C3E"/>
<path d="M374.36 106.738C378.075 97.991 384.878 97.9352 387.946 98.499L393.862 133.272L427.442 131.326L430.363 150.537C415.094 151.547 379.888 162.13 369.453 150.114C362.691 142.328 369.716 117.671 374.36 106.738Z" fill="#1F2C3E"/>
<path fill-rule="evenodd" clip-rule="evenodd" d="M415.018 128.536C415.009 128.462 414.999 128.388 414.989 128.314C412.397 108.813 400.582 94.295 388.599 95.888C374.423 96.3976 369.024 114.517 371.584 133.98L371.584 133.98L375.349 162.3L418.74 156.531L415.018 128.536Z" fill="#1F2C3E"/>
<path d="M382.2 104.615C386.067 95.947 392.578 96.3812 395.691 97.0068L401.759 131.53L436.035 127.794L439.686 152.801C424.15 153.503 387.256 160.094 376.768 147.872C369.973 139.953 377.367 115.449 382.2 104.615Z" fill="#1F2C3E"/>
<rect x="383.645" y="151.4" width="35.2812" height="24.3319" fill="#1F2C3E"/>
<path d="M613.75 52C613.75 49.2386 615.989 47 618.75 47C621.511 47 623.75 49.2386 623.75 52V215H613.75V52Z" fill="#334155"/>
<path d="M558.75 68C558.75 65.7909 560.541 64 562.75 64H671.136C672.176 64 673.176 64.4055 673.922 65.1304L686.795 77.6304C688.413 79.2014 688.413 81.7986 686.795 83.3696L673.922 95.8696C673.176 96.5945 672.176 97 671.136 97H562.75C560.541 97 558.75 95.2091 558.75 93V68Z" fill="#1E2841"/>
<path d="M565.75 67H669.889C670.622 67.0001 671.33 67.2691 671.879 67.7559L683.714 78.2559C685.059 79.4495 685.059 81.5505 683.714 82.7441L671.879 93.2441C671.33 93.7309 670.622 93.9999 669.889 94H565.75C564.093 94 562.75 92.6569 562.75 91V70C562.75 68.3431 564.093 67 565.75 67Z" fill="#1E2841" stroke="#334257" stroke-width="2"/>
<path d="M574.797 86V74.6875H576.828V79.8906H576.984L581.406 74.6875H583.891L579.516 79.7656L583.938 86H581.484L578.094 81.1406L576.828 82.625V86H574.797ZM585.188 86V74.6875H592.547V76.3906H587.219V79.4844H592.156V81.1875H587.219V84.2812H592.578V86H585.188ZM594.5 86V74.6875H601.859V76.3906H596.531V79.4844H601.469V81.1875H596.531V84.2812H601.891V86H594.5ZM603.812 86V74.6875H608.062C610.656 74.6875 612.039 76.2656 612.047 78.4375C612.039 80.6016 610.641 82.1719 608.031 82.1719H605.844V86H603.812ZM605.844 80.5H607.75C609.281 80.4922 609.969 79.6328 609.969 78.4375C609.969 77.2266 609.281 76.3906 607.75 76.3906H605.844V80.5ZM625.062 78.2969C624.695 77.0938 623.766 76.3594 622.391 76.3594C620.57 76.3594 619.242 77.7812 619.25 80.3281C619.242 82.8984 620.547 84.3281 622.438 84.3281C624.148 84.3281 625.234 83.2969 625.266 81.6875H622.641V80.0781H627.234V81.4375C627.234 84.3516 625.234 86.1562 622.438 86.1562C619.312 86.1562 617.195 83.9297 617.203 80.3438C617.195 76.7109 619.414 74.5312 622.375 74.5312C624.867 74.5312 626.797 76.0781 627.141 78.2969H625.062ZM639.172 80.3438C639.18 84 636.945 86.1562 633.984 86.1562C631.008 86.1562 628.789 83.9922 628.797 80.3438C628.789 76.6875 631.008 74.5312 633.984 74.5312C636.945 74.5312 639.18 76.6875 639.172 80.3438ZM630.844 80.3438C630.836 82.9297 632.141 84.3281 633.984 84.3281C635.836 84.3281 637.133 82.9297 637.125 80.3438C637.133 77.7578 635.836 76.3594 633.984 76.3594C632.141 76.3594 630.836 77.7578 630.844 80.3438ZM643.016 74.6875V86H640.984V74.6875H643.016ZM654.422 74.6875V86H652.609L647.25 78.2656H647.156V86H645.125V74.6875H646.969L652.297 82.4219H652.406V74.6875H654.422ZM664.094 78.2969C663.727 77.0938 662.797 76.3594 661.422 76.3594C659.602 76.3594 658.273 77.7812 658.281 80.3281C658.273 82.8984 659.578 84.3281 661.469 84.3281C663.18 84.3281 664.266 83.2969 664.297 81.6875H661.672V80.0781H666.266V81.4375C666.266 84.3516 664.266 86.1562 661.469 86.1562C658.344 86.1562 656.227 83.9297 656.234 80.3438C656.227 76.7109 658.445 74.5312 661.406 74.5312C663.898 74.5312 665.828 76.0781 666.172 78.2969H664.094Z" fill="#334257"/>
<rect x="587.75" y="117" width="62" height="62" rx="11" fill="#1E2841" stroke="#334257" stroke-width="2"/>
<path d="M600.297 128.391V126.688H609.312V128.391H605.828V138H603.797V128.391H600.297ZM610.906 138V126.688H612.938V131.484H618.203V126.688H620.25V138H618.203V133.188H612.938V138H610.906ZM624.375 126.688V138H622.344V126.688H624.375ZM632.641 129.797C632.539 128.82 631.719 128.258 630.5 128.266C629.211 128.258 628.445 128.883 628.438 129.734C628.43 130.688 629.438 131.078 630.375 131.297L631.438 131.578C633.125 131.969 634.75 132.859 634.75 134.828C634.75 136.812 633.18 138.172 630.469 138.172C627.836 138.172 626.164 136.906 626.078 134.672H628.078C628.172 135.852 629.164 136.43 630.453 136.438C631.789 136.43 632.711 135.781 632.719 134.812C632.711 133.922 631.898 133.547 630.672 133.234L629.391 132.906C627.531 132.422 626.375 131.484 626.375 129.859C626.375 127.859 628.148 126.531 630.531 126.531C632.93 126.531 634.562 127.883 634.594 129.797H632.641ZM603.188 156L600 144.688H602.188L604.234 153.016H604.344L606.516 144.688H608.516L610.703 153.031H610.797L612.844 144.688H615.031L611.844 156H609.828L607.562 148.047H607.484L605.203 156H603.188ZM616.703 156H614.531L618.516 144.688H621.016L625.016 156H622.844L621.898 153.203H617.641L616.703 156ZM618.188 151.562H621.352L619.812 147H619.719L618.188 151.562ZM624.422 144.688H626.719L629.5 149.688H629.609L632.391 144.688H634.688L630.578 151.766V156H628.547V151.766L624.422 144.688Z" fill="#334257"/>
<path d="M601.486 170.789L600.75 162.684L630.184 163.421V159L639.75 165.632L630.184 173V167.842L601.486 170.789Z" fill="#334257"/>
<path d="M784 13C784 10.2386 786.239 8 789 8C791.761 8 794 10.2386 794 13V215H784V13Z" fill="#334155"/>
<rect x="768" y="8" width="42" height="117" rx="4" fill="#1E2841"/>
<circle cx="788.5" cy="9.5" r="9.5" fill="#1E2841"/>
<circle cx="788.5" cy="124.5" r="9.5" fill="#1E2841"/>
<circle cx="789.125" cy="36.8747" r="9.8747" transform="rotate(90 789.125 36.8747)" fill="#334155"/>
<circle cx="789.125" cy="66.5002" r="9.8747" transform="rotate(90 789.125 66.5002)" fill="#41536C"/>
<circle cx="788.875" cy="95.8747" r="9.8747" transform="rotate(90 788.875 95.8747)" fill="#526886"/>
<defs>
<clipPath id="clip0_4903_169239">
<rect x="111.734" y="98.3174" width="21.6797" height="14.0151" rx="2.62784" fill="white"/>
</clipPath>
</defs>
</svg>
